<svg width="120" height="51" viewBox="0 0 120 51" fill="none" xmlns="http://www.w3.org/2000/svg">
<path d="M6.43123 13.1668L115.792 8.7698L113.121 38.5382L3.31071 40.256L6.43123 13.1668Z" fill="white"/>
<path d="M31.1479 17.7027C30.6019 17.7027 28.2079 18.0387 26.5909 18.4377C25.7719 18.6267 25.3729 19.0047 25.1419 19.3197C25.0159 19.5087 24.9529 19.7187 24.9319 19.9287L24.6799 29.9457C24.8479 31.7727 25.8769 32.5917 27.7879 32.4237L31.4839 32.0877L31.3579 30.3237C30.9379 30.3867 30.5389 30.4287 30.1399 30.4707C29.4679 30.5337 28.6489 30.5967 28.1449 30.5967C27.1159 30.5967 26.9689 30.3027 26.6959 29.8617C26.4439 29.3787 26.4229 23.2887 26.5069 21.8397C26.5699 21.1047 26.8219 20.7477 27.0739 20.5587C27.2209 20.4537 27.3889 20.3907 27.5779 20.3697L31.0429 19.9497L31.1479 17.7027ZM34.8301 32.4027L35.0821 22.1967L37.6651 27.4467H39.0301L41.2561 22.8057L41.4031 32.4027L43.3141 32.5287L42.7471 17.6397H41.0461L38.4631 24.6537L34.8721 17.6397L32.9821 17.9127L33.1081 32.4027H34.8301ZM49.9743 17.7867C49.0713 17.7237 47.1393 17.7237 46.0473 17.7237L44.7663 32.4027H46.5723C46.8873 30.3237 46.9293 28.3287 47.3283 26.7327L49.1343 27.0057C49.4703 28.1187 49.7433 31.0797 49.9113 32.4027H51.7173L49.9743 17.7867ZM48.9663 25.1577L47.5593 24.9897L47.7693 20.6217L48.3783 20.6427L48.9663 25.1577ZM59.4721 19.4877C59.2201 16.9467 55.1041 17.4717 53.1301 17.7237L53.6341 32.4027H55.3981V26.8377C56.6581 26.9007 59.3041 26.0187 59.4721 24.2967C59.6401 22.7007 59.6401 21.1047 59.4721 19.4877ZM57.6451 23.3097C57.5611 23.6457 57.5821 23.9607 57.2041 24.1497C57.0151 24.2337 56.8051 24.2967 56.5741 24.3387C56.3641 24.3807 55.6501 24.3597 55.5661 24.2757C55.5451 24.2337 55.4191 20.0967 55.4191 19.5507C55.4191 19.4457 57.0151 19.4667 57.3931 19.7817C57.9391 20.2437 57.7081 22.9947 57.6451 23.3097ZM63.3956 19.7817V32.4237H65.4536C65.4536 28.2447 65.2016 23.9187 65.2016 19.5297H68.2886V19.2567C68.2886 19.0047 68.2466 18.6267 68.2256 18.3117L68.1836 17.7447L60.8546 17.6187C60.7916 18.0177 60.8126 19.4037 60.8126 19.7817H63.3956ZM77.2869 22.5957C77.2869 21.0627 76.1529 20.0757 74.3049 20.3067L74.2419 17.7237H72.2469L72.2049 20.4957C71.8059 20.4747 70.4409 20.5377 70.1469 20.6427C69.6219 20.8317 69.1179 21.2727 69.1179 22.2807V26.7957C69.0969 27.2787 69.1389 27.7197 69.2859 28.0977C69.5169 28.7487 71.0709 29.3997 72.2469 29.3787L72.1839 30.8697C72.1629 31.2687 72.1419 31.6257 72.1419 31.8987C72.1209 32.0457 72.1209 32.2137 72.1209 32.3607C72.1839 32.3607 72.6249 32.3817 73.0449 32.4027L73.8849 32.4447L74.0949 29.3787C74.4939 29.4417 75.8169 29.3997 76.1319 29.2527C76.6569 29.0427 77.2449 28.2867 77.2449 26.7537C77.3079 23.5827 77.2869 22.6587 77.2869 22.5957ZM72.2889 27.4467C72.1419 27.5937 71.1129 27.5727 71.0919 27.3627C71.0709 27.2577 71.0709 22.5537 71.0709 22.5537C71.3229 22.4487 72.1419 22.4277 72.2259 22.5117C72.3309 22.6377 72.2889 27.1737 72.2889 27.4467ZM75.2709 27.3837C75.2289 27.4677 75.1659 27.5307 75.0819 27.5727C75.0399 27.6147 74.2419 27.5727 74.2419 27.4887C74.2419 27.3627 74.3469 22.4697 74.3679 22.4487C74.3679 22.4487 75.2289 22.3017 75.2919 22.6167C75.3339 22.8267 75.3339 23.0367 75.3339 23.2257C75.3339 23.4987 75.3759 27.2157 75.2709 27.3837ZM84.8607 18.0387C84.5877 17.8917 84.2937 17.7867 83.9577 17.7237L82.9707 17.6817C82.3617 17.6607 81.5427 17.6607 80.6397 17.6817C79.7367 17.7027 79.3167 18.2277 79.0857 18.7317C78.9597 19.0257 78.8967 19.3617 78.8757 19.7397L78.8547 29.9457C78.7917 31.2267 79.1697 32.1717 80.5137 32.4027C80.9967 32.4027 81.4587 32.4027 81.9207 32.4237C82.6977 32.4447 83.5797 32.4657 84.1467 32.4447C85.0497 32.4447 85.6797 31.5417 85.6797 30.6597L85.7217 25.9347C85.7217 23.4777 85.7637 20.7057 85.7637 19.7817C85.7637 18.8367 85.3017 18.3117 84.8607 18.0387ZM83.8107 29.5887C83.7687 29.8197 83.7267 30.0297 83.6637 30.2187C83.4957 30.5337 83.0127 30.8067 82.3407 30.8067C80.9547 30.8067 80.8497 30.6177 80.8497 29.6097C80.8497 29.1477 80.8917 20.4117 80.8917 20.0967C80.8917 19.0887 80.9757 18.8997 82.3617 18.8997C83.0547 18.8997 83.4117 18.9417 83.5797 19.2567C83.6427 19.4457 83.6637 19.9077 83.6847 20.1387C83.6847 20.1387 83.7687 21.7767 83.7687 24.3387C83.7687 26.4387 83.8107 29.5887 83.8107 29.5887ZM87.8006 32.4447C87.7376 32.5077 88.1996 32.4867 88.6406 32.4237L89.5436 32.3187L89.6696 26.7327L91.6436 26.8587L92.0846 32.2347L93.8276 32.1927L93.8696 17.5977H92.3576L91.7276 25.1367L89.5016 25.0107L89.1026 17.9127C88.8296 17.9127 88.5566 17.9127 88.3256 17.8917C87.9266 17.8917 87.5066 17.8707 87.4436 17.8707C87.3176 17.8707 87.8846 32.3607 87.8006 32.4447Z" fill="#004F91"/>
</svg>
