<svg width="174" height="49" viewBox="0 0 174 49" fill="none" xmlns="http://www.w3.org/2000/svg">
<path d="M9.15251 10.7343L171.459 8.0066L164.611 38.2562L1.89953 38.2503L9.15251 10.7343Z" fill="white"/>
<path d="M26.8041 31.4444L26.9931 16.7654L25.0191 16.8494L22.1211 26.4464L21.9111 16.4714L19.8531 16.7234L20.1471 31.6124L22.2891 31.5284L24.9771 22.7714L24.6621 31.4864L26.8041 31.4444ZM28.6476 16.7234C28.5846 21.4484 28.7526 26.3204 28.8996 31.4444H30.7896V18.6134H34.9686C35.0316 18.1934 35.0526 17.2904 35.0526 16.7234H28.6476ZM42.6727 18.5294C42.4207 15.9884 38.3047 16.5134 36.3307 16.7654L36.8347 31.4444H38.5987V25.8794C39.8587 25.9424 42.5047 25.0604 42.6727 23.3384C42.8407 21.7424 42.8407 20.1464 42.6727 18.5294ZM40.8457 22.3514C40.7617 22.6874 40.7827 23.0024 40.4047 23.1914C40.2157 23.2754 40.0057 23.3384 39.7747 23.3804C39.5647 23.4224 38.8507 23.4014 38.7667 23.3174C38.7457 23.2754 38.6197 19.1384 38.6197 18.5924C38.6197 18.4874 40.2157 18.5084 40.5937 18.8234C41.1397 19.2854 40.9087 22.0364 40.8457 22.3514ZM50.2293 17.0804C49.9563 16.9334 49.6623 16.8284 49.3263 16.7654L48.3393 16.7234C47.7303 16.7024 46.9113 16.7024 46.0083 16.7234C45.1053 16.7444 44.6853 17.2694 44.4543 17.7734C44.3283 18.0674 44.2653 18.4034 44.2443 18.7814L44.2233 28.9874C44.1603 30.2684 44.5383 31.2134 45.8823 31.4444C46.3653 31.4444 46.8273 31.4444 47.2893 31.4654C48.0663 31.4864 48.9483 31.5074 49.5153 31.4864C50.4183 31.4864 51.0483 30.5834 51.0483 29.7014L51.0903 24.9764C51.0903 22.5194 51.1323 19.7474 51.1323 18.8234C51.1323 17.8784 50.6703 17.3534 50.2293 17.0804ZM49.1793 28.6304C49.1373 28.8614 49.0953 29.0714 49.0323 29.2604C48.8643 29.5754 48.3813 29.8484 47.7093 29.8484C46.3233 29.8484 46.2183 29.6594 46.2183 28.6514C46.2183 28.1894 46.2603 19.4534 46.2603 19.1384C46.2603 18.1304 46.3443 17.9414 47.7303 17.9414C48.4233 17.9414 48.7803 17.9834 48.9483 18.2984C49.0113 18.4874 49.0323 18.9494 49.0533 19.1804C49.0533 19.1804 49.1373 20.8184 49.1373 23.3804C49.1373 25.4804 49.1793 28.6304 49.1793 28.6304ZM58.8391 24.6824C58.5661 24.5354 58.2721 24.4304 57.9151 24.3674L55.2481 23.7794C55.3951 23.8004 55.5631 23.8004 55.7731 23.8004C56.1301 23.8004 56.6551 23.8004 57.4111 23.7374C58.1461 23.6744 58.6291 23.3384 58.9021 23.0234C59.0491 22.8344 59.1751 22.6244 59.2591 22.3934L59.3221 21.2594C59.3431 20.5664 59.3431 19.6214 59.2591 18.5924C59.1541 17.5844 58.5661 17.1014 57.9991 16.8704C57.6631 16.7234 57.2851 16.6604 56.8651 16.6814C55.6051 16.6184 54.2191 16.7024 52.8961 16.8914C52.7071 21.4904 52.7071 26.1734 53.1061 31.6124L54.9751 31.5284C56.0041 31.4654 57.1591 31.4444 57.8941 31.3814C58.5871 31.3604 58.9651 31.1294 59.1541 30.8984C59.2591 30.7724 59.3431 30.6254 59.3641 30.4784C59.4061 29.9114 59.4481 29.3654 59.5111 28.8194C59.5951 27.8954 59.6581 26.8034 59.7211 26.0684C59.7841 25.3334 59.3221 24.9344 58.8391 24.6824ZM55.2481 17.6474C55.2691 17.6474 55.2691 17.6264 55.2901 17.6264C55.8151 17.5214 56.5501 17.7734 56.5921 18.3824C56.6131 18.5714 56.6551 20.5034 56.5921 20.9864C56.5501 21.3434 56.3191 21.9524 55.9411 22.1414C55.7521 22.2254 55.2061 22.2464 55.2061 22.2464C55.2061 22.2464 55.2271 17.6474 55.2481 17.6474ZM56.9491 27.6014C56.9281 27.9794 56.8861 28.3574 56.8441 28.7354C56.8021 29.1554 56.7391 29.6174 56.5291 29.9744C56.3191 30.3104 55.2271 30.2894 55.2271 30.2894C55.2271 30.2894 55.0381 26.1944 55.2061 25.3964C55.2271 25.3544 56.1091 25.3754 56.3611 25.5854C56.9071 26.0684 56.9701 26.9084 56.9491 27.6014ZM66.419 16.8284C65.516 16.7654 63.584 16.7654 62.492 16.7654L61.211 31.4444H63.017C63.332 29.3654 63.374 27.3704 63.773 25.7744L65.579 26.0474C65.915 27.1604 66.188 30.1214 66.356 31.4444H68.162L66.419 16.8284ZM65.411 24.1994L64.004 24.0314L64.214 19.6634L64.823 19.6844L65.411 24.1994ZM71.7378 25.9844C71.1288 27.4964 70.2468 29.5124 69.5748 31.1504C69.7848 31.3604 70.8558 31.6124 71.1498 31.7384L73.7328 26.2154V31.4444H75.4758C75.4758 28.4834 76.1268 19.6844 75.9588 16.8284C75.1188 16.7654 73.2078 16.7654 72.2418 16.7654C71.2548 16.7654 69.7428 17.5004 69.7428 18.7604V23.2334C69.7428 24.4514 70.6878 25.4384 71.7378 25.9844ZM71.6748 23.2544C71.5908 22.8554 71.3808 19.3904 71.9268 18.8024C72.2838 18.4034 73.9008 18.3824 73.9008 18.5294C73.9008 19.2014 73.7748 24.4304 73.7328 24.4724C73.6488 24.5774 72.9348 24.5984 72.7248 24.5564C72.5148 24.4934 72.3048 24.4094 72.1158 24.3044C71.7168 24.0524 71.7378 23.6744 71.6748 23.2544ZM85.686 18.7184L89.151 18.7394C89.004 23.4434 88.941 27.7694 88.92 31.8014L90.663 31.7594L90.705 17.1644L83.985 16.9124C83.859 16.9124 84.426 31.4024 84.342 31.4864C84.279 31.5494 84.741 31.5284 85.182 31.4654L86.085 31.3604L85.686 18.7184ZM98.6043 18.5294C98.3523 15.9884 94.2363 16.5134 92.2623 16.7654L92.7663 31.4444H94.5303V25.8794C95.7903 25.9424 98.4363 25.0604 98.6043 23.3384C98.7723 21.7424 98.7723 20.1464 98.6043 18.5294ZM96.7773 22.3514C96.6933 22.6874 96.7143 23.0024 96.3363 23.1914C96.1473 23.2754 95.9373 23.3384 95.7063 23.3804C95.4963 23.4224 94.7823 23.4014 94.6983 23.3174C94.6773 23.2754 94.5513 19.1384 94.5513 18.5924C94.5513 18.4874 96.1473 18.5084 96.5253 18.8234C97.0713 19.2854 96.8403 22.0364 96.7773 22.3514ZM107.064 31.4444L107.253 16.7654L105.279 16.8494L102.381 26.4464L102.171 16.4714L100.113 16.7234L100.407 31.6124L102.549 31.5284L105.237 22.7714L104.922 31.4864L107.064 31.4444ZM115.27 16.7444C114.724 16.7444 112.33 17.0804 110.713 17.4794C109.894 17.6684 109.495 18.0464 109.264 18.3614C109.138 18.5504 109.075 18.7604 109.054 18.9704L108.802 28.9874C108.97 30.8144 109.999 31.6334 111.91 31.4654L115.606 31.1294L115.48 29.3654C115.06 29.4284 114.661 29.4704 114.262 29.5124C113.59 29.5754 112.771 29.6384 112.267 29.6384C111.238 29.6384 111.091 29.3444 110.818 28.9034C110.566 28.4204 110.545 22.3304 110.629 20.8814C110.692 20.1464 110.944 19.7894 111.196 19.6004C111.343 19.4954 111.511 19.4324 111.7 19.4114L115.165 18.9914L115.27 16.7444ZM119.499 18.8234V31.4654H121.557C121.557 27.2864 121.305 22.9604 121.305 18.5714H124.392V18.2984C124.392 18.0464 124.35 17.6684 124.329 17.3534L124.287 16.7864L116.958 16.6604C116.895 17.0594 116.916 18.4454 116.916 18.8234H119.499ZM130.857 16.8284C129.954 16.7654 128.022 16.7654 126.93 16.7654L125.649 31.4444H127.455C127.77 29.3654 127.812 27.3704 128.211 25.7744L130.017 26.0474C130.353 27.1604 130.626 30.1214 130.794 31.4444H132.6L130.857 16.8284ZM129.849 24.1994L128.442 24.0314L128.652 19.6634L129.261 19.6844L129.849 24.1994ZM140.165 24.6824C139.892 24.5354 139.598 24.4304 139.241 24.3674L136.574 23.7794C136.721 23.8004 136.889 23.8004 137.099 23.8004C137.456 23.8004 137.981 23.8004 138.737 23.7374C139.472 23.6744 139.955 23.3384 140.228 23.0234C140.375 22.8344 140.501 22.6244 140.585 22.3934L140.648 21.2594C140.669 20.5664 140.669 19.6214 140.585 18.5924C140.48 17.5844 139.892 17.1014 139.325 16.8704C138.989 16.7234 138.611 16.6604 138.191 16.6814C136.931 16.6184 135.545 16.7024 134.222 16.8914C134.033 21.4904 134.033 26.1734 134.432 31.6124L136.301 31.5284C137.33 31.4654 138.485 31.4444 139.22 31.3814C139.913 31.3604 140.291 31.1294 140.48 30.8984C140.585 30.7724 140.669 30.6254 140.69 30.4784C140.732 29.9114 140.774 29.3654 140.837 28.8194C140.921 27.8954 140.984 26.8034 141.047 26.0684C141.11 25.3334 140.648 24.9344 140.165 24.6824ZM136.574 17.6474C136.595 17.6474 136.595 17.6264 136.616 17.6264C137.141 17.5214 137.876 17.7734 137.918 18.3824C137.939 18.5714 137.981 20.5034 137.918 20.9864C137.876 21.3434 137.645 21.9524 137.267 22.1414C137.078 22.2254 136.532 22.2464 136.532 22.2464C136.532 22.2464 136.553 17.6474 136.574 17.6474ZM138.275 27.6014C138.254 27.9794 138.212 28.3574 138.17 28.7354C138.128 29.1554 138.065 29.6174 137.855 29.9744C137.645 30.3104 136.553 30.2894 136.553 30.2894C136.553 30.2894 136.364 26.1944 136.532 25.3964C136.553 25.3544 137.435 25.3754 137.687 25.5854C138.233 26.0684 138.296 26.9084 138.275 27.6014ZM142.642 16.8074L142.81 31.5704H144.658L144.7 25.1864L147.598 31.5284L149.257 30.2264L145.792 24.0944L149.572 18.0464L148.375 16.5974L144.574 22.7714L144.49 16.4714L142.642 16.8074ZM156.128 16.8284C155.225 16.7654 153.293 16.7654 152.201 16.7654L150.92 31.4444H152.726C153.041 29.3654 153.083 27.3704 153.482 25.7744L155.288 26.0474C155.624 27.1604 155.897 30.1214 156.065 31.4444H157.871L156.128 16.8284ZM155.12 24.1994L153.713 24.0314L153.923 19.6634L154.532 19.6844L155.12 24.1994Z" fill="#004F91"/>
</svg>
