<svg width="154" height="47" viewBox="0 0 154 47" fill="none" xmlns="http://www.w3.org/2000/svg">
<path d="M145.499 37.4955L1.72624 38.3632L7.77163 8.73724L151.905 10.5581L145.499 37.4955Z" fill="white"/>
<path d="M39.7814 16.8463C39.2354 16.8463 36.8414 17.1823 35.2244 17.5813C34.4054 17.7703 34.0064 18.1483 33.7754 18.4633C33.6494 18.6523 33.5864 18.8623 33.5654 19.0723L33.3134 29.0893C33.4814 30.9163 34.5104 31.7353 36.4214 31.5673L40.1174 31.2313L39.9914 29.4673C39.5714 29.5303 39.1724 29.5723 38.7734 29.6143C38.1014 29.6773 37.2824 29.7403 36.7784 29.7403C35.7494 29.7403 35.6024 29.4463 35.3294 29.0053C35.0774 28.5223 35.0564 22.4323 35.1404 20.9833C35.2034 20.2483 35.4554 19.8913 35.7074 19.7023C35.8544 19.5973 36.0224 19.5343 36.2114 19.5133L39.6764 19.0933L39.7814 16.8463ZM43.4637 31.5463L43.7157 21.3403L46.2987 26.5903H47.6637L49.8897 21.9493L50.0367 31.5463L51.9477 31.6723L51.3807 16.7833H49.6797L47.0967 23.7973L43.5057 16.7833L41.6157 17.0563L41.7417 31.5463H43.4637ZM58.6078 16.9303C57.7048 16.8673 55.7728 16.8673 54.6808 16.8673L53.3998 31.5463H55.2058C55.5208 29.4673 55.5628 27.4723 55.9618 25.8763L57.7678 26.1493C58.1038 27.2623 58.3768 30.2233 58.5448 31.5463H60.3508L58.6078 16.9303ZM57.5998 24.3013L56.1928 24.1333L56.4028 19.7653L57.0118 19.7863L57.5998 24.3013ZM68.1056 18.6313C67.8536 16.0903 63.7376 16.6153 61.7636 16.8673L62.2676 31.5463H64.0316V25.9813C65.2916 26.0443 67.9376 25.1623 68.1056 23.4403C68.2736 21.8443 68.2736 20.2483 68.1056 18.6313ZM66.2786 22.4533C66.1946 22.7893 66.2156 23.1043 65.8376 23.2933C65.6486 23.3773 65.4386 23.4403 65.2076 23.4823C64.9976 23.5243 64.2836 23.5033 64.1996 23.4193C64.1786 23.3773 64.0526 19.2403 64.0526 18.6943C64.0526 18.5893 65.6486 18.6103 66.0266 18.9253C66.5726 19.3873 66.3416 22.1383 66.2786 22.4533ZM72.0292 18.9253V31.5673H74.0872C74.0872 27.3883 73.8352 23.0623 73.8352 18.6733H76.9222V18.4003C76.9222 18.1483 76.8802 17.7703 76.8592 17.4553L76.8172 16.8883L69.4882 16.7623C69.4252 17.1613 69.4462 18.5473 69.4462 18.9253H72.0292ZM78.3051 23.3773L78.2631 25.6663L85.5711 25.5403L85.6971 23.0413L78.3051 23.3773ZM87.5663 16.8463C87.6713 16.8463 87.5243 26.6743 87.5873 26.6743H89.7293H91.8083L91.9133 31.7143L94.1183 31.5673L94.3073 16.8673L92.2493 16.7833L91.8713 24.5743L89.4563 24.6793L89.5403 16.9513L88.5113 16.8883C88.0073 16.8673 87.5033 16.8463 87.5663 16.8463ZM100.994 16.9303C100.091 16.8673 98.1586 16.8673 97.0666 16.8673L95.7856 31.5463H97.5916C97.9066 29.4673 97.9486 27.4723 98.3476 25.8763L100.154 26.1493C100.49 27.2623 100.763 30.2233 100.931 31.5463H102.737L100.994 16.9303ZM99.9856 24.3013L98.5786 24.1333L98.7886 19.7653L99.3976 19.7863L99.9856 24.3013ZM110.617 16.8463C110.071 16.8463 107.677 17.1823 106.06 17.5813C105.241 17.7703 104.842 18.1483 104.611 18.4633C104.485 18.6523 104.422 18.8623 104.401 19.0723L104.149 29.0893C104.317 30.9163 105.346 31.7353 107.257 31.5673L110.953 31.2313L110.827 29.4673C110.407 29.5303 110.008 29.5723 109.609 29.6143C108.937 29.6773 108.118 29.7403 107.614 29.7403C106.585 29.7403 106.438 29.4463 106.165 29.0053C105.913 28.5223 105.892 22.4323 105.976 20.9833C106.039 20.2483 106.291 19.8913 106.543 19.7023C106.69 19.5973 106.858 19.5343 107.047 19.5133L110.512 19.0933L110.617 16.8463ZM118.521 25.4773C118.458 25.1413 118.332 24.8473 118.164 24.5953C117.849 24.1543 117.345 23.7133 116.421 23.7133C115.497 23.7133 115.035 23.7343 114.804 23.7553C114.657 23.7763 114.594 23.7763 114.573 23.7973L114.447 16.6363L112.536 16.9093L112.452 31.5043L116.337 31.4623C116.736 31.4203 117.114 31.3363 117.45 31.1893C118.017 30.9583 118.542 30.5593 118.605 29.8243C118.626 29.0893 118.605 28.0183 118.584 27.1153L118.521 25.4773ZM116.505 29.8663C116.127 30.1813 114.531 30.2023 114.531 30.0973C114.531 29.5513 114.657 25.4143 114.678 25.3723C114.762 25.2883 115.476 25.2673 115.686 25.3093C115.917 25.3513 116.127 25.4143 116.316 25.4983C116.694 25.6873 116.673 26.0023 116.757 26.3383C116.82 26.6533 117.051 29.4043 116.505 29.8663ZM122.301 16.9513L119.97 16.9093L120.327 31.5883L122.343 31.5463L122.301 16.9513Z" fill="#004F91"/>
</svg>
