<svg width="137" height="55" viewBox="0 0 137 55" fill="none" xmlns="http://www.w3.org/2000/svg">
<path d="M14.7798 14.3423L131.257 10.9236L125.164 40.7185L5.44681 41.5812L14.7798 14.3423Z" fill="white"/>
<path d="M38.9404 20.9168L42.4054 20.9378C42.2584 25.6418 42.1954 29.9678 42.1744 33.9998L43.9174 33.9578L43.9594 19.3628L37.2394 19.1108C37.1134 19.1108 37.6804 33.6008 37.5964 33.6848C37.5334 33.7478 37.9954 33.7268 38.4364 33.6638L39.3394 33.5588L38.9404 20.9168ZM46.9867 33.6848C48.5827 33.6848 50.4307 31.6268 50.5357 29.6318L50.5777 20.8118H52.7197L52.7617 33.8108H54.9457L54.5467 18.8798L48.6037 18.9218C48.6037 20.6438 48.6037 22.2398 48.6247 23.6888C48.6247 26.1668 48.6457 28.8338 48.6457 29.5688C48.6457 31.0808 47.4277 31.8578 46.5877 31.8578L45.4747 31.8998L45.3487 33.7268L46.9867 33.6848ZM61.6285 19.0268C60.7255 18.9638 58.7935 18.9638 57.7015 18.9638L56.4205 33.6428H58.2265C58.5415 31.5638 58.5835 29.5688 58.9825 27.9728L60.7885 28.2458C61.1245 29.3588 61.3975 32.3198 61.5655 33.6428H63.3715L61.6285 19.0268ZM60.6205 26.3978L59.2135 26.2298L59.4235 21.8618L60.0325 21.8828L60.6205 26.3978ZM65.2673 33.6848C65.2043 33.7478 65.6663 33.7268 66.1073 33.6638L67.0103 33.5588L67.1363 27.9728L69.1103 28.0988L69.5513 33.4748L71.2943 33.4328L71.3363 18.8378H69.8243L69.1943 26.3768L66.9683 26.2508L66.5693 19.1528C66.2963 19.1528 66.0233 19.1528 65.7923 19.1318C65.3933 19.1318 64.9733 19.1108 64.9103 19.1108C64.7843 19.1108 65.3513 33.6008 65.2673 33.6848ZM73.0895 19.0478L72.9635 33.6008L83.7365 33.5588L84.1775 18.9218L81.9935 18.8798L81.4265 31.5848L79.4525 31.7948V18.8798H77.3525L77.3945 31.6688L75.2945 31.7948L75.1475 18.9638L73.0895 19.0478ZM86.0695 33.6428H92.3695V32.0678H88.1065C88.0855 31.2488 87.8965 29.9888 87.8965 29.1698V28.9178L91.8445 28.3928V26.8178H87.8965C87.8335 26.2298 87.5395 21.9248 87.6445 20.5178H92.3695V18.9428C90.2695 18.9428 87.8755 18.8378 85.7755 18.9428L86.0695 33.6428ZM96.2042 21.0218V33.6638H98.2622C98.2622 29.4848 98.0102 25.1588 98.0102 20.7698H101.097V20.4968C101.097 20.2448 101.055 19.8668 101.034 19.5518L100.992 18.9848L93.6632 18.8588C93.6002 19.2578 93.6212 20.6438 93.6212 21.0218H96.2042Z" fill="#004F91"/>
</svg>
