<svg width="173" height="103" viewBox="0 0 173 103" fill="none" xmlns="http://www.w3.org/2000/svg">
<path d="M33.4314 26.3071L142.792 21.9101L140.121 51.6785L30.3109 53.3963L33.4314 26.3071Z" fill="white"/>
<path d="M61.8886 39.684C61.8676 38.844 61.5526 38.361 61.2376 38.046C61.0486 37.878 60.8596 37.752 60.6286 37.668C59.8726 37.521 59.0116 37.458 57.9406 37.521C57.9196 36.009 57.8356 34.581 57.9826 32.712C59.6416 32.859 60.7126 32.775 61.8886 32.754L61.8466 30.738C60.0826 30.675 58.2346 30.633 56.0296 30.78L55.7986 45.543H60.3556C61.0486 45.543 61.4476 45.165 61.6786 44.766C61.8046 44.535 61.8886 44.262 61.9306 43.968V42.456C61.9306 41.595 61.9096 40.545 61.8886 39.684ZM59.8726 43.779C59.4946 44.094 57.8986 44.136 57.8986 44.01C57.8986 43.485 58.0246 39.327 58.0456 39.285C58.1296 39.201 58.8436 39.18 59.0536 39.222C59.2846 39.264 59.4946 39.327 59.6836 39.432C60.0616 39.621 60.0406 39.915 60.1246 40.251C60.1876 40.566 60.4186 43.317 59.8726 43.779ZM69.5527 31.179C69.2797 31.032 68.9857 30.927 68.6497 30.864L67.6627 30.822C67.0537 30.801 66.2347 30.801 65.3317 30.822C64.4287 30.843 64.0087 31.368 63.7777 31.872C63.6517 32.166 63.5887 32.502 63.5677 32.88L63.5467 43.086C63.4837 44.367 63.8617 45.312 65.2057 45.543C65.6887 45.543 66.1507 45.543 66.6127 45.564C67.3897 45.585 68.2717 45.606 68.8387 45.585C69.7417 45.585 70.3717 44.682 70.3717 43.8L70.4137 39.075C70.4137 36.618 70.4557 33.846 70.4557 32.922C70.4557 31.977 69.9937 31.452 69.5527 31.179ZM68.5027 42.729C68.4607 42.96 68.4187 43.17 68.3557 43.359C68.1877 43.674 67.7047 43.947 67.0327 43.947C65.6467 43.947 65.5417 43.758 65.5417 42.75C65.5417 42.288 65.5837 33.552 65.5837 33.237C65.5837 32.229 65.6677 32.04 67.0537 32.04C67.7467 32.04 68.1037 32.082 68.2717 32.397C68.3347 32.586 68.3557 33.048 68.3767 33.279C68.3767 33.279 68.4607 34.917 68.4607 37.479C68.4607 39.579 68.5027 42.729 68.5027 42.729ZM72.4926 45.585C72.4296 45.648 72.8916 45.627 73.3326 45.564L74.2356 45.459L74.3616 39.873L76.3356 39.999L76.7766 45.375L78.5196 45.333L78.5616 30.738H77.0496L76.4196 38.277L74.1936 38.151L73.7946 31.053C73.5216 31.053 73.2486 31.053 73.0176 31.032C72.6186 31.032 72.1986 31.011 72.1356 31.011C72.0096 31.011 72.5766 45.501 72.4926 45.585ZM82.1208 38.781L79.9578 45.543L81.9108 45.837L86.4888 31.053L84.8088 30.864L83.0868 35.673L81.6168 30.612L79.9578 30.906L82.1208 38.781ZM94.2793 30.843C93.7333 30.843 91.3393 31.179 89.7223 31.578C88.9033 31.767 88.5043 32.145 88.2733 32.46C88.1473 32.649 88.0843 32.859 88.0633 33.069L87.8113 43.086C87.9793 44.913 89.0083 45.732 90.9193 45.564L94.6153 45.228L94.4893 43.464C94.0693 43.527 93.6703 43.569 93.2713 43.611C92.5993 43.674 91.7803 43.737 91.2763 43.737C90.2473 43.737 90.1003 43.443 89.8273 43.002C89.5753 42.519 89.5543 36.429 89.6383 34.98C89.7013 34.245 89.9533 33.888 90.2053 33.699C90.3523 33.594 90.5203 33.531 90.7093 33.51L94.1743 33.09L94.2793 30.843ZM102.141 31.179C101.868 31.032 101.574 30.927 101.238 30.864L100.251 30.822C99.6416 30.801 98.8226 30.801 97.9196 30.822C97.0166 30.843 96.5966 31.368 96.3656 31.872C96.2396 32.166 96.1766 32.502 96.1556 32.88L96.1346 43.086C96.0716 44.367 96.4496 45.312 97.7936 45.543C98.2766 45.543 98.7386 45.543 99.2006 45.564C99.9776 45.585 100.86 45.606 101.427 45.585C102.33 45.585 102.96 44.682 102.96 43.8L103.002 39.075C103.002 36.618 103.044 33.846 103.044 32.922C103.044 31.977 102.582 31.452 102.141 31.179ZM101.091 42.729C101.049 42.96 101.007 43.17 100.944 43.359C100.776 43.674 100.293 43.947 99.6206 43.947C98.2346 43.947 98.1296 43.758 98.1296 42.75C98.1296 42.288 98.1716 33.552 98.1716 33.237C98.1716 32.229 98.2556 32.04 99.6416 32.04C100.335 32.04 100.692 32.082 100.86 32.397C100.923 32.586 100.944 33.048 100.965 33.279C100.965 33.279 101.049 34.917 101.049 37.479C101.049 39.579 101.091 42.729 101.091 42.729ZM110.75 38.781C110.477 38.634 110.183 38.529 109.826 38.466L107.159 37.878C107.306 37.899 107.474 37.899 107.684 37.899C108.041 37.899 108.566 37.899 109.322 37.836C110.057 37.773 110.54 37.437 110.813 37.122C110.96 36.933 111.086 36.723 111.17 36.492L111.233 35.358C111.254 34.665 111.254 33.72 111.17 32.691C111.065 31.683 110.477 31.2 109.91 30.969C109.574 30.822 109.196 30.759 108.776 30.78C107.516 30.717 106.13 30.801 104.807 30.99C104.618 35.589 104.618 40.272 105.017 45.711L106.886 45.627C107.915 45.564 109.07 45.543 109.805 45.48C110.498 45.459 110.876 45.228 111.065 44.997C111.17 44.871 111.254 44.724 111.275 44.577C111.317 44.01 111.359 43.464 111.422 42.918C111.506 41.994 111.569 40.902 111.632 40.167C111.695 39.432 111.233 39.033 110.75 38.781ZM107.159 31.746C107.18 31.746 107.18 31.725 107.201 31.725C107.726 31.62 108.461 31.872 108.503 32.481C108.524 32.67 108.566 34.602 108.503 35.085C108.461 35.442 108.23 36.051 107.852 36.24C107.663 36.324 107.117 36.345 107.117 36.345C107.117 36.345 107.138 31.746 107.159 31.746ZM108.86 41.7C108.839 42.078 108.797 42.456 108.755 42.834C108.713 43.254 108.65 43.716 108.44 44.073C108.23 44.409 107.138 44.388 107.138 44.388C107.138 44.388 106.949 40.293 107.117 39.495C107.138 39.453 108.02 39.474 108.272 39.684C108.818 40.167 108.881 41.007 108.86 41.7ZM116.356 29.016L116.398 31.179L114.109 30.78L113.626 32.964L115.873 33.678L115.264 35.904L117.259 36.345L118.141 33.804L119.464 36.072L121.081 35.064L120.073 32.838L121.963 32.019L121.186 30.234L119.023 30.948L118.54 28.89L116.356 29.016Z" fill="#004F91"/>
<path d="M26.0944 77.3749C26.0314 77.4379 26.4934 77.4169 26.9344 77.3539L27.8374 77.2489L27.9634 71.6629L29.9374 71.7889L30.3784 77.1649L32.1214 77.1229L32.1634 62.5279H30.6514L30.0214 70.0669L27.7954 69.9409L27.3964 62.8429C27.1234 62.8429 26.8504 62.8429 26.6194 62.8219C26.2204 62.8219 25.8004 62.8009 25.7374 62.8009C25.6114 62.8009 26.1784 77.2909 26.0944 77.3749ZM38.8726 62.7169C37.9696 62.6539 36.0376 62.6539 34.9456 62.6539L33.6646 77.3329H35.4706C35.7856 75.2539 35.8276 73.2589 36.2266 71.6629L38.0326 71.9359C38.3686 73.0489 38.6416 76.0099 38.8096 77.3329H40.6156L38.8726 62.7169ZM37.8646 70.0879L36.4576 69.9199L36.6676 65.5519L37.2766 65.5729L37.8646 70.0879ZM48.3204 62.6959L48.4884 77.4589H50.3364L50.3784 71.0749L53.2764 77.4169L54.9354 76.1149L51.4704 69.9829L55.2504 63.9349L54.0534 62.4859L50.2524 68.6599L50.1684 62.3599L48.3204 62.6959ZM61.8062 62.7169C60.9032 62.6539 58.9712 62.6539 57.8792 62.6539L56.5982 77.3329H58.4042C58.7192 75.2539 58.7612 73.2589 59.1602 71.6629L60.9662 71.9359C61.3022 73.0489 61.5752 76.0099 61.7432 77.3329H63.5492L61.8062 62.7169ZM60.7982 70.0879L59.3912 69.9199L59.6012 65.5519L60.2102 65.5729L60.7982 70.0879ZM71.304 64.4179C71.052 61.8769 66.936 62.4019 64.962 62.6539L65.466 77.3329H67.23V71.7679C68.49 71.8309 71.136 70.9489 71.304 69.2269C71.472 67.6309 71.472 66.0349 71.304 64.4179ZM69.477 68.2399C69.393 68.5759 69.414 68.8909 69.036 69.0799C68.847 69.1639 68.637 69.2269 68.406 69.2689C68.196 69.3109 67.482 69.2899 67.398 69.2059C67.377 69.1639 67.251 65.0269 67.251 64.4809C67.251 64.3759 68.847 64.3969 69.225 64.7119C69.771 65.1739 69.54 67.9249 69.477 68.2399ZM75.2276 64.7119V77.3539H77.2856C77.2856 73.1749 77.0336 68.8489 77.0336 64.4599H80.1206V64.1869C80.1206 63.9349 80.0786 63.5569 80.0576 63.2419L80.0156 62.6749L72.6866 62.5489C72.6236 62.9479 72.6446 64.3339 72.6446 64.7119H75.2276ZM83.4355 70.5709L81.2725 77.3329L83.2255 77.6269L87.8035 62.8429L86.1235 62.6539L84.4015 67.4629L82.9315 62.4019L81.2725 62.6959L83.4355 70.5709ZM97.287 77.3329L97.539 67.1269L100.122 72.3769H101.487L103.713 67.7359L103.86 77.3329L105.771 77.4589L105.204 62.5699H103.503L100.92 69.5839L97.329 62.5699L95.439 62.8429L95.565 77.3329H97.287ZM112.431 62.7169C111.528 62.6539 109.596 62.6539 108.504 62.6539L107.223 77.3329H109.029C109.344 75.2539 109.386 73.2589 109.785 71.6629L111.591 71.9359C111.927 73.0489 112.2 76.0099 112.368 77.3329H114.174L112.431 62.7169ZM111.423 70.0879L110.016 69.9199L110.226 65.5519L110.835 65.5729L111.423 70.0879ZM115.692 62.6119C115.629 67.3369 115.797 72.2089 115.944 77.3329H117.834V64.5019H122.013C122.076 64.0819 122.097 63.1789 122.097 62.6119H115.692ZM123.858 77.3749C123.795 77.4379 124.257 77.4169 124.698 77.3539L125.601 77.2489L125.727 71.6629L127.701 71.7889L128.142 77.1649L129.885 77.1229L129.927 62.5279H128.415L127.785 70.0669L125.559 69.9409L125.16 62.8429C124.887 62.8429 124.614 62.8429 124.383 62.8219C123.984 62.8219 123.564 62.8009 123.501 62.8009C123.375 62.8009 123.942 77.2909 123.858 77.3749ZM138.484 77.3329L138.673 62.6539L136.699 62.7379L133.801 72.3349L133.591 62.3599L131.533 62.6119L131.827 77.5009L133.969 77.4169L136.657 68.6599L136.342 77.3749L138.484 77.3329ZM142.68 64.7119V77.3539H144.738C144.738 73.1749 144.486 68.8489 144.486 64.4599H147.573V64.1869C147.573 63.9349 147.531 63.5569 147.51 63.2419L147.468 62.6749L140.139 62.5489C140.076 62.9479 140.097 64.3339 140.097 64.7119H142.68Z" fill="white"/>
<path d="M37.9878 89.896L37.2838 90.408L36.2598 88.728C36.2278 88.7707 36.1585 88.8773 36.0518 89.048C35.9558 89.208 35.8491 89.384 35.7318 89.576C35.6251 89.7573 35.5238 89.9333 35.4278 90.104C35.3318 90.2747 35.2678 90.3813 35.2358 90.424C35.2145 90.4027 35.1665 90.3707 35.0918 90.328C35.0278 90.2747 34.9585 90.2213 34.8838 90.168C34.8091 90.104 34.7345 90.0507 34.6598 90.008C34.5958 89.9653 34.5531 89.9333 34.5318 89.912L35.7638 88.392C35.7105 88.3813 35.5931 88.3493 35.4118 88.296C35.2411 88.2427 35.0545 88.1893 34.8518 88.136C34.6491 88.0827 34.4571 88.0293 34.2758 87.976C34.1051 87.9227 33.9931 87.8907 33.9398 87.88C33.9505 87.848 33.9665 87.7947 33.9878 87.72C34.0091 87.6453 34.0358 87.5653 34.0678 87.48C34.0998 87.384 34.1265 87.2987 34.1478 87.224C34.1691 87.1387 34.1851 87.08 34.1958 87.048L35.9558 87.8C35.9558 87.7467 35.9505 87.624 35.9398 87.432C35.9291 87.24 35.9131 87.0373 35.8918 86.824C35.8811 86.6107 35.8651 86.408 35.8438 86.216C35.8331 86.024 35.8278 85.9013 35.8278 85.848H36.6758L36.5318 87.8C36.5745 87.7787 36.6811 87.736 36.8518 87.672C37.0331 87.5973 37.2198 87.5227 37.4118 87.448C37.6145 87.3627 37.8011 87.2827 37.9718 87.208C38.1531 87.1333 38.2705 87.08 38.3238 87.048C38.3345 87.08 38.3505 87.1387 38.3718 87.224C38.3931 87.3093 38.4198 87.3947 38.4518 87.48C38.4838 87.5653 38.5105 87.6453 38.5318 87.72C38.5531 87.7947 38.5691 87.848 38.5798 87.88L36.7398 88.392L37.9878 89.896ZM43.2311 97H42.2391V86.936L40.6391 88.088L40.6551 87.016L42.2231 85.864H43.2311V97ZM52.7656 89.32C53.3309 89.32 53.7896 89.432 54.1416 89.656C54.4936 89.8693 54.7602 90.1787 54.9416 90.584C55.0909 90.9253 55.1869 91.3413 55.2296 91.832C55.2829 92.312 55.3096 92.8027 55.3096 93.304C55.3096 93.848 55.2776 94.3067 55.2136 94.68C55.1496 95.0427 55.0376 95.384 54.8776 95.704C54.6429 96.216 54.3069 96.5787 53.8696 96.792C53.4322 97.0053 52.9682 97.112 52.4776 97.112C51.9016 97.112 51.4269 97.0053 51.0536 96.792C50.6802 96.568 50.3976 96.2693 50.2056 95.896C49.8962 95.32 49.7416 94.3227 49.7416 92.904C49.7416 92.6693 49.7469 92.424 49.7576 92.168C49.7682 91.9013 49.7789 91.6507 49.7896 91.416C49.8002 91.1813 49.8109 90.968 49.8216 90.776C49.8322 90.584 49.8482 90.4293 49.8696 90.312C49.9122 89.736 49.9922 89.2347 50.1096 88.808C50.2269 88.3707 50.3816 87.9973 50.5736 87.688C50.7762 87.368 51.0109 87.1013 51.2776 86.888C51.5549 86.664 51.8749 86.472 52.2376 86.312C52.5789 86.152 52.9309 86.008 53.2936 85.88C53.6669 85.752 54.1042 85.5867 54.6056 85.384L54.8936 86.136C54.5949 86.2747 54.3176 86.392 54.0616 86.488C53.8162 86.584 53.5816 86.6747 53.3576 86.76C53.1336 86.8453 52.9202 86.936 52.7176 87.032C52.5256 87.128 52.3336 87.24 52.1416 87.368C51.6402 87.7093 51.2936 88.1253 51.1016 88.616C50.9202 89.096 50.8082 89.6827 50.7656 90.376C50.7869 90.376 50.7976 90.3813 50.7976 90.392C51.0429 90.0187 51.3469 89.7467 51.7096 89.576C52.0722 89.4053 52.4242 89.32 52.7656 89.32ZM52.6056 90.232C52.2322 90.232 51.9176 90.3173 51.6616 90.488C51.4056 90.6587 51.2082 90.8987 51.0696 91.208C50.9416 91.464 50.8562 91.7787 50.8136 92.152C50.7709 92.5253 50.7496 92.9307 50.7496 93.368C50.7496 93.7947 50.7656 94.168 50.7976 94.488C50.8296 94.7973 50.8989 95.0693 51.0056 95.304C51.1442 95.6027 51.3362 95.8267 51.5816 95.976C51.8269 96.1253 52.1469 96.2 52.5416 96.2C52.8722 96.2 53.1656 96.1253 53.4216 95.976C53.6776 95.8267 53.8802 95.5973 54.0296 95.288C54.2216 94.9253 54.3176 94.248 54.3176 93.256C54.3176 92.8507 54.3016 92.4613 54.2696 92.088C54.2376 91.704 54.1842 91.4107 54.1096 91.208C53.9922 90.8987 53.8162 90.6587 53.5816 90.488C53.3469 90.3173 53.0216 90.232 52.6056 90.232ZM59.4173 89C59.9506 89 60.3933 89.1067 60.7453 89.32C61.108 89.5227 61.396 89.7893 61.6093 90.12C61.812 90.3973 61.9506 90.8027 62.0253 91.336C62.1 91.8693 62.1373 92.4453 62.1373 93.064C62.1373 93.256 62.132 93.4693 62.1213 93.704C62.1106 93.928 62.0893 94.1573 62.0573 94.392C62.036 94.616 62.004 94.8293 61.9613 95.032C61.9293 95.2347 61.892 95.4053 61.8493 95.544C61.6466 96.12 61.3106 96.5253 60.8413 96.76C60.3826 96.9947 59.8653 97.112 59.2893 97.112C58.7453 97.112 58.2973 97.0107 57.9453 96.808C57.604 96.6053 57.3373 96.344 57.1453 96.024C56.932 95.736 56.7826 95.3413 56.6973 94.84C56.6226 94.328 56.5853 93.7467 56.5853 93.096C56.5853 92.584 56.6066 92.1093 56.6493 91.672C56.692 91.224 56.772 90.8507 56.8893 90.552C57.092 90.0507 57.4066 89.6667 57.8333 89.4C58.2706 89.1333 58.7986 89 59.4173 89ZM59.3853 89.912C59.044 89.912 58.74 89.992 58.4733 90.152C58.2066 90.3013 57.9986 90.5307 57.8493 90.84C57.732 91.0533 57.6573 91.368 57.6253 91.784C57.5933 92.1893 57.5773 92.664 57.5773 93.208C57.5773 93.752 57.604 94.2107 57.6573 94.584C57.7106 94.9467 57.812 95.2347 57.9613 95.448C58.2493 95.9493 58.7133 96.2 59.3533 96.2C59.7053 96.2 60.0253 96.1147 60.3133 95.944C60.6013 95.7627 60.8093 95.4853 60.9373 95.112C61.0226 94.8987 61.076 94.6053 61.0973 94.232C61.1186 93.848 61.1293 93.432 61.1293 92.984C61.1293 92.504 61.108 92.088 61.0653 91.736C61.0333 91.3733 60.9746 91.096 60.8893 90.904C60.7613 90.5733 60.564 90.328 60.2973 90.168C60.0413 89.9973 59.7373 89.912 59.3853 89.912ZM67.9567 97V93.4H64.6447V97H63.6367V89.096H64.6447V92.552H67.9567V89.096H68.9807V97H67.9567ZM72.8451 95.432C72.9091 95.208 72.9891 94.9307 73.0851 94.6C73.1811 94.2693 73.2877 93.9067 73.4051 93.512C73.5224 93.1173 73.6397 92.712 73.7571 92.296C73.8851 91.8693 74.0077 91.4587 74.1251 91.064C74.2424 90.6693 74.3491 90.3067 74.4451 89.976C74.5517 89.6347 74.6371 89.3467 74.7011 89.112H75.7411L72.8131 98.68C72.4931 99.7253 71.8637 100.248 70.9251 100.248H70.5571V99.384H70.8771C71.1864 99.384 71.4211 99.2773 71.5811 99.064C71.7517 98.8613 71.8904 98.568 71.9971 98.184L72.3811 96.904C71.9437 95.6027 71.5171 94.3067 71.1011 93.016C70.6957 91.7253 70.2744 90.424 69.8371 89.112H70.9091C71.0797 89.6773 71.2504 90.2373 71.4211 90.792C71.5917 91.336 71.7624 91.8853 71.9331 92.44C71.9757 92.6 72.0344 92.8187 72.1091 93.096C72.1944 93.3627 72.2797 93.6453 72.3651 93.944C72.4611 94.232 72.5464 94.5147 72.6211 94.792C72.6957 95.0587 72.7597 95.272 72.8131 95.432H72.8451ZM80.8573 95.24C80.996 95.3253 81.1346 95.4053 81.2733 95.48C81.412 95.544 81.556 95.6133 81.7053 95.688C81.5133 96.136 81.2146 96.4827 80.8093 96.728C80.404 96.9733 79.9186 97.096 79.3533 97.096C78.756 97.096 78.2706 96.9947 77.8973 96.792C77.524 96.5787 77.2306 96.2907 77.0173 95.928C76.804 95.5547 76.6546 95.112 76.5693 94.6C76.4946 94.088 76.4573 93.5333 76.4573 92.936C76.4573 92.3813 76.5053 91.864 76.6013 91.384C76.708 90.904 76.8733 90.488 77.0973 90.136C77.332 89.784 77.636 89.5067 78.0093 89.304C78.3826 89.1013 78.8413 89 79.3853 89C79.9613 89 80.4413 89.128 80.8253 89.384C81.22 89.6293 81.5186 89.976 81.7213 90.424L80.8733 90.92C80.756 90.6213 80.5693 90.3867 80.3133 90.216C80.0573 90.0347 79.7533 89.944 79.4013 89.944C78.9853 89.944 78.6493 90.0293 78.3933 90.2C78.1373 90.36 77.94 90.5787 77.8013 90.856C77.6733 91.1333 77.5826 91.4533 77.5293 91.816C77.4866 92.1787 77.4653 92.5573 77.4653 92.952C77.4653 93.3467 77.4866 93.736 77.5293 94.12C77.572 94.504 77.6626 94.8507 77.8013 95.16C77.94 95.4587 78.132 95.704 78.3773 95.896C78.6333 96.0773 78.964 96.168 79.3693 96.168C79.732 96.168 80.0413 96.0827 80.2973 95.912C80.5533 95.7307 80.74 95.5067 80.8573 95.24ZM85.5934 91.464V90.664H91.7534V91.464H85.5934ZM85.5934 94.152V93.32H91.7534V94.152H85.5934ZM99.5279 97H98.5359V86.936L96.9359 88.088L96.9519 87.016L98.5199 85.864H99.5279V97ZM107.142 90.024C107.388 89.6507 107.676 89.3893 108.006 89.24C108.337 89.08 108.694 89 109.078 89C109.622 89 110.054 89.112 110.374 89.336C110.705 89.56 110.95 89.8587 111.11 90.232C111.281 90.5947 111.393 91.0213 111.446 91.512C111.5 91.992 111.526 92.4933 111.526 93.016C111.526 93.5173 111.494 94.0133 111.43 94.504C111.377 94.984 111.26 95.416 111.078 95.8C110.897 96.184 110.636 96.4933 110.294 96.728C109.964 96.9627 109.521 97.08 108.966 97.08C108.561 97.08 108.214 97 107.926 96.84C107.638 96.68 107.377 96.4507 107.142 96.152H107.11V100.216H106.118V89.112H107.11V90.008C107.121 90.008 107.132 90.0133 107.142 90.024ZM108.774 96.12C109.169 96.12 109.478 96.0347 109.702 95.864C109.937 95.6933 110.113 95.464 110.23 95.176C110.348 94.888 110.422 94.5627 110.454 94.2C110.497 93.8267 110.518 93.4427 110.518 93.048C110.518 92.632 110.497 92.2373 110.454 91.864C110.422 91.48 110.348 91.1493 110.23 90.872C110.113 90.584 109.942 90.36 109.718 90.2C109.494 90.0293 109.19 89.944 108.806 89.944C108.39 89.944 108.065 90.0453 107.83 90.248C107.606 90.44 107.441 90.6907 107.334 91C107.228 91.2987 107.164 91.6293 107.142 91.992C107.121 92.3547 107.11 92.7013 107.11 93.032C107.11 93.352 107.121 93.6933 107.142 94.056C107.164 94.4187 107.228 94.7547 107.334 95.064C107.452 95.3627 107.617 95.6133 107.83 95.816C108.054 96.0187 108.369 96.12 108.774 96.12ZM115.283 95.432C115.347 95.208 115.427 94.9307 115.523 94.6C115.619 94.2693 115.725 93.9067 115.843 93.512C115.96 93.1173 116.077 92.712 116.195 92.296C116.323 91.8693 116.445 91.4587 116.563 91.064C116.68 90.6693 116.787 90.3067 116.883 89.976C116.989 89.6347 117.075 89.3467 117.139 89.112H118.179L115.251 98.68C114.931 99.7253 114.301 100.248 113.363 100.248H112.995V99.384H113.315C113.624 99.384 113.859 99.2773 114.019 99.064C114.189 98.8613 114.328 98.568 114.435 98.184L114.819 96.904C114.381 95.6027 113.955 94.3067 113.539 93.016C113.133 91.7253 112.712 90.424 112.275 89.112H113.347C113.517 89.6773 113.688 90.2373 113.859 90.792C114.029 91.336 114.2 91.8853 114.371 92.44C114.413 92.6 114.472 92.8187 114.547 93.096C114.632 93.3627 114.717 93.6453 114.803 93.944C114.899 94.232 114.984 94.5147 115.059 94.792C115.133 95.0587 115.197 95.272 115.251 95.432H115.283ZM121.891 89.32C122.456 89.32 122.915 89.432 123.267 89.656C123.619 89.8693 123.885 90.1787 124.067 90.584C124.216 90.9253 124.312 91.3413 124.355 91.832C124.408 92.312 124.435 92.8027 124.435 93.304C124.435 93.848 124.403 94.3067 124.339 94.68C124.275 95.0427 124.163 95.384 124.003 95.704C123.768 96.216 123.432 96.5787 122.995 96.792C122.557 97.0053 122.093 97.112 121.603 97.112C121.027 97.112 120.552 97.0053 120.179 96.792C119.805 96.568 119.523 96.2693 119.331 95.896C119.021 95.32 118.867 94.3227 118.867 92.904C118.867 92.6693 118.872 92.424 118.883 92.168C118.893 91.9013 118.904 91.6507 118.915 91.416C118.925 91.1813 118.936 90.968 118.947 90.776C118.957 90.584 118.973 90.4293 118.995 90.312C119.037 89.736 119.117 89.2347 119.235 88.808C119.352 88.3707 119.507 87.9973 119.699 87.688C119.901 87.368 120.136 87.1013 120.403 86.888C120.68 86.664 121 86.472 121.363 86.312C121.704 86.152 122.056 86.008 122.419 85.88C122.792 85.752 123.229 85.5867 123.731 85.384L124.019 86.136C123.72 86.2747 123.443 86.392 123.187 86.488C122.941 86.584 122.707 86.6747 122.483 86.76C122.259 86.8453 122.045 86.936 121.843 87.032C121.651 87.128 121.459 87.24 121.267 87.368C120.765 87.7093 120.419 88.1253 120.227 88.616C120.045 89.096 119.933 89.6827 119.891 90.376C119.912 90.376 119.923 90.3813 119.923 90.392C120.168 90.0187 120.472 89.7467 120.835 89.576C121.197 89.4053 121.549 89.32 121.891 89.32ZM121.731 90.232C121.357 90.232 121.043 90.3173 120.787 90.488C120.531 90.6587 120.333 90.8987 120.195 91.208C120.067 91.464 119.981 91.7787 119.939 92.152C119.896 92.5253 119.875 92.9307 119.875 93.368C119.875 93.7947 119.891 94.168 119.923 94.488C119.955 94.7973 120.024 95.0693 120.131 95.304C120.269 95.6027 120.461 95.8267 120.707 95.976C120.952 96.1253 121.272 96.2 121.667 96.2C121.997 96.2 122.291 96.1253 122.547 95.976C122.803 95.8267 123.005 95.5973 123.155 95.288C123.347 94.9253 123.443 94.248 123.443 93.256C123.443 92.8507 123.427 92.4613 123.395 92.088C123.363 91.704 123.309 91.4107 123.235 91.208C123.117 90.8987 122.941 90.6587 122.707 90.488C122.472 90.3173 122.147 90.232 121.731 90.232ZM125.502 97.24C125.449 97.1227 125.39 96.9947 125.326 96.856C125.262 96.7067 125.204 96.5733 125.15 96.456C125.428 96.3067 125.657 96.152 125.838 95.992C126.02 95.832 126.164 95.6187 126.27 95.352C126.388 95.0747 126.468 94.728 126.51 94.312C126.553 93.8853 126.574 93.3307 126.574 92.648V89.112H131.246V97H130.238V89.976H127.518V93.176C127.518 93.816 127.476 94.3653 127.39 94.824C127.316 95.272 127.198 95.656 127.038 95.976C126.878 96.296 126.67 96.5573 126.414 96.76C126.158 96.952 125.854 97.112 125.502 97.24ZM133.877 96.072H135.541C136.139 96.072 136.565 95.9387 136.821 95.672C137.077 95.3947 137.205 95.0427 137.205 94.616C137.205 94.2427 137.077 93.9173 136.821 93.64C136.565 93.352 136.133 93.208 135.525 93.208L133.877 93.224V96.072ZM132.885 97V89.096H133.893V92.312H135.589C136.069 92.312 136.475 92.376 136.805 92.504C137.147 92.6213 137.419 92.7867 137.621 93C137.835 93.2027 137.984 93.4427 138.069 93.72C138.165 93.9973 138.213 94.2907 138.213 94.6C138.213 95.3253 138.005 95.9067 137.589 96.344C137.173 96.7813 136.501 97 135.573 97H132.885Z" fill="white"/>
<path d="M34.2237 8.87695C34.2237 8.80495 34.3677 3.95695 34.2957 3.95695C34.1517 3.95695 35.2797 3.90895 36.4317 3.90895L38.7837 3.86095L38.8797 1.65295L31.8717 1.50895L31.7517 11.1809L34.9197 11.3249C35.2077 11.3729 35.4717 11.4449 35.7117 11.5409C36.0957 11.7329 36.5037 12.0209 36.5277 12.6689C36.5517 13.3169 36.5517 13.8689 36.5517 14.3249C36.5517 14.5889 36.5517 14.8049 36.5277 15.0209C36.5037 15.2369 36.4317 15.4289 36.3597 15.5969C36.1917 15.8849 35.9517 16.1969 35.4717 16.2209L33.2877 16.3169L31.8237 16.3889L31.9197 18.7889L36.1677 18.4769C36.6957 18.4049 37.1757 18.2129 37.6077 17.9489C38.3037 17.4929 39.0957 16.7009 39.1677 15.1889C39.2877 12.2609 39.1437 11.5889 39.1437 11.3969C39.0717 11.0849 38.3037 9.21295 36.7437 9.02095C35.8317 8.90095 34.2717 8.87695 34.2237 8.87695ZM42.0219 15.5249C41.9499 16.9889 42.3819 18.0689 43.9179 18.3329C44.4699 18.3329 44.9979 18.3329 45.5259 18.3569C46.4139 18.3809 47.4219 18.4049 48.0699 18.3809C49.1019 18.3809 49.8219 17.3489 49.8219 16.3409L49.8699 10.9409C49.8699 8.13295 49.9179 4.96495 49.9179 3.90895C49.9179 2.82895 49.3899 2.22895 48.8859 1.91695C48.5739 1.74895 48.2379 1.62895 47.8539 1.55695L46.7259 1.50895C46.0299 1.48495 45.0939 1.48495 44.0619 1.50895C43.0299 1.53295 42.5499 2.13295 42.2859 2.70895C42.1419 3.04495 42.0699 3.42895 42.0459 3.86095L42.0219 15.5249ZM44.1579 4.62895C44.0859 4.02895 44.3979 3.76495 44.9499 3.66895C45.2619 3.69295 45.5499 3.69295 45.8379 3.69295H47.0379C47.2299 3.69295 47.3739 3.83695 47.4459 3.95695C47.4939 4.02895 47.5419 4.12495 47.5659 4.22095L47.6619 9.57295C47.7339 12.3089 47.6859 15.1409 47.6859 15.5009C47.6139 15.8849 47.4699 16.0529 47.2779 16.1249C47.1579 16.1729 47.0379 16.1969 46.9179 16.1729L46.1019 16.2209C45.6459 16.2449 45.1899 16.2449 44.9259 16.2209C44.6619 16.1969 44.5419 16.0289 44.4699 15.8609C44.4219 15.7649 44.3979 15.6689 44.3979 15.5489L44.1579 4.62895ZM52.4203 15.5249C52.3483 16.9889 52.7803 18.0689 54.3163 18.3329C54.8683 18.3329 55.3963 18.3329 55.9243 18.3569C56.8123 18.3809 57.8203 18.4049 58.4683 18.3809C59.5003 18.3809 60.2203 17.3489 60.2203 16.3409L60.2683 10.9409C60.2683 8.13295 60.3163 4.96495 60.3163 3.90895C60.3163 2.82895 59.7883 2.22895 59.2843 1.91695C58.9723 1.74895 58.6363 1.62895 58.2523 1.55695L57.1243 1.50895C56.4283 1.48495 55.4923 1.48495 54.4603 1.50895C53.4283 1.53295 52.9483 2.13295 52.6843 2.70895C52.5403 3.04495 52.4683 3.42895 52.4443 3.86095L52.4203 15.5249ZM54.5563 4.62895C54.4843 4.02895 54.7963 3.76495 55.3483 3.66895C55.6603 3.69295 55.9483 3.69295 56.2363 3.69295H57.4363C57.6283 3.69295 57.7723 3.83695 57.8443 3.95695C57.8923 4.02895 57.9403 4.12495 57.9643 4.22095L58.0603 9.57295C58.1323 12.3089 58.0843 15.1409 58.0843 15.5009C58.0123 15.8849 57.8683 16.0529 57.6763 16.1249C57.5563 16.1729 57.4363 16.1969 57.3163 16.1729L56.5003 16.2209C56.0443 16.2449 55.5883 16.2449 55.3243 16.2209C55.0603 16.1969 54.9403 16.0289 54.8683 15.8609C54.8203 15.7649 54.7963 15.6689 54.7963 15.5489L54.5563 4.62895ZM77.3308 18.3329L77.5468 1.55695L75.2908 1.65295L71.9788 12.6209L71.7388 1.22095L69.3868 1.50895L69.7228 18.5249L72.1708 18.4289L75.2428 8.42095L74.8828 18.3809L77.3308 18.3329ZM88.5027 18.6209L90.9267 18.4529V1.58095L88.6227 1.65295L86.1987 3.76495L87.6627 5.87695L88.6707 5.15695L88.5027 18.6209ZM94.6625 15.5249C94.5905 16.9889 95.0225 18.0689 96.5585 18.3329C97.1105 18.3329 97.6385 18.3329 98.1665 18.3569C99.0545 18.3809 100.063 18.4049 100.711 18.3809C101.743 18.3809 102.463 17.3489 102.463 16.3409L102.511 10.9409C102.511 8.13295 102.559 4.96495 102.559 3.90895C102.559 2.82895 102.031 2.22895 101.527 1.91695C101.215 1.74895 100.879 1.62895 100.495 1.55695L99.3665 1.50895C98.6705 1.48495 97.7345 1.48495 96.7025 1.50895C95.6705 1.53295 95.1905 2.13295 94.9265 2.70895C94.7825 3.04495 94.7105 3.42895 94.6865 3.86095L94.6625 15.5249ZM96.7985 4.62895C96.7265 4.02895 97.0385 3.76495 97.5905 3.66895C97.9025 3.69295 98.1905 3.69295 98.4785 3.69295H99.6785C99.8705 3.69295 100.015 3.83695 100.087 3.95695C100.135 4.02895 100.183 4.12495 100.207 4.22095L100.303 9.57295C100.375 12.3089 100.327 15.1409 100.327 15.5009C100.255 15.8849 100.111 16.0529 99.9185 16.1249C99.7985 16.1729 99.6785 16.1969 99.5585 16.1729L98.7425 16.2209C98.2865 16.2449 97.8305 16.2449 97.5665 16.2209C97.3025 16.1969 97.1825 16.0289 97.1105 15.8609C97.0625 15.7649 97.0385 15.6689 97.0385 15.5489L96.7985 4.62895ZM112.061 15.5249C111.989 16.9889 112.421 18.0689 113.957 18.3329C114.509 18.3329 115.037 18.3329 115.565 18.3569C116.453 18.3809 117.461 18.4049 118.109 18.3809C119.141 18.3809 119.861 17.3489 119.861 16.3409L119.909 10.9409C119.909 8.13295 119.957 4.96495 119.957 3.90895C119.957 2.82895 119.429 2.22895 118.925 1.91695C118.613 1.74895 118.277 1.62895 117.893 1.55695L116.765 1.50895C116.069 1.48495 115.133 1.48495 114.101 1.50895C113.069 1.53295 112.589 2.13295 112.325 2.70895C112.181 3.04495 112.109 3.42895 112.085 3.86095L112.061 15.5249ZM114.197 4.62895C114.125 4.02895 114.437 3.76495 114.989 3.66895C115.301 3.69295 115.589 3.69295 115.877 3.69295H117.077C117.269 3.69295 117.413 3.83695 117.485 3.95695C117.533 4.02895 117.581 4.12495 117.605 4.22095L117.701 9.57295C117.773 12.3089 117.725 15.1409 117.725 15.5009C117.653 15.8849 117.509 16.0529 117.317 16.1249C117.197 16.1729 117.077 16.1969 116.957 16.1729L116.141 16.2209C115.685 16.2449 115.229 16.2449 114.965 16.2209C114.701 16.1969 114.581 16.0289 114.509 15.8609C114.461 15.7649 114.437 15.6689 114.437 15.5489L114.197 4.62895ZM122.459 15.5249C122.387 16.9889 122.819 18.0689 124.355 18.3329C124.907 18.3329 125.435 18.3329 125.963 18.3569C126.851 18.3809 127.859 18.4049 128.507 18.3809C129.539 18.3809 130.259 17.3489 130.259 16.3409L130.307 10.9409C130.307 8.13295 130.355 4.96495 130.355 3.90895C130.355 2.82895 129.827 2.22895 129.323 1.91695C129.011 1.74895 128.675 1.62895 128.291 1.55695L127.163 1.50895C126.467 1.48495 125.531 1.48495 124.499 1.50895C123.467 1.53295 122.987 2.13295 122.723 2.70895C122.579 3.04495 122.507 3.42895 122.483 3.86095L122.459 15.5249ZM124.595 4.62895C124.523 4.02895 124.835 3.76495 125.387 3.66895C125.699 3.69295 125.987 3.69295 126.275 3.69295H127.475C127.667 3.69295 127.811 3.83695 127.883 3.95695C127.931 4.02895 127.979 4.12495 128.003 4.22095L128.099 9.57295C128.171 12.3089 128.123 15.1409 128.123 15.5009C128.051 15.8849 127.907 16.0529 127.715 16.1249C127.595 16.1729 127.475 16.1969 127.355 16.1729L126.539 16.2209C126.083 16.2449 125.627 16.2449 125.363 16.2209C125.099 16.1969 124.979 16.0289 124.907 15.8609C124.859 15.7649 124.835 15.6689 124.835 15.5489L124.595 4.62895ZM132.858 15.5249C132.786 16.9889 133.218 18.0689 134.754 18.3329C135.306 18.3329 135.834 18.3329 136.362 18.3569C137.25 18.3809 138.258 18.4049 138.906 18.3809C139.938 18.3809 140.658 17.3489 140.658 16.3409L140.706 10.9409C140.706 8.13295 140.754 4.96495 140.754 3.90895C140.754 2.82895 140.226 2.22895 139.722 1.91695C139.41 1.74895 139.074 1.62895 138.69 1.55695L137.562 1.50895C136.866 1.48495 135.93 1.48495 134.898 1.50895C133.866 1.53295 133.386 2.13295 133.122 2.70895C132.978 3.04495 132.906 3.42895 132.882 3.86095L132.858 15.5249ZM134.994 4.62895C134.922 4.02895 135.234 3.76495 135.786 3.66895C136.098 3.69295 136.386 3.69295 136.674 3.69295H137.874C138.066 3.69295 138.21 3.83695 138.282 3.95695C138.33 4.02895 138.378 4.12495 138.402 4.22095L138.498 9.57295C138.57 12.3089 138.522 15.1409 138.522 15.5009C138.45 15.8849 138.306 16.0529 138.114 16.1249C137.994 16.1729 137.874 16.1969 137.754 16.1729L136.938 16.2209C136.482 16.2449 136.026 16.2449 135.762 16.2209C135.498 16.1969 135.378 16.0289 135.306 15.8609C135.258 15.7649 135.234 15.6689 135.234 15.5489L134.994 4.62895Z" fill="#FFF021"/>
</svg>
