<svg width="346" height="88" viewBox="0 0 346 88" fill="none" xmlns="http://www.w3.org/2000/svg">
<path d="M17.7735 22.0147L341.976 14.9133L327.809 44.834L2.84152 49.2595L17.7735 22.0147Z" fill="white"/>
<path d="M22.7062 43.1L339.461 36.1617L325.622 66.0752L8.11905 70.3372L22.7062 43.1Z" fill="white"/>
<path d="M23.5547 25.363L23.7227 40.126H25.5707L25.6127 33.742L28.5107 40.084L30.1697 38.782L26.7047 32.65L30.4847 26.602L29.2877 25.153L25.4867 31.327L25.4027 25.027L23.5547 25.363ZM33.8906 33.238L31.7276 40L33.6806 40.294L38.2586 25.51L36.5786 25.321L34.8566 30.13L33.3866 25.069L31.7276 25.363L33.8906 33.238ZM41.4081 27.274L44.8731 27.295C44.7261 31.999 44.6631 36.325 44.6421 40.357L46.3851 40.315L46.4271 25.72L39.7071 25.468C39.5811 25.468 40.1481 39.958 40.0641 40.042C40.0011 40.105 40.4631 40.084 40.9041 40.021L41.8071 39.916L41.4081 27.274ZM54.0744 25.636C53.8014 25.489 53.5074 25.384 53.1714 25.321L52.1844 25.279C51.5754 25.258 50.7564 25.258 49.8534 25.279C48.9504 25.3 48.5304 25.825 48.2994 26.329C48.1734 26.623 48.1104 26.959 48.0894 27.337L48.0684 37.543C48.0054 38.824 48.3834 39.769 49.7274 40C50.2104 40 50.6724 40 51.1344 40.021C51.9114 40.042 52.7934 40.063 53.3604 40.042C54.2634 40.042 54.8934 39.139 54.8934 38.257L54.9354 33.532C54.9354 31.075 54.9774 28.303 54.9774 27.379C54.9774 26.434 54.5154 25.909 54.0744 25.636ZM53.0244 37.186C52.9824 37.417 52.9404 37.627 52.8774 37.816C52.7094 38.131 52.2264 38.404 51.5544 38.404C50.1684 38.404 50.0634 38.215 50.0634 37.207C50.0634 36.745 50.1054 28.009 50.1054 27.694C50.1054 26.686 50.1894 26.497 51.5754 26.497C52.2684 26.497 52.6254 26.539 52.7934 26.854C52.8564 27.043 52.8774 27.505 52.8984 27.736C52.8984 27.736 52.9824 29.374 52.9824 31.936C52.9824 34.036 53.0244 37.186 53.0244 37.186ZM57.0143 40.042C56.9513 40.105 57.4133 40.084 57.8543 40.021L58.7573 39.916L58.8833 34.33L60.8573 34.456L61.2983 39.832L63.0413 39.79L63.0833 25.195H61.5713L60.9413 32.734L58.7153 32.608L58.3163 25.51C58.0433 25.51 57.7703 25.51 57.5393 25.489C57.1403 25.489 56.7203 25.468 56.6573 25.468C56.5313 25.468 57.0983 39.958 57.0143 40.042ZM67.8185 23.473L67.8605 25.636L65.5715 25.237L65.0885 27.421L67.3355 28.135L66.7265 30.361L68.7215 30.802L69.6035 28.261L70.9265 30.529L72.5435 29.521L71.5355 27.295L73.4255 26.476L72.6485 24.691L70.4855 25.405L70.0025 23.347L67.8185 23.473ZM82.5524 40.042C82.4894 40.105 82.9514 40.084 83.3924 40.021L84.2954 39.916L84.4214 34.33L86.3954 34.456L86.8364 39.832L88.5794 39.79L88.6214 25.195H87.1094L86.4794 32.734L84.2534 32.608L83.8544 25.51C83.5814 25.51 83.3084 25.51 83.0774 25.489C82.6784 25.489 82.2584 25.468 82.1954 25.468C82.0694 25.468 82.6364 39.958 82.5524 40.042ZM95.3306 25.384C94.4276 25.321 92.4956 25.321 91.4036 25.321L90.1226 40H91.9286C92.2436 37.921 92.2856 35.926 92.6846 34.33L94.4906 34.603C94.8266 35.716 95.0996 38.677 95.2676 40H97.0736L95.3306 25.384ZM94.3226 32.755L92.9156 32.587L93.1256 28.219L93.7346 28.24L94.3226 32.755ZM111.204 25.3C110.658 25.3 108.264 25.636 106.647 26.035C105.828 26.224 105.429 26.602 105.198 26.917C105.072 27.106 105.009 27.316 104.988 27.526L104.736 37.543C104.904 39.37 105.933 40.189 107.844 40.021L111.54 39.685L111.414 37.921C110.994 37.984 110.595 38.026 110.196 38.068C109.524 38.131 108.705 38.194 108.201 38.194C107.172 38.194 107.025 37.9 106.752 37.459C106.5 36.976 106.479 30.886 106.563 29.437C106.626 28.702 106.878 28.345 107.13 28.156C107.277 28.051 107.445 27.988 107.634 27.967L111.099 27.547L111.204 25.3ZM113.018 25.363L113.186 40.126H115.034L115.076 33.742L117.974 40.084L119.633 38.782L116.168 32.65L119.948 26.602L118.751 25.153L114.95 31.327L114.866 25.027L113.018 25.363ZM128.351 40L128.54 25.321L126.566 25.405L123.668 35.002L123.458 25.027L121.4 25.279L121.694 40.168L123.836 40.084L126.524 31.327L126.209 40.042L128.351 40ZM139.015 38.005C138.952 34.225 138.973 30.424 138.868 25.279L133.513 25.363L133.576 28.114C133.597 29.626 133.597 31.306 133.513 32.293C133.429 33.28 132.967 34.708 132.526 35.905C132.274 36.598 132.001 37.333 131.686 38.068L130.006 38.11C129.943 38.761 129.901 39.391 129.964 40.042L129.985 40.168L130.027 41.302C130.048 41.89 130.069 42.478 130.069 42.541H132.043L132.085 40.126L139.624 40.084L139.666 42.415L141.64 42.373L141.745 38.068L139.015 38.005ZM136.726 37.963C136.726 37.963 134.08 38.152 134.038 38.026C133.975 37.648 134.878 36.724 135.277 32.335C135.34 31.663 135.256 27.421 135.277 27.316C135.403 27.316 136.264 27.358 136.495 27.337C136.537 27.652 136.726 37.963 136.726 37.963ZM143.129 25.363L143.297 40.126H145.145L145.187 33.742L148.085 40.084L149.744 38.782L146.279 32.65L150.059 26.602L148.862 25.153L145.061 31.327L144.977 25.027L143.129 25.363ZM153.465 33.238L151.302 40L153.255 40.294L157.833 25.51L156.153 25.321L154.431 30.13L152.961 25.069L151.302 25.363L153.465 33.238ZM165.237 29.395L167.106 29.458L167.169 27.904C167.211 27.778 167.253 27.673 167.316 27.589C167.421 27.442 167.547 27.295 167.778 27.316C168.009 27.379 168.366 27.379 168.681 27.442L169.269 27.526C169.374 27.547 169.479 27.589 169.542 27.652C169.689 27.757 169.794 27.904 169.794 28.156C169.794 28.639 169.878 30.886 169.668 31.243C169.437 31.642 168.807 31.831 167.82 31.978L167.841 34.456C168.198 34.477 168.492 34.519 168.765 34.603C169.248 34.75 169.71 35.044 169.773 35.695C169.836 36.346 169.857 36.766 169.878 37.081C169.899 37.249 169.899 37.396 169.899 37.501C169.878 37.606 169.857 37.711 169.794 37.795C169.71 37.942 169.542 38.11 169.269 38.11C168.996 38.131 168.576 38.11 168.24 38.089C168.03 38.068 167.82 38.068 167.61 38.068C167.505 38.068 167.421 38.047 167.358 38.005C167.169 37.942 167.043 37.795 166.98 37.585C166.896 37.354 166.854 36.955 166.833 36.619C166.812 36.43 166.812 36.22 166.812 35.989L165.195 36.01V38.068C165.195 38.425 165.237 38.761 165.342 39.034C165.51 39.517 165.888 39.979 166.728 39.979C167.547 39.979 168.303 40 168.828 40C169.143 40.021 169.416 40.021 169.668 40.021C170.046 40.021 170.382 39.958 170.697 39.832C171.222 39.601 171.726 39.181 171.747 38.236C171.747 37.312 171.747 36.535 171.726 35.968C171.705 35.653 171.705 35.359 171.705 35.086C171.6 34.75 171.474 34.456 171.285 34.183C170.97 33.7 170.403 33.259 169.542 33.259C171.201 32.965 171.222 32.125 171.327 31.894C171.39 31.663 171.432 29.29 171.537 27.337C171.6 26.35 171.096 25.888 170.529 25.615C170.214 25.468 169.836 25.363 169.437 25.321L168.723 25.279C168.24 25.258 167.589 25.258 166.728 25.279C165.867 25.3 165.468 25.825 165.279 26.392C165.174 26.707 165.111 27.085 165.111 27.484L165.237 29.395ZM174.454 37.543C174.391 38.824 174.769 39.769 176.113 40C176.596 40 177.058 40 177.52 40.021C178.297 40.042 179.179 40.063 179.746 40.042C180.649 40.042 181.279 39.139 181.279 38.257L181.321 33.532C181.321 31.075 181.363 28.303 181.363 27.379C181.363 26.434 180.901 25.909 180.46 25.636C180.187 25.489 179.893 25.384 179.557 25.321L178.57 25.279C177.961 25.258 177.142 25.258 176.239 25.279C175.336 25.3 174.916 25.825 174.685 26.329C174.559 26.623 174.496 26.959 174.475 27.337L174.454 37.543ZM176.323 28.009C176.26 27.484 176.533 27.253 177.016 27.169C177.289 27.19 177.541 27.19 177.793 27.19H178.843C179.011 27.19 179.137 27.316 179.2 27.421C179.242 27.484 179.284 27.568 179.305 27.652L179.389 32.335C179.452 34.729 179.41 37.207 179.41 37.522C179.347 37.858 179.221 38.005 179.053 38.068C178.948 38.11 178.843 38.131 178.738 38.11L178.024 38.152C177.625 38.173 177.226 38.173 176.995 38.152C176.764 38.131 176.659 37.984 176.596 37.837C176.554 37.753 176.533 37.669 176.533 37.564L176.323 28.009ZM185.19 26.896C185.169 26.896 185.211 26.434 185.232 25.951L185.295 24.985L183.342 24.817V26.896H185.19ZM183.258 40.966C183.321 40.903 183.72 41.071 184.119 41.218L184.896 41.512L188.886 23.767L187.122 23.956L185.148 32.503C184.14 36.766 183.195 41.029 183.258 40.966ZM187.164 38.173L187.122 39.139L187.059 40.084L189.012 40.252V38.173H187.164ZM197.594 40.042C197.531 40.105 197.993 40.084 198.434 40.021L199.337 39.916L199.463 34.33L201.437 34.456L201.878 39.832L203.621 39.79L203.663 25.195H202.151L201.521 32.734L199.295 32.608L198.896 25.51C198.623 25.51 198.35 25.51 198.119 25.489C197.72 25.489 197.3 25.468 197.237 25.468C197.111 25.468 197.678 39.958 197.594 40.042ZM210.373 25.384C209.47 25.321 207.538 25.321 206.446 25.321L205.165 40H206.971C207.286 37.921 207.328 35.926 207.727 34.33L209.533 34.603C209.869 35.716 210.142 38.677 210.31 40H212.116L210.373 25.384ZM209.365 32.755L207.958 32.587L208.168 28.219L208.777 28.24L209.365 32.755ZM221.248 40.042C222.844 40.042 224.692 37.984 224.797 35.989L224.839 27.169H226.981L227.023 40.168H229.207L228.808 25.237L222.865 25.279C222.865 27.001 222.865 28.597 222.886 30.046C222.886 32.524 222.907 35.191 222.907 35.926C222.907 37.438 221.689 38.215 220.849 38.215L219.736 38.257L219.61 40.084L221.248 40.042ZM242.085 27.421C242.085 26.476 241.623 25.951 241.182 25.678C240.909 25.531 240.615 25.426 240.279 25.363L239.292 25.321C238.683 25.3 238.053 25.3 237.15 25.321C236.247 25.342 235.827 25.867 235.596 26.371C235.47 26.665 235.407 27.001 235.386 27.379L235.302 31.558L233.181 31.705V25.279H231.06C230.892 30.403 230.85 35.191 230.787 40H233.181V33.742L235.176 33.7L235.113 37.501C235.05 38.782 235.428 39.727 236.772 39.958C237.255 39.958 237.78 40.042 238.242 40.063C239.019 40.084 240.279 40.105 240.846 40.084C241.749 40.084 242.379 39.181 242.379 38.299C242.379 38.299 242.085 28.345 242.085 27.421ZM240.006 37.564C239.817 37.795 237.486 37.837 237.402 37.627C237.15 37.018 237.213 27.505 237.318 27.169C237.402 26.959 240.027 27.127 240.174 27.463C240.447 28.03 240.132 37.417 240.006 37.564ZM249.792 34.141C249.771 33.301 249.456 32.818 249.141 32.503C248.952 32.335 248.763 32.209 248.532 32.125C247.776 31.978 246.915 31.915 245.844 31.978C245.823 30.466 245.739 29.038 245.886 27.169C247.545 27.316 248.616 27.232 249.792 27.211L249.75 25.195C247.986 25.132 246.138 25.09 243.933 25.237L243.702 40H248.259C248.952 40 249.351 39.622 249.582 39.223C249.708 38.992 249.792 38.719 249.834 38.425V36.913C249.834 36.052 249.813 35.002 249.792 34.141ZM247.776 38.236C247.398 38.551 245.802 38.593 245.802 38.467C245.802 37.942 245.928 33.784 245.949 33.742C246.033 33.658 246.747 33.637 246.957 33.679C247.188 33.721 247.398 33.784 247.587 33.889C247.965 34.078 247.944 34.372 248.028 34.708C248.091 35.023 248.322 37.774 247.776 38.236ZM257.456 25.636C257.183 25.489 256.889 25.384 256.553 25.321L255.566 25.279C254.957 25.258 254.138 25.258 253.235 25.279C252.332 25.3 251.912 25.825 251.681 26.329C251.555 26.623 251.492 26.959 251.471 27.337L251.45 37.543C251.387 38.824 251.765 39.769 253.109 40C253.592 40 254.054 40 254.516 40.021C255.293 40.042 256.175 40.063 256.742 40.042C257.645 40.042 258.275 39.139 258.275 38.257L258.317 33.532C258.317 31.075 258.359 28.303 258.359 27.379C258.359 26.434 257.897 25.909 257.456 25.636ZM256.406 37.186C256.364 37.417 256.322 37.627 256.259 37.816C256.091 38.131 255.608 38.404 254.936 38.404C253.55 38.404 253.445 38.215 253.445 37.207C253.445 36.745 253.487 28.009 253.487 27.694C253.487 26.686 253.571 26.497 254.957 26.497C255.65 26.497 256.007 26.539 256.175 26.854C256.238 27.043 256.259 27.505 256.28 27.736C256.28 27.736 256.364 29.374 256.364 31.936C256.364 34.036 256.406 37.186 256.406 37.186ZM266.864 40L267.053 25.321L265.079 25.405L262.181 35.002L261.971 25.027L259.913 25.279L260.207 40.168L262.349 40.084L265.037 31.327L264.722 40.042L266.864 40ZM266.36 22.528L265.289 21.352L263.21 22.843L260.816 21.352L260.312 22.843L263.567 25.048L266.36 22.528ZM275.401 34.3296L278.929 30.105L280.251 30.8638L277.309 34.4527L280.251 38.0518L278.929 38.8208L275.401 34.6065V34.3296ZM279.554 34.3296L283.133 30.105L284.435 30.8638L281.492 34.4527L284.435 38.0518L283.133 38.8208L279.554 34.6065V34.3296ZM289.059 27.379V40.021H291.117C291.117 35.842 290.865 31.516 290.865 27.127H293.952V26.854C293.952 26.602 293.91 26.224 293.889 25.909L293.847 25.342L286.518 25.216C286.455 25.615 286.476 27.001 286.476 27.379H289.059ZM296.003 25.321C296.066 25.321 296.066 28.429 296.003 31.453C295.982 33.238 295.94 35.275 295.877 37.564C295.877 37.837 295.583 39.937 297.494 40C298.523 40.063 299.258 40.042 299.741 40.063C300.014 40.084 300.245 40.084 300.434 40.084C300.833 40.021 301.169 39.916 301.484 39.748C302.009 39.433 302.513 38.908 302.492 37.9C302.492 36.892 302.45 33.679 302.387 30.718L302.324 25.027L300.518 25.111L300.35 37.018C300.329 37.249 300.287 37.459 300.224 37.648C300.077 37.963 299.804 38.257 299.216 38.257C298.019 38.257 297.935 38.068 297.935 37.06C297.935 36.577 297.914 33.553 297.914 30.718C297.893 29.038 297.893 27.169 297.893 25.111C297.494 25.132 297.158 25.174 296.885 25.195C296.402 25.258 295.919 25.3 296.003 25.321ZM311.258 25.3C310.712 25.3 308.318 25.636 306.701 26.035C305.882 26.224 305.483 26.602 305.252 26.917C305.126 27.106 305.063 27.316 305.042 27.526L304.79 37.543C304.958 39.37 305.987 40.189 307.898 40.021L311.594 39.685L311.468 37.921C311.048 37.984 310.649 38.026 310.25 38.068C309.578 38.131 308.759 38.194 308.255 38.194C307.226 38.194 307.079 37.9 306.806 37.459C306.554 36.976 306.533 30.886 306.617 29.437C306.68 28.702 306.932 28.345 307.184 28.156C307.331 28.051 307.499 27.988 307.688 27.967L311.153 27.547L311.258 25.3ZM322.909 34.6065L319.33 38.8208L318.028 38.0518L320.971 34.4527L318.028 30.8638L319.33 30.105L322.909 34.3296V34.6065ZM318.725 34.6065L315.177 38.8208L313.875 38.0518L316.818 34.4527L313.875 30.8638L315.177 30.105L318.725 34.3296V34.6065ZM29.8412 59.252L31.9622 59.105V44.342L29.9462 44.405L27.8252 46.253L29.1062 48.101L29.9882 47.471L29.8412 59.252ZM35.3561 56.543C35.2931 57.824 35.6711 58.769 37.0151 59C37.4981 59 37.9601 59 38.4221 59.021C39.1991 59.042 40.0811 59.063 40.6481 59.042C41.5511 59.042 42.1811 58.139 42.1811 57.257L42.2231 52.532C42.2231 50.075 42.2651 47.303 42.2651 46.379C42.2651 45.434 41.8031 44.909 41.3621 44.636C41.0891 44.489 40.7951 44.384 40.4591 44.321L39.4721 44.279C38.8631 44.258 38.0441 44.258 37.1411 44.279C36.2381 44.3 35.8181 44.825 35.5871 45.329C35.4611 45.623 35.3981 45.959 35.3771 46.337L35.3561 56.543ZM37.2251 47.009C37.1621 46.484 37.4351 46.253 37.9181 46.169C38.1911 46.19 38.4431 46.19 38.6951 46.19H39.7451C39.9131 46.19 40.0391 46.316 40.1021 46.421C40.1441 46.484 40.1861 46.568 40.2071 46.652L40.2911 51.335C40.3541 53.729 40.3121 56.207 40.3121 56.522C40.2491 56.858 40.1231 57.005 39.9551 57.068C39.8501 57.11 39.7451 57.131 39.6401 57.11L38.9261 57.152C38.5271 57.173 38.1281 57.173 37.8971 57.152C37.6661 57.131 37.5611 56.984 37.4981 56.837C37.4561 56.753 37.4351 56.669 37.4351 56.564L37.2251 47.009ZM44.5797 56.543C44.5167 57.824 44.8947 58.769 46.2387 59C46.7217 59 47.1837 59 47.6457 59.021C48.4227 59.042 49.3047 59.063 49.8717 59.042C50.7747 59.042 51.4047 58.139 51.4047 57.257L51.4467 52.532C51.4467 50.075 51.4887 47.303 51.4887 46.379C51.4887 45.434 51.0267 44.909 50.5857 44.636C50.3127 44.489 50.0187 44.384 49.6827 44.321L48.6957 44.279C48.0867 44.258 47.2677 44.258 46.3647 44.279C45.4617 44.3 45.0417 44.825 44.8107 45.329C44.6847 45.623 44.6217 45.959 44.6007 46.337L44.5797 56.543ZM46.4487 47.009C46.3857 46.484 46.6587 46.253 47.1417 46.169C47.4147 46.19 47.6667 46.19 47.9187 46.19H48.9687C49.1367 46.19 49.2627 46.316 49.3257 46.421C49.3677 46.484 49.4097 46.568 49.4307 46.652L49.5147 51.335C49.5777 53.729 49.5357 56.207 49.5357 56.522C49.4727 56.858 49.3467 57.005 49.1787 57.068C49.0737 57.11 48.9687 57.131 48.8637 57.11L48.1497 57.152C47.7507 57.173 47.3517 57.173 47.1207 57.152C46.8897 57.131 46.7847 56.984 46.7217 56.837C46.6797 56.753 46.6587 56.669 46.6587 56.564L46.4487 47.009ZM53.4883 44.279C53.4253 49.004 53.5933 53.876 53.7403 59H55.6303V46.169H59.8093C59.8723 45.749 59.8933 44.846 59.8933 44.279H53.4883ZM73.5744 52.238C73.3014 52.091 73.0074 51.986 72.6504 51.923L69.9834 51.335C70.1304 51.356 70.2984 51.356 70.5084 51.356C70.8654 51.356 71.3904 51.356 72.1464 51.293C72.8814 51.23 73.3644 50.894 73.6374 50.579C73.7844 50.39 73.9104 50.18 73.9944 49.949L74.0574 48.815C74.0784 48.122 74.0784 47.177 73.9944 46.148C73.8894 45.14 73.3014 44.657 72.7344 44.426C72.3984 44.279 72.0204 44.216 71.6004 44.237C70.3404 44.174 68.9544 44.258 67.6314 44.447C67.4424 49.046 67.4424 53.729 67.8414 59.168L69.7104 59.084C70.7394 59.021 71.8944 59 72.6294 58.937C73.3224 58.916 73.7004 58.685 73.8894 58.454C73.9944 58.328 74.0784 58.181 74.0994 58.034C74.1414 57.467 74.1834 56.921 74.2464 56.375C74.3304 55.451 74.3934 54.359 74.4564 53.624C74.5194 52.889 74.0574 52.49 73.5744 52.238ZM69.9834 45.203C70.0044 45.203 70.0044 45.182 70.0254 45.182C70.5504 45.077 71.2854 45.329 71.3274 45.938C71.3484 46.127 71.3904 48.059 71.3274 48.542C71.2854 48.899 71.0544 49.508 70.6764 49.697C70.4874 49.781 69.9414 49.802 69.9414 49.802C69.9414 49.802 69.9624 45.203 69.9834 45.203ZM71.6844 55.157C71.6634 55.535 71.6214 55.913 71.5794 56.291C71.5374 56.711 71.4744 57.173 71.2644 57.53C71.0544 57.866 69.9624 57.845 69.9624 57.845C69.9624 57.845 69.7734 53.75 69.9414 52.952C69.9624 52.91 70.8444 52.931 71.0964 53.141C71.6424 53.624 71.7054 54.464 71.6844 55.157ZM88.7273 44.3C88.1813 44.3 85.7873 44.636 84.1703 45.035C83.3513 45.224 82.9523 45.602 82.7213 45.917C82.5953 46.106 82.5323 46.316 82.5113 46.526L82.2593 56.543C82.4273 58.37 83.4563 59.189 85.3673 59.021L89.0633 58.685L88.9373 56.921C88.5173 56.984 88.1183 57.026 87.7193 57.068C87.0473 57.131 86.2283 57.194 85.7243 57.194C84.6953 57.194 84.5483 56.9 84.2753 56.459C84.0233 55.976 84.0023 49.886 84.0863 48.437C84.1493 47.702 84.4013 47.345 84.6533 47.156C84.8003 47.051 84.9683 46.988 85.1573 46.967L88.6223 46.547L88.7273 44.3ZM90.8346 59H97.1346V57.425H92.8716C92.8506 56.606 92.6616 55.346 92.6616 54.527V54.275L96.6096 53.75V52.175H92.6616C92.5986 51.587 92.3046 47.282 92.4096 45.875H97.1346V44.3C95.0346 44.3 92.6406 44.195 90.5406 44.3L90.8346 59ZM100.969 46.379V59.021H103.027C103.027 54.842 102.775 50.516 102.775 46.127H105.862V45.854C105.862 45.602 105.82 45.224 105.799 44.909L105.757 44.342L98.4283 44.216C98.3653 44.615 98.3863 46.001 98.3863 46.379H100.969ZM114.175 59L114.364 44.321L112.39 44.405L109.492 54.002L109.282 44.027L107.224 44.279L107.518 59.168L109.66 59.084L112.348 50.327L112.033 59.042L114.175 59ZM122.752 53.3296L126.28 49.105L127.603 49.8638L124.66 53.4527L127.603 57.0518L126.28 57.8208L122.752 53.6065V53.3296ZM126.905 53.3296L130.484 49.105L131.786 49.8638L128.843 53.4527L131.786 57.0518L130.484 57.8208L126.905 53.6065V53.3296ZM135.759 59L136.011 48.794L138.594 54.044H139.959L142.185 49.403L142.332 59L144.243 59.126L143.676 44.237H141.975L139.392 51.251L135.801 44.237L133.911 44.51L134.037 59H135.759ZM150.903 44.384C150 44.321 148.068 44.321 146.976 44.321L145.695 59H147.501C147.816 56.921 147.858 54.926 148.257 53.33L150.063 53.603C150.399 54.716 150.672 57.677 150.84 59H152.646L150.903 44.384ZM149.895 51.755L148.488 51.587L148.698 47.219L149.307 47.24L149.895 51.755ZM154.164 44.279C154.101 49.004 154.269 53.876 154.416 59H156.306V46.169H160.485C160.548 45.749 160.569 44.846 160.569 44.279H154.164ZM162.33 59.042C162.267 59.105 162.729 59.084 163.17 59.021L164.073 58.916L164.199 53.33L166.173 53.456L166.614 58.832L168.357 58.79L168.399 44.195H166.887L166.257 51.734L164.031 51.608L163.632 44.51C163.359 44.51 163.086 44.51 162.855 44.489C162.456 44.489 162.036 44.468 161.973 44.468C161.847 44.468 162.414 58.958 162.33 59.042ZM176.956 59L177.145 44.321L175.171 44.405L172.273 54.002L172.063 44.027L170.005 44.279L170.299 59.168L172.441 59.084L175.129 50.327L174.814 59.042L176.956 59ZM181.152 46.379V59.021H183.21C183.21 54.842 182.958 50.516 182.958 46.127H186.045V45.854C186.045 45.602 186.003 45.224 185.982 44.909L185.94 44.342L178.611 44.216C178.548 44.615 178.569 46.001 178.569 46.379H181.152ZM196.967 53.6065L193.388 57.8208L192.086 57.0518L195.029 53.4527L192.086 49.8638L193.388 49.105L196.967 53.3296V53.6065ZM192.783 53.6065L189.235 57.8208L187.933 57.0518L190.876 53.4527L187.933 49.8638L189.235 49.105L192.783 53.3296V53.6065ZM210.444 52.616C211.095 52.469 211.41 52.112 211.557 51.755C211.641 51.545 211.683 51.314 211.704 51.083C211.725 50.474 211.725 49.865 211.725 49.256C211.725 48.227 211.725 46.967 211.662 46.043C211.599 45.14 211.053 44.699 210.486 44.468C210.171 44.342 209.793 44.279 209.394 44.279L205.32 44.699L205.404 46.274L206.937 46.19C207.756 46.127 208.68 46.127 209.121 46.106C209.541 46.106 209.814 46.316 209.982 46.547C210.087 46.694 210.15 46.841 210.213 46.988C210.234 46.946 210.255 46.988 210.276 47.114C210.339 47.345 210.339 47.87 210.402 49.13C210.465 50.39 209.814 51.02 209.163 51.335C208.785 51.524 208.344 51.629 207.861 51.65L207.945 53.435C209.058 53.372 209.898 54.233 209.961 54.758C209.982 54.905 210.003 55.073 210.003 55.262C210.003 55.577 209.982 56.018 209.835 56.501C209.688 56.984 209.268 57.194 208.911 57.299C208.68 57.362 208.449 57.383 208.218 57.383L205.32 57.11L205.194 58.958L207.294 59C208.428 59 209.709 59.042 210.36 59.042C211.011 59.042 211.305 58.727 211.452 58.391C211.536 58.202 211.578 57.992 211.578 57.74C211.578 57.299 211.578 56.858 211.599 56.417C211.599 55.682 211.62 54.779 211.62 54.191C211.62 52.889 210.885 52.721 210.444 52.616ZM218.438 44.384C217.535 44.321 215.603 44.321 214.511 44.321L213.23 59H215.036C215.351 56.921 215.393 54.926 215.792 53.33L217.598 53.603C217.934 54.716 218.207 57.677 218.375 59H220.181L218.438 44.384ZM217.43 51.755L216.023 51.587L216.233 47.219L216.842 47.24L217.43 51.755ZM227.885 44.363L228.053 59.126H229.901L229.943 52.742L232.841 59.084L234.5 57.782L231.035 51.65L234.815 45.602L233.618 44.153L229.817 50.327L229.733 44.027L227.885 44.363ZM241.371 44.384C240.468 44.321 238.536 44.321 237.444 44.321L236.163 59H237.969C238.284 56.921 238.326 54.926 238.725 53.33L240.531 53.603C240.867 54.716 241.14 57.677 241.308 59H243.114L241.371 44.384ZM240.363 51.755L238.956 51.587L239.166 47.219L239.775 47.24L240.363 51.755ZM253.893 51.86C254.25 51.797 254.544 51.692 254.817 51.545C255.3 51.314 255.72 50.936 255.741 50.327C255.741 49.781 255.846 48.269 255.951 46.862C256.014 46.043 256.077 45.161 256.182 44.195H254.376L253.851 49.76C253.788 49.949 253.683 50.117 253.557 50.264C253.326 50.516 253.032 50.789 252.549 50.81C252.129 50.873 251.856 50.852 251.688 50.873C251.583 50.894 251.52 50.894 251.457 50.894L251.331 47.576C251.268 45.917 251.226 44.258 251.226 44.237C251.226 44.216 250.701 44.195 250.176 44.195H249.126L249.042 50.936L247.425 50.852C247.278 50.831 247.131 50.789 247.026 50.684C246.795 50.516 246.648 50.243 246.585 49.592C246.501 48.353 246.858 44.363 246.816 44.363H244.611V50.285C244.611 50.684 244.695 51.041 244.842 51.356C245.094 51.923 245.598 52.49 246.627 52.553C245.178 52.784 244.653 54.38 244.716 54.947C244.779 55.871 244.8 56.9 244.737 57.719L244.653 59.084H246.669V55.409C246.69 55.073 246.711 54.779 246.774 54.527C246.879 54.086 247.089 53.645 247.509 53.666C247.929 53.687 248.286 53.708 248.538 53.708C248.685 53.729 248.832 53.729 248.937 53.729L249 58.958L250.743 59.042L251.142 53.435H252.99C253.179 53.456 253.347 53.498 253.494 53.561C253.746 53.708 253.998 53.897 253.935 54.338C253.872 54.779 253.788 55.934 253.725 56.963C253.662 57.572 253.62 58.223 253.599 58.916L255.3 59L255.72 54.149C255.783 53.561 255.363 51.797 253.893 51.86ZM266.613 57.005C266.55 53.225 266.571 49.424 266.466 44.279L261.111 44.363L261.174 47.114C261.195 48.626 261.195 50.306 261.111 51.293C261.027 52.28 260.565 53.708 260.124 54.905C259.872 55.598 259.599 56.333 259.284 57.068L257.604 57.11C257.541 57.761 257.499 58.391 257.562 59.042L257.583 59.168L257.625 60.302C257.646 60.89 257.667 61.478 257.667 61.541H259.641L259.683 59.126L267.222 59.084L267.264 61.415L269.238 61.373L269.343 57.068L266.613 57.005ZM264.324 56.963C264.324 56.963 261.678 57.152 261.636 57.026C261.573 56.648 262.476 55.724 262.875 51.335C262.938 50.663 262.854 46.421 262.875 46.316C263.001 46.316 263.862 46.358 264.093 46.337C264.135 46.652 264.324 56.963 264.324 56.963ZM276.817 52.931C276.754 52.595 276.628 52.301 276.46 52.049C276.145 51.608 275.641 51.167 274.717 51.167C273.793 51.167 273.331 51.188 273.1 51.209C272.953 51.23 272.89 51.23 272.869 51.251L272.743 44.09L270.832 44.363L270.748 58.958L274.633 58.916C275.032 58.874 275.41 58.79 275.746 58.643C276.313 58.412 276.838 58.013 276.901 57.278C276.922 56.543 276.901 55.472 276.88 54.569L276.817 52.931ZM274.801 57.32C274.423 57.635 272.827 57.656 272.827 57.551C272.827 57.005 272.953 52.868 272.974 52.826C273.058 52.742 273.772 52.721 273.982 52.763C274.213 52.805 274.423 52.868 274.612 52.952C274.99 53.141 274.969 53.456 275.053 53.792C275.116 54.107 275.347 56.858 274.801 57.32ZM280.597 44.405L278.266 44.363L278.623 59.042L280.639 59L280.597 44.405ZM289.157 59L289.346 44.321L287.372 44.405L284.474 54.002L284.264 44.027L282.206 44.279L282.5 59.168L284.642 59.084L287.33 50.327L287.015 59.042L289.157 59ZM288.653 41.528L287.582 40.352L285.503 41.843L283.109 40.352L282.605 41.843L285.86 44.048L288.653 41.528ZM297.021 44.3C297.126 44.3 296.979 54.128 297.042 54.128H299.184H301.263L301.368 59.168L303.573 59.021L303.762 44.321L301.704 44.237L301.326 52.028L298.911 52.133L298.995 44.405L297.966 44.342C297.462 44.321 296.958 44.3 297.021 44.3ZM305.639 59H311.939V57.425H307.676C307.655 56.606 307.466 55.346 307.466 54.527V54.275L311.414 53.75V52.175H307.466C307.403 51.587 307.109 47.282 307.214 45.875H311.939V44.3C309.839 44.3 307.445 44.195 305.345 44.3L305.639 59ZM313.359 44.363L313.527 59.126H315.375L315.417 52.742L318.315 59.084L319.974 57.782L316.509 51.65L320.289 45.602L319.092 44.153L315.291 50.327L315.207 44.027L313.359 44.363Z" fill="#004F91"/>
</svg>
