<svg width="17" height="31" viewBox="0 0 17 31" fill="none" xmlns="http://www.w3.org/2000/svg">
<path d="M7.05895 9.53253H5.82541V10.7661H7.05895V9.53253Z" fill="#1A4384"/>
<path d="M5.10854 9.53253H3.875V10.7661H5.10854V9.53253Z" fill="#1A4384"/>
<path d="M3.16458 9.53253H1.93103V10.7661H3.16458V9.53253Z" fill="#1A4384"/>
<path d="M9.00292 9.53253H7.76938V10.7661H9.00292V9.53253Z" fill="#1A4384"/>
<path d="M10.9469 9.53253H9.71332V10.7661H10.9469V9.53253Z" fill="#1A4384"/>
<path d="M12.8908 9.53253H11.6573V10.7661H12.8908V9.53253Z" fill="#1A4384"/>
<path d="M14.8348 9.53253H13.6013V10.7661H14.8348V9.53253Z" fill="#1A4384"/>
<path d="M14.8348 2.72546H13.6013V3.959H14.8348V2.72546Z" fill="#1A4384"/>
<path d="M14.8348 27.0411H13.6013V28.2746H14.8348V27.0411Z" fill="#1A4384"/>
<path d="M3.16458 27.0411H1.93103V28.2746H3.16458V27.0411Z" fill="#1A4384"/>
<path d="M3.16458 2.72546H1.93103V3.959H3.16458V2.72546Z" fill="#1A4384"/>
<path d="M16.1652 0.781494H11.3021C10.9598 0.781494 10.6885 1.0592 10.6885 1.39504C10.6885 2.66733 9.65521 3.6942 8.38937 3.6942C7.11708 3.6942 6.09021 2.66087 6.09021 1.39504C6.09021 1.05274 5.8125 0.781494 5.47667 0.781494H0.613541C0.27125 0.781494 0 1.0592 0 1.39504V29.5986C0 29.9409 0.277708 30.2121 0.613541 30.2121H5.47667C5.81896 30.2121 6.09021 29.9344 6.09021 29.5986C6.09021 28.3263 7.12354 27.2994 8.38937 27.2994C9.66166 27.2994 10.6885 28.3327 10.6885 29.5986C10.6885 29.9409 10.9662 30.2121 11.3021 30.2121H16.1652C16.5075 30.2121 16.7787 29.9344 16.7787 29.5986V1.39504C16.7787 1.0592 16.501 0.781494 16.1652 0.781494ZM15.5452 2.01504V28.985H11.8575C11.5281 27.1186 9.765 25.8269 7.87271 26.0982C6.37437 26.3113 5.16021 27.4932 4.89542 28.985H1.21417V2.01504H4.90187C5.05687 2.90629 5.54125 3.68774 6.26458 4.23024C7.02021 4.79858 7.95021 5.03754 8.88666 4.90191C10.385 4.68879 11.5992 3.50691 11.864 2.01504H15.5452Z" fill="#1A4384"/>
<path d="M5.46375 17.5731C6.60687 17.5731 7.53687 16.6431 7.53687 15.5C7.53687 14.3569 6.60687 13.4269 5.46375 13.4269C4.32063 13.4269 3.39062 14.3569 3.39062 15.5C3.39062 16.6431 4.32063 17.5731 5.46375 17.5731ZM4.62417 15.5C4.62417 15.035 5.00521 14.654 5.47021 14.654C5.93521 14.654 6.31625 15.035 6.31625 15.5C6.31625 15.965 5.93521 16.346 5.47021 16.346C5.00521 16.346 4.62417 15.965 4.62417 15.5Z" fill="#1A4384"/>
<path d="M11.3021 19.2588C10.1589 19.2588 9.22894 20.1888 9.22894 21.3319C9.22894 22.475 10.1589 23.405 11.3021 23.405C12.4452 23.405 13.3752 22.475 13.3752 21.3319C13.3752 20.1888 12.4452 19.2588 11.3021 19.2588ZM12.1416 21.3384C12.1416 21.8034 11.7606 22.1844 11.2956 22.1844C10.8306 22.1844 10.4496 21.8034 10.4496 21.3384C10.4496 20.8734 10.8306 20.4923 11.2956 20.4923C11.7671 20.4923 12.1416 20.8734 12.1416 21.3384Z" fill="#1A4384"/>
<path d="M11.9279 13.9985L3.96362 21.9628L4.83586 22.835L12.8002 14.8707L11.9279 13.9985Z" fill="#1A4384"/>
</svg>
