<svg width="394" height="93" viewBox="0 0 394 93" fill="none" xmlns="http://www.w3.org/2000/svg">
<path d="M18.9811 24.9648L390.746 19.0463L374.712 48.9006L2.05019 52.1417L18.9811 24.9648Z" fill="white"/>
<path d="M64.4621 45.3761L340.325 40.9844L328.508 70.7716L51.9726 72.4824L64.4621 45.3761Z" fill="white"/>
<path d="M28.7462 29.7551L28.9142 44.5181H30.7622L30.8042 38.1341L33.7022 44.4761L35.3612 43.1741L31.8962 37.0421L35.6762 30.9941L34.4792 29.5451L30.6782 35.7191L30.5942 29.4191L28.7462 29.7551ZM39.082 37.6301L36.919 44.3921L38.872 44.6861L43.45 29.9021L41.77 29.7131L40.048 34.5221L38.578 29.4611L36.919 29.7551L39.082 37.6301ZM46.5995 31.6661L50.0645 31.6871C49.9175 36.3911 49.8545 40.7171 49.8335 44.7491L51.5765 44.7071L51.6185 30.1121L44.8985 29.8601C44.7725 29.8601 45.3395 44.3501 45.2555 44.4341C45.1925 44.4971 45.6545 44.4761 46.0955 44.4131L46.9985 44.3081L46.5995 31.6661ZM59.2659 30.0281C58.9929 29.8811 58.6989 29.7761 58.3629 29.7131L57.3759 29.6711C56.7669 29.6501 55.9479 29.6501 55.0449 29.6711C54.1419 29.6921 53.7219 30.2171 53.4909 30.7211C53.3649 31.0151 53.3019 31.3511 53.2809 31.7291L53.2599 41.9351C53.1969 43.2161 53.5749 44.1611 54.9189 44.3921C55.4019 44.3921 55.8639 44.3921 56.3259 44.4131C57.1029 44.4341 57.9849 44.4551 58.5519 44.4341C59.4549 44.4341 60.0849 43.5311 60.0849 42.6491L60.1269 37.9241C60.1269 35.4671 60.1689 32.6951 60.1689 31.7711C60.1689 30.8261 59.7069 30.3011 59.2659 30.0281ZM58.2159 41.5781C58.1739 41.8091 58.1319 42.0191 58.0689 42.2081C57.9009 42.5231 57.4179 42.7961 56.7459 42.7961C55.3599 42.7961 55.2549 42.6071 55.2549 41.5991C55.2549 41.1371 55.2969 32.4011 55.2969 32.0861C55.2969 31.0781 55.3809 30.8891 56.7669 30.8891C57.4599 30.8891 57.8169 30.9311 57.9849 31.2461C58.0479 31.4351 58.0689 31.8971 58.0899 32.1281C58.0899 32.1281 58.1739 33.7661 58.1739 36.3281C58.1739 38.4281 58.2159 41.5781 58.2159 41.5781ZM62.2057 44.4341C62.1427 44.4971 62.6047 44.4761 63.0457 44.4131L63.9487 44.3081L64.0747 38.7221L66.0487 38.8481L66.4897 44.2241L68.2327 44.1821L68.2747 29.5871H66.7627L66.1327 37.1261L63.9067 37.0001L63.5077 29.9021C63.2347 29.9021 62.9617 29.9021 62.7307 29.8811C62.3317 29.8811 61.9117 29.8601 61.8487 29.8601C61.7227 29.8601 62.2897 44.3501 62.2057 44.4341ZM73.0099 27.8651L73.0519 30.0281L70.7629 29.6291L70.2799 31.8131L72.5269 32.5271L71.9179 34.7531L73.9129 35.1941L74.7949 32.6531L76.1179 34.9211L77.7349 33.9131L76.7269 31.6871L78.6169 30.8681L77.8399 29.0831L75.6769 29.7971L75.1939 27.7391L73.0099 27.8651ZM87.7438 44.4341C87.6808 44.4971 88.1428 44.4761 88.5838 44.4131L89.4868 44.3081L89.6128 38.7221L91.5868 38.8481L92.0278 44.2241L93.7708 44.1821L93.8128 29.5871H92.3008L91.6708 37.1261L89.4448 37.0001L89.0458 29.9021C88.7728 29.9021 88.4998 29.9021 88.2688 29.8811C87.8698 29.8811 87.4498 29.8601 87.3868 29.8601C87.2608 29.8601 87.8278 44.3501 87.7438 44.4341ZM100.522 29.7761C99.619 29.7131 97.687 29.7131 96.595 29.7131L95.314 44.3921H97.12C97.435 42.3131 97.477 40.3181 97.876 38.7221L99.682 38.9951C100.018 40.1081 100.291 43.0691 100.459 44.3921H102.265L100.522 29.7761ZM99.514 37.1471L98.107 36.9791L98.317 32.6111L98.926 32.6321L99.514 37.1471ZM116.396 29.6921C115.85 29.6921 113.456 30.0281 111.839 30.4271C111.02 30.6161 110.621 30.9941 110.39 31.3091C110.264 31.4981 110.201 31.7081 110.18 31.9181L109.928 41.9351C110.096 43.7621 111.125 44.5811 113.036 44.4131L116.732 44.0771L116.606 42.3131C116.186 42.3761 115.787 42.4181 115.388 42.4601C114.716 42.5231 113.897 42.5861 113.393 42.5861C112.364 42.5861 112.217 42.2921 111.944 41.8511C111.692 41.3681 111.671 35.2781 111.755 33.8291C111.818 33.0941 112.07 32.7371 112.322 32.5481C112.469 32.4431 112.637 32.3801 112.826 32.3591L116.291 31.9391L116.396 29.6921ZM118.209 29.7551L118.377 44.5181H120.225L120.267 38.1341L123.165 44.4761L124.824 43.1741L121.359 37.0421L125.139 30.9941L123.942 29.5451L120.141 35.7191L120.057 29.4191L118.209 29.7551ZM133.543 44.3921L133.732 29.7131L131.758 29.7971L128.86 39.3941L128.65 29.4191L126.592 29.6711L126.886 44.5601L129.028 44.4761L131.716 35.7191L131.401 44.4341L133.543 44.3921ZM144.206 42.3971C144.143 38.6171 144.164 34.8161 144.059 29.6711L138.704 29.7551L138.767 32.5061C138.788 34.0181 138.788 35.6981 138.704 36.6851C138.62 37.6721 138.158 39.1001 137.717 40.2971C137.465 40.9901 137.192 41.7251 136.877 42.4601L135.197 42.5021C135.134 43.1531 135.092 43.7831 135.155 44.4341L135.176 44.5601L135.218 45.6941C135.239 46.2821 135.26 46.8701 135.26 46.9331H137.234L137.276 44.5181L144.815 44.4761L144.857 46.8071L146.831 46.7651L146.936 42.4601L144.206 42.3971ZM141.917 42.3551C141.917 42.3551 139.271 42.5441 139.229 42.4181C139.166 42.0401 140.069 41.1161 140.468 36.7271C140.531 36.0551 140.447 31.8131 140.468 31.7081C140.594 31.7081 141.455 31.7501 141.686 31.7291C141.728 32.0441 141.917 42.3551 141.917 42.3551ZM148.32 29.7551L148.488 44.5181H150.336L150.378 38.1341L153.276 44.4761L154.935 43.1741L151.47 37.0421L155.25 30.9941L154.053 29.5451L150.252 35.7191L150.168 29.4191L148.32 29.7551ZM158.656 37.6301L156.493 44.3921L158.446 44.6861L163.024 29.9021L161.344 29.7131L159.622 34.5221L158.152 29.4611L156.493 29.7551L158.656 37.6301ZM170.429 33.7871L172.298 33.8501L172.361 32.2961C172.403 32.1701 172.445 32.0651 172.508 31.9811C172.613 31.8341 172.739 31.6871 172.97 31.7081C173.201 31.7711 173.558 31.7711 173.873 31.8341L174.461 31.9181C174.566 31.9391 174.671 31.9811 174.734 32.0441C174.881 32.1491 174.986 32.2961 174.986 32.5481C174.986 33.0311 175.07 35.2781 174.86 35.6351C174.629 36.0341 173.999 36.2231 173.012 36.3701L173.033 38.8481C173.39 38.8691 173.684 38.9111 173.957 38.9951C174.44 39.1421 174.902 39.4361 174.965 40.0871C175.028 40.7381 175.049 41.1581 175.07 41.4731C175.091 41.6411 175.091 41.7881 175.091 41.8931C175.07 41.9981 175.049 42.1031 174.986 42.1871C174.902 42.3341 174.734 42.5021 174.461 42.5021C174.188 42.5231 173.768 42.5021 173.432 42.4811C173.222 42.4601 173.012 42.4601 172.802 42.4601C172.697 42.4601 172.613 42.4391 172.55 42.3971C172.361 42.3341 172.235 42.1871 172.172 41.9771C172.088 41.7461 172.046 41.3471 172.025 41.0111C172.004 40.8221 172.004 40.6121 172.004 40.3811L170.387 40.4021V42.4601C170.387 42.8171 170.429 43.1531 170.534 43.4261C170.702 43.9091 171.08 44.3711 171.92 44.3711C172.739 44.3711 173.495 44.3921 174.02 44.3921C174.335 44.4131 174.608 44.4131 174.86 44.4131C175.238 44.4131 175.574 44.3501 175.889 44.2241C176.414 43.9931 176.918 43.5731 176.939 42.6281C176.939 41.7041 176.939 40.9271 176.918 40.3601C176.897 40.0451 176.897 39.7511 176.897 39.4781C176.792 39.1421 176.666 38.8481 176.477 38.5751C176.162 38.0921 175.595 37.6511 174.734 37.6511C176.393 37.3571 176.414 36.5171 176.519 36.2861C176.582 36.0551 176.624 33.6821 176.729 31.7291C176.792 30.7421 176.288 30.2801 175.721 30.0071C175.406 29.8601 175.028 29.7551 174.629 29.7131L173.915 29.6711C173.432 29.6501 172.781 29.6501 171.92 29.6711C171.059 29.6921 170.66 30.2171 170.471 30.7841C170.366 31.0991 170.303 31.4771 170.303 31.8761L170.429 33.7871ZM179.646 41.9351C179.583 43.2161 179.961 44.1611 181.305 44.3921C181.788 44.3921 182.25 44.3921 182.712 44.4131C183.489 44.4341 184.371 44.4551 184.938 44.4341C185.841 44.4341 186.471 43.5311 186.471 42.6491L186.513 37.9241C186.513 35.4671 186.555 32.6951 186.555 31.7711C186.555 30.8261 186.093 30.3011 185.652 30.0281C185.379 29.8811 185.085 29.7761 184.749 29.7131L183.762 29.6711C183.153 29.6501 182.334 29.6501 181.431 29.6711C180.528 29.6921 180.108 30.2171 179.877 30.7211C179.751 31.0151 179.688 31.3511 179.667 31.7291L179.646 41.9351ZM181.515 32.4011C181.452 31.8761 181.725 31.6451 182.208 31.5611C182.481 31.5821 182.733 31.5821 182.985 31.5821H184.035C184.203 31.5821 184.329 31.7081 184.392 31.8131C184.434 31.8761 184.476 31.9601 184.497 32.0441L184.581 36.7271C184.644 39.1211 184.602 41.5991 184.602 41.9141C184.539 42.2501 184.413 42.3971 184.245 42.4601C184.14 42.5021 184.035 42.5231 183.93 42.5021L183.216 42.5441C182.817 42.5651 182.418 42.5651 182.187 42.5441C181.956 42.5231 181.851 42.3761 181.788 42.2291C181.746 42.1451 181.725 42.0611 181.725 41.9561L181.515 32.4011ZM190.381 31.2881C190.36 31.2881 190.402 30.8261 190.423 30.3431L190.486 29.3771L188.533 29.2091V31.2881H190.381ZM188.449 45.3581C188.512 45.2951 188.911 45.4631 189.31 45.6101L190.087 45.9041L194.077 28.1591L192.313 28.3481L190.339 36.8951C189.331 41.1581 188.386 45.4211 188.449 45.3581ZM192.355 42.5651L192.313 43.5311L192.25 44.4761L194.203 44.6441V42.5651H192.355ZM202.786 44.4341C202.723 44.4971 203.185 44.4761 203.626 44.4131L204.529 44.3081L204.655 38.7221L206.629 38.8481L207.07 44.2241L208.813 44.1821L208.855 29.5871H207.343L206.713 37.1261L204.487 37.0001L204.088 29.9021C203.815 29.9021 203.542 29.9021 203.311 29.8811C202.912 29.8811 202.492 29.8601 202.429 29.8601C202.303 29.8601 202.87 44.3501 202.786 44.4341ZM215.564 29.7761C214.661 29.7131 212.729 29.7131 211.637 29.7131L210.356 44.3921H212.162C212.477 42.3131 212.519 40.3181 212.918 38.7221L214.724 38.9951C215.06 40.1081 215.333 43.0691 215.501 44.3921H217.307L215.564 29.7761ZM214.556 37.1471L213.149 36.9791L213.359 32.6111L213.968 32.6321L214.556 37.1471ZM226.44 44.4341C228.036 44.4341 229.884 42.3761 229.989 40.3811L230.031 31.5611H232.173L232.215 44.5601H234.399L234 29.6291L228.057 29.6711C228.057 31.3931 228.057 32.9891 228.078 34.4381C228.078 36.9161 228.099 39.5831 228.099 40.3181C228.099 41.8301 226.881 42.6071 226.041 42.6071L224.928 42.6491L224.802 44.4761L226.44 44.4341ZM247.277 31.8131C247.277 30.8681 246.815 30.3431 246.374 30.0701C246.101 29.9231 245.807 29.8181 245.471 29.7551L244.484 29.7131C243.875 29.6921 243.245 29.6921 242.342 29.7131C241.439 29.7341 241.019 30.2591 240.788 30.7631C240.662 31.0571 240.599 31.3931 240.578 31.7711L240.494 35.9501L238.373 36.0971V29.6711H236.252C236.084 34.7951 236.042 39.5831 235.979 44.3921H238.373V38.1341L240.368 38.0921L240.305 41.8931C240.242 43.1741 240.62 44.1191 241.964 44.3501C242.447 44.3501 242.972 44.4341 243.434 44.4551C244.211 44.4761 245.471 44.4971 246.038 44.4761C246.941 44.4761 247.571 43.5731 247.571 42.6911C247.571 42.6911 247.277 32.7371 247.277 31.8131ZM245.198 41.9561C245.009 42.1871 242.678 42.2291 242.594 42.0191C242.342 41.4101 242.405 31.8971 242.51 31.5611C242.594 31.3511 245.219 31.5191 245.366 31.8551C245.639 32.4221 245.324 41.8091 245.198 41.9561ZM254.984 38.5331C254.963 37.6931 254.648 37.2101 254.333 36.8951C254.144 36.7271 253.955 36.6011 253.724 36.5171C252.968 36.3701 252.107 36.3071 251.036 36.3701C251.015 34.8581 250.931 33.4301 251.078 31.5611C252.737 31.7081 253.808 31.6241 254.984 31.6031L254.942 29.5871C253.178 29.5241 251.33 29.4821 249.125 29.6291L248.894 44.3921H253.451C254.144 44.3921 254.543 44.0141 254.774 43.6151C254.9 43.3841 254.984 43.1111 255.026 42.8171V41.3051C255.026 40.4441 255.005 39.3941 254.984 38.5331ZM252.968 42.6281C252.59 42.9431 250.994 42.9851 250.994 42.8591C250.994 42.3341 251.12 38.1761 251.141 38.1341C251.225 38.0501 251.939 38.0291 252.149 38.0711C252.38 38.1131 252.59 38.1761 252.779 38.2811C253.157 38.4701 253.136 38.7641 253.22 39.1001C253.283 39.4151 253.514 42.1661 252.968 42.6281ZM262.648 30.0281C262.375 29.8811 262.081 29.7761 261.745 29.7131L260.758 29.6711C260.149 29.6501 259.33 29.6501 258.427 29.6711C257.524 29.6921 257.104 30.2171 256.873 30.7211C256.747 31.0151 256.684 31.3511 256.663 31.7291L256.642 41.9351C256.579 43.2161 256.957 44.1611 258.301 44.3921C258.784 44.3921 259.246 44.3921 259.708 44.4131C260.485 44.4341 261.367 44.4551 261.934 44.4341C262.837 44.4341 263.467 43.5311 263.467 42.6491L263.509 37.9241C263.509 35.4671 263.551 32.6951 263.551 31.7711C263.551 30.8261 263.089 30.3011 262.648 30.0281ZM261.598 41.5781C261.556 41.8091 261.514 42.0191 261.451 42.2081C261.283 42.5231 260.8 42.7961 260.128 42.7961C258.742 42.7961 258.637 42.6071 258.637 41.5991C258.637 41.1371 258.679 32.4011 258.679 32.0861C258.679 31.0781 258.763 30.8891 260.149 30.8891C260.842 30.8891 261.199 30.9311 261.367 31.2461C261.43 31.4351 261.451 31.8971 261.472 32.1281C261.472 32.1281 261.556 33.7661 261.556 36.3281C261.556 38.4281 261.598 41.5781 261.598 41.5781ZM272.056 44.3921L272.245 29.7131L270.271 29.7971L267.373 39.3941L267.163 29.4191L265.105 29.6711L265.399 44.5601L267.541 44.4761L270.229 35.7191L269.914 44.4341L272.056 44.3921ZM271.552 26.9201L270.481 25.7441L268.402 27.2351L266.008 25.7441L265.504 27.2351L268.759 29.4401L271.552 26.9201ZM280.593 38.7217L284.12 34.4971L285.443 35.2558L282.5 38.8447L285.443 42.4438L284.12 43.2129L280.593 38.9985V38.7217ZM284.746 38.7217L288.324 34.4971L289.626 35.2558L286.684 38.8447L289.626 42.4438L288.324 43.2129L284.746 38.9985V38.7217ZM294.251 31.7711V44.4131H296.309C296.309 40.2341 296.057 35.9081 296.057 31.5191H299.144V31.2461C299.144 30.9941 299.102 30.6161 299.081 30.3011L299.039 29.7341L291.71 29.6081C291.647 30.0071 291.668 31.3931 291.668 31.7711H294.251ZM301.194 29.7131C301.257 29.7131 301.257 32.8211 301.194 35.8451C301.173 37.6301 301.131 39.6671 301.068 41.9561C301.068 42.2291 300.774 44.3291 302.685 44.3921C303.714 44.4551 304.449 44.4341 304.932 44.4551C305.205 44.4761 305.436 44.4761 305.625 44.4761C306.024 44.4131 306.36 44.3081 306.675 44.1401C307.2 43.8251 307.704 43.3001 307.683 42.2921C307.683 41.2841 307.641 38.0711 307.578 35.1101L307.515 29.4191L305.709 29.5031L305.541 41.4101C305.52 41.6411 305.478 41.8511 305.415 42.0401C305.268 42.3551 304.995 42.6491 304.407 42.6491C303.21 42.6491 303.126 42.4601 303.126 41.4521C303.126 40.9691 303.105 37.9451 303.105 35.1101C303.084 33.4301 303.084 31.5611 303.084 29.5031C302.685 29.5241 302.349 29.5661 302.076 29.5871C301.593 29.6501 301.11 29.6921 301.194 29.7131ZM316.45 29.6921C315.904 29.6921 313.51 30.0281 311.893 30.4271C311.074 30.6161 310.675 30.9941 310.444 31.3091C310.318 31.4981 310.255 31.7081 310.234 31.9181L309.982 41.9351C310.15 43.7621 311.179 44.5811 313.09 44.4131L316.786 44.0771L316.66 42.3131C316.24 42.3761 315.841 42.4181 315.442 42.4601C314.77 42.5231 313.951 42.5861 313.447 42.5861C312.418 42.5861 312.271 42.2921 311.998 41.8511C311.746 41.3681 311.725 35.2781 311.809 33.8291C311.872 33.0941 312.124 32.7371 312.376 32.5481C312.523 32.4431 312.691 32.3801 312.88 32.3591L316.345 31.9391L316.45 29.6921ZM328.1 38.9985L324.522 43.2129L323.219 42.4438L326.162 38.8447L323.219 35.2558L324.522 34.4971L328.1 38.7217V38.9985ZM323.917 38.9985L320.369 43.2129L319.066 42.4438L322.009 38.8447L319.066 35.2558L320.369 34.4971L323.917 38.7217V38.9985ZM338.47 44.6441L340.591 44.4971V29.7341L338.575 29.7971L336.454 31.6451L337.735 33.4931L338.617 32.8631L338.47 44.6441ZM343.985 41.9351C343.922 43.2161 344.3 44.1611 345.644 44.3921C346.127 44.3921 346.589 44.3921 347.051 44.4131C347.828 44.4341 348.71 44.4551 349.277 44.4341C350.18 44.4341 350.81 43.5311 350.81 42.6491L350.852 37.9241C350.852 35.4671 350.894 32.6951 350.894 31.7711C350.894 30.8261 350.432 30.3011 349.991 30.0281C349.718 29.8811 349.424 29.7761 349.088 29.7131L348.101 29.6711C347.492 29.6501 346.673 29.6501 345.77 29.6711C344.867 29.6921 344.447 30.2171 344.216 30.7211C344.09 31.0151 344.027 31.3511 344.006 31.7291L343.985 41.9351ZM345.854 32.4011C345.791 31.8761 346.064 31.6451 346.547 31.5611C346.82 31.5821 347.072 31.5821 347.324 31.5821H348.374C348.542 31.5821 348.668 31.7081 348.731 31.8131C348.773 31.8761 348.815 31.9601 348.836 32.0441L348.92 36.7271C348.983 39.1211 348.941 41.5991 348.941 41.9141C348.878 42.2501 348.752 42.3971 348.584 42.4601C348.479 42.5021 348.374 42.5231 348.269 42.5021L347.555 42.5441C347.156 42.5651 346.757 42.5651 346.526 42.5441C346.295 42.5231 346.19 42.3761 346.127 42.2291C346.085 42.1451 346.064 42.0611 346.064 41.9561L345.854 32.4011ZM353.208 41.9351C353.145 43.2161 353.523 44.1611 354.867 44.3921C355.35 44.3921 355.812 44.3921 356.274 44.4131C357.051 44.4341 357.933 44.4551 358.5 44.4341C359.403 44.4341 360.033 43.5311 360.033 42.6491L360.075 37.9241C360.075 35.4671 360.117 32.6951 360.117 31.7711C360.117 30.8261 359.655 30.3011 359.214 30.0281C358.941 29.8811 358.647 29.7761 358.311 29.7131L357.324 29.6711C356.715 29.6501 355.896 29.6501 354.993 29.6711C354.09 29.6921 353.67 30.2171 353.439 30.7211C353.313 31.0151 353.25 31.3511 353.229 31.7291L353.208 41.9351ZM355.077 32.4011C355.014 31.8761 355.287 31.6451 355.77 31.5611C356.043 31.5821 356.295 31.5821 356.547 31.5821H357.597C357.765 31.5821 357.891 31.7081 357.954 31.8131C357.996 31.8761 358.038 31.9601 358.059 32.0441L358.143 36.7271C358.206 39.1211 358.164 41.5991 358.164 41.9141C358.101 42.2501 357.975 42.3971 357.807 42.4601C357.702 42.5021 357.597 42.5231 357.492 42.5021L356.778 42.5441C356.379 42.5651 355.98 42.5651 355.749 42.5441C355.518 42.5231 355.413 42.3761 355.35 42.2291C355.308 42.1451 355.287 42.0611 355.287 41.9561L355.077 32.4011ZM362.117 29.6711C362.054 34.3961 362.222 39.2681 362.369 44.3921H364.259V31.5611H368.438C368.501 31.1411 368.522 30.2381 368.522 29.6711H362.117ZM78.2659 56.6301C77.9929 56.4831 77.6989 56.3781 77.3419 56.3151L74.6749 55.7271C74.8219 55.7481 74.9899 55.7481 75.1999 55.7481C75.5569 55.7481 76.0819 55.7481 76.8379 55.6851C77.5729 55.6221 78.0559 55.2861 78.3289 54.9711C78.4759 54.7821 78.6019 54.5721 78.6859 54.3411L78.7489 53.2071C78.7699 52.5141 78.7699 51.5691 78.6859 50.5401C78.5809 49.5321 77.9929 49.0491 77.4259 48.8181C77.0899 48.6711 76.7119 48.6081 76.2919 48.6291C75.0319 48.5661 73.6459 48.6501 72.3229 48.8391C72.1339 53.4381 72.1339 58.1211 72.5329 63.5601L74.4019 63.4761C75.4309 63.4131 76.5859 63.3921 77.3209 63.3291C78.0139 63.3081 78.3919 63.0771 78.5809 62.8461C78.6859 62.7201 78.7699 62.5731 78.7909 62.4261C78.8329 61.8591 78.8749 61.3131 78.9379 60.7671C79.0219 59.8431 79.0849 58.7511 79.1479 58.0161C79.2109 57.2811 78.7489 56.8821 78.2659 56.6301ZM74.6749 49.5951C74.6959 49.5951 74.6959 49.5741 74.7169 49.5741C75.2419 49.4691 75.9769 49.7211 76.0189 50.3301C76.0399 50.5191 76.0819 52.4511 76.0189 52.9341C75.9769 53.2911 75.7459 53.9001 75.3679 54.0891C75.1789 54.1731 74.6329 54.1941 74.6329 54.1941C74.6329 54.1941 74.6539 49.5951 74.6749 49.5951ZM76.3759 59.5491C76.3549 59.9271 76.3129 60.3051 76.2709 60.6831C76.2289 61.1031 76.1659 61.5651 75.9559 61.9221C75.7459 62.2581 74.6539 62.2371 74.6539 62.2371C74.6539 62.2371 74.4649 58.1421 74.6329 57.3441C74.6539 57.3021 75.5359 57.3231 75.7879 57.5331C76.3339 58.0161 76.3969 58.8561 76.3759 59.5491ZM93.4188 48.6921C92.8728 48.6921 90.4788 49.0281 88.8618 49.4271C88.0428 49.6161 87.6438 49.9941 87.4128 50.3091C87.2868 50.4981 87.2238 50.7081 87.2028 50.9181L86.9508 60.9351C87.1188 62.7621 88.1478 63.5811 90.0588 63.4131L93.7548 63.0771L93.6288 61.3131C93.2088 61.3761 92.8098 61.4181 92.4108 61.4601C91.7388 61.5231 90.9198 61.5861 90.4158 61.5861C89.3868 61.5861 89.2398 61.2921 88.9668 60.8511C88.7148 60.3681 88.6938 54.2781 88.7778 52.8291C88.8408 52.0941 89.0928 51.7371 89.3448 51.5481C89.4918 51.4431 89.6598 51.3801 89.8488 51.3591L93.3138 50.9391L93.4188 48.6921ZM95.526 63.3921H101.826V61.8171H97.563C97.542 60.9981 97.353 59.7381 97.353 58.9191V58.6671L101.301 58.1421V56.5671H97.353C97.29 55.9791 96.996 51.6741 97.101 50.2671H101.826V48.6921C99.726 48.6921 97.332 48.5871 95.232 48.6921L95.526 63.3921ZM105.661 50.7711V63.4131H107.719C107.719 59.2341 107.467 54.9081 107.467 50.5191H110.554V50.2461C110.554 49.9941 110.512 49.6161 110.491 49.3011L110.449 48.7341L103.12 48.6081C103.057 49.0071 103.078 50.3931 103.078 50.7711H105.661ZM118.867 63.3921L119.056 48.7131L117.082 48.7971L114.184 58.3941L113.974 48.4191L111.916 48.6711L112.21 63.5601L114.352 63.4761L117.04 54.7191L116.725 63.4341L118.867 63.3921ZM127.444 57.7217L130.971 53.4971L132.294 54.2558L129.351 57.8447L132.294 61.4438L130.971 62.2129L127.444 57.9985V57.7217ZM131.597 57.7217L135.175 53.4971L136.478 54.2558L133.535 57.8447L136.478 61.4438L135.175 62.2129L131.597 57.9985V57.7217ZM140.451 63.3921L140.703 53.1861L143.286 58.4361H144.651L146.877 53.7951L147.024 63.3921L148.935 63.5181L148.368 48.6291H146.667L144.084 55.6431L140.493 48.6291L138.603 48.9021L138.729 63.3921H140.451ZM155.595 48.7761C154.692 48.7131 152.76 48.7131 151.668 48.7131L150.387 63.3921H152.193C152.508 61.3131 152.55 59.3181 152.949 57.7221L154.755 57.9951C155.091 59.1081 155.364 62.0691 155.532 63.3921H157.338L155.595 48.7761ZM154.587 56.1471L153.18 55.9791L153.39 51.6111L153.999 51.6321L154.587 56.1471ZM158.856 48.6711C158.793 53.3961 158.961 58.2681 159.108 63.3921H160.998V50.5611H165.177C165.24 50.1411 165.261 49.2381 165.261 48.6711H158.856ZM167.022 63.4341C166.959 63.4971 167.421 63.4761 167.862 63.4131L168.765 63.3081L168.891 57.7221L170.865 57.8481L171.306 63.2241L173.049 63.1821L173.091 48.5871H171.579L170.949 56.1261L168.723 56.0001L168.324 48.9021C168.051 48.9021 167.778 48.9021 167.547 48.8811C167.148 48.8811 166.728 48.8601 166.665 48.8601C166.539 48.8601 167.106 63.3501 167.022 63.4341ZM181.648 63.3921L181.837 48.7131L179.863 48.7971L176.965 58.3941L176.755 48.4191L174.697 48.6711L174.991 63.5601L177.133 63.4761L179.821 54.7191L179.506 63.4341L181.648 63.3921ZM185.843 50.7711V63.4131H187.901C187.901 59.2341 187.649 54.9081 187.649 50.5191H190.736V50.2461C190.736 49.9941 190.694 49.6161 190.673 49.3011L190.631 48.7341L183.302 48.6081C183.239 49.0071 183.26 50.3931 183.26 50.7711H185.843ZM201.658 57.9985L198.08 62.2129L196.777 61.4438L199.72 57.8447L196.777 54.2558L198.08 53.4971L201.658 57.7217V57.9985ZM197.475 57.9985L193.927 62.2129L192.625 61.4438L195.567 57.8447L192.625 54.2558L193.927 53.4971L197.475 57.7217V57.9985ZM215.136 57.0081C215.787 56.8611 216.102 56.5041 216.249 56.1471C216.333 55.9371 216.375 55.7061 216.396 55.4751C216.417 54.8661 216.417 54.2571 216.417 53.6481C216.417 52.6191 216.417 51.3591 216.354 50.4351C216.291 49.5321 215.745 49.0911 215.178 48.8601C214.863 48.7341 214.485 48.6711 214.086 48.6711L210.012 49.0911L210.096 50.6661L211.629 50.5821C212.448 50.5191 213.372 50.5191 213.813 50.4981C214.233 50.4981 214.506 50.7081 214.674 50.9391C214.779 51.0861 214.842 51.2331 214.905 51.3801C214.926 51.3381 214.947 51.3801 214.968 51.5061C215.031 51.7371 215.031 52.2621 215.094 53.5221C215.157 54.7821 214.506 55.4121 213.855 55.7271C213.477 55.9161 213.036 56.0211 212.553 56.0421L212.637 57.8271C213.75 57.7641 214.59 58.6251 214.653 59.1501C214.674 59.2971 214.695 59.4651 214.695 59.6541C214.695 59.9691 214.674 60.4101 214.527 60.8931C214.38 61.3761 213.96 61.5861 213.603 61.6911C213.372 61.7541 213.141 61.7751 212.91 61.7751L210.012 61.5021L209.886 63.3501L211.986 63.3921C213.12 63.3921 214.401 63.4341 215.052 63.4341C215.703 63.4341 215.997 63.1191 216.144 62.7831C216.228 62.5941 216.27 62.3841 216.27 62.1321C216.27 61.6911 216.27 61.2501 216.291 60.8091C216.291 60.0741 216.312 59.1711 216.312 58.5831C216.312 57.2811 215.577 57.1131 215.136 57.0081ZM223.129 48.7761C222.226 48.7131 220.294 48.7131 219.202 48.7131L217.921 63.3921H219.727C220.042 61.3131 220.084 59.3181 220.483 57.7221L222.289 57.9951C222.625 59.1081 222.898 62.0691 223.066 63.3921H224.872L223.129 48.7761ZM222.121 56.1471L220.714 55.9791L220.924 51.6111L221.533 51.6321L222.121 56.1471ZM232.577 48.7551L232.745 63.5181H234.593L234.635 57.1341L237.533 63.4761L239.192 62.1741L235.727 56.0421L239.507 49.9941L238.31 48.5451L234.509 54.7191L234.425 48.4191L232.577 48.7551ZM246.063 48.7761C245.16 48.7131 243.228 48.7131 242.136 48.7131L240.855 63.3921H242.661C242.976 61.3131 243.018 59.3181 243.417 57.7221L245.223 57.9951C245.559 59.1081 245.832 62.0691 246 63.3921H247.806L246.063 48.7761ZM245.055 56.1471L243.648 55.9791L243.858 51.6111L244.467 51.6321L245.055 56.1471ZM258.584 56.2521C258.941 56.1891 259.235 56.0841 259.508 55.9371C259.991 55.7061 260.411 55.3281 260.432 54.7191C260.432 54.1731 260.537 52.6611 260.642 51.2541C260.705 50.4351 260.768 49.5531 260.873 48.5871H259.067L258.542 54.1521C258.479 54.3411 258.374 54.5091 258.248 54.6561C258.017 54.9081 257.723 55.1811 257.24 55.2021C256.82 55.2651 256.547 55.2441 256.379 55.2651C256.274 55.2861 256.211 55.2861 256.148 55.2861L256.022 51.9681C255.959 50.3091 255.917 48.6501 255.917 48.6291C255.917 48.6081 255.392 48.5871 254.867 48.5871H253.817L253.733 55.3281L252.116 55.2441C251.969 55.2231 251.822 55.1811 251.717 55.0761C251.486 54.9081 251.339 54.6351 251.276 53.9841C251.192 52.7451 251.549 48.7551 251.507 48.7551H249.302V54.6771C249.302 55.0761 249.386 55.4331 249.533 55.7481C249.785 56.3151 250.289 56.8821 251.318 56.9451C249.869 57.1761 249.344 58.7721 249.407 59.3391C249.47 60.2631 249.491 61.2921 249.428 62.1111L249.344 63.4761H251.36V59.8011C251.381 59.4651 251.402 59.1711 251.465 58.9191C251.57 58.4781 251.78 58.0371 252.2 58.0581C252.62 58.0791 252.977 58.1001 253.229 58.1001C253.376 58.1211 253.523 58.1211 253.628 58.1211L253.691 63.3501L255.434 63.4341L255.833 57.8271H257.681C257.87 57.8481 258.038 57.8901 258.185 57.9531C258.437 58.1001 258.689 58.2891 258.626 58.7301C258.563 59.1711 258.479 60.3261 258.416 61.3551C258.353 61.9641 258.311 62.6151 258.29 63.3081L259.991 63.3921L260.411 58.5411C260.474 57.9531 260.054 56.1891 258.584 56.2521ZM271.304 61.3971C271.241 57.6171 271.262 53.8161 271.157 48.6711L265.802 48.7551L265.865 51.5061C265.886 53.0181 265.886 54.6981 265.802 55.6851C265.718 56.6721 265.256 58.1001 264.815 59.2971C264.563 59.9901 264.29 60.7251 263.975 61.4601L262.295 61.5021C262.232 62.1531 262.19 62.7831 262.253 63.4341L262.274 63.5601L262.316 64.6941C262.337 65.2821 262.358 65.8701 262.358 65.9331H264.332L264.374 63.5181L271.913 63.4761L271.955 65.8071L273.929 65.7651L274.034 61.4601L271.304 61.3971ZM269.015 61.3551C269.015 61.3551 266.369 61.5441 266.327 61.4181C266.264 61.0401 267.167 60.1161 267.566 55.7271C267.629 55.0551 267.545 50.8131 267.566 50.7081C267.692 50.7081 268.553 50.7501 268.784 50.7291C268.826 51.0441 269.015 61.3551 269.015 61.3551ZM281.509 57.3231C281.446 56.9871 281.32 56.6931 281.152 56.4411C280.837 56.0001 280.333 55.5591 279.409 55.5591C278.485 55.5591 278.023 55.5801 277.792 55.6011C277.645 55.6221 277.582 55.6221 277.561 55.6431L277.435 48.4821L275.524 48.7551L275.44 63.3501L279.325 63.3081C279.724 63.2661 280.102 63.1821 280.438 63.0351C281.005 62.8041 281.53 62.4051 281.593 61.6701C281.614 60.9351 281.593 59.8641 281.572 58.9611L281.509 57.3231ZM279.493 61.7121C279.115 62.0271 277.519 62.0481 277.519 61.9431C277.519 61.3971 277.645 57.2601 277.666 57.2181C277.75 57.1341 278.464 57.1131 278.674 57.1551C278.905 57.1971 279.115 57.2601 279.304 57.3441C279.682 57.5331 279.661 57.8481 279.745 58.1841C279.808 58.4991 280.039 61.2501 279.493 61.7121ZM285.289 48.7971L282.958 48.7551L283.315 63.4341L285.331 63.3921L285.289 48.7971ZM293.848 63.3921L294.037 48.7131L292.063 48.7971L289.165 58.3941L288.955 48.4191L286.897 48.6711L287.191 63.5601L289.333 63.4761L292.021 54.7191L291.706 63.4341L293.848 63.3921ZM293.344 45.9201L292.273 44.7441L290.194 46.2351L287.8 44.7441L287.296 46.2351L290.551 48.4401L293.344 45.9201ZM301.712 48.6921C301.817 48.6921 301.67 58.5201 301.733 58.5201H303.875H305.954L306.059 63.5601L308.264 63.4131L308.453 48.7131L306.395 48.6291L306.017 56.4201L303.602 56.5251L303.686 48.7971L302.657 48.7341C302.153 48.7131 301.649 48.6921 301.712 48.6921ZM310.331 63.3921H316.631V61.8171H312.368C312.347 60.9981 312.158 59.7381 312.158 58.9191V58.6671L316.106 58.1421V56.5671H312.158C312.095 55.9791 311.801 51.6741 311.906 50.2671H316.631V48.6921C314.531 48.6921 312.137 48.5871 310.037 48.6921L310.331 63.3921ZM318.05 48.7551L318.218 63.5181H320.066L320.108 57.1341L323.006 63.4761L324.665 62.1741L321.2 56.0421L324.98 49.9941L323.783 48.5451L319.982 54.7191L319.898 48.4191L318.05 48.7551Z" fill="#004F91"/>
</svg>
