<svg width="148" height="57" viewBox="0 0 148 57" fill="none" xmlns="http://www.w3.org/2000/svg">
<path d="M138.017 43.2812L2.99012 42.3499L8.84453 12.8061L144.194 16.4299L138.017 43.2812Z" fill="#FFF021"/>
<path d="M17.1725 18.4893C16.9141 23.2076 16.8804 28.0824 16.8153 33.2081L18.7037 33.2863L19.2345 20.4663L23.41 20.6392C23.4903 20.2221 23.5486 19.3208 23.5721 18.7543L17.1725 18.4893ZM23.8629 33.5419C25.4576 33.608 27.3891 31.6282 27.5766 29.6392L27.9834 20.8285L30.1236 20.9171L29.6278 33.9067L31.8099 33.9971L32.0289 19.0624L26.0893 18.8585C26.0181 20.579 25.952 22.1736 25.9131 23.6223C25.8106 26.0981 25.7212 28.7637 25.6908 29.4981C25.6283 31.0088 24.3792 31.7348 23.5399 31.7L22.4261 31.6959L22.2246 33.5161L23.8629 33.5419ZM39.0986 19.5022C38.199 19.4019 36.2686 19.322 35.1776 19.2768L33.2904 33.8902L35.0949 33.965C35.4956 31.9008 35.6201 29.9092 36.0848 28.3311L37.8779 28.6786C38.1676 29.8045 38.3179 32.7743 38.431 34.1031L40.2355 34.1778L39.0986 19.5022ZM37.7865 26.8252L36.3877 26.5991L36.7782 22.2436L37.3858 22.2897L37.7865 26.8252ZM48.0745 27.7346C47.8078 27.5764 47.5184 27.4593 47.1643 27.3816L44.5239 26.6838C44.6699 26.7109 44.8378 26.7178 45.0476 26.7265C45.4043 26.7413 45.9289 26.763 46.6868 26.7313C47.4238 26.6988 47.9203 26.383 48.2061 26.0796C48.3608 25.8968 48.4953 25.6922 48.5888 25.4649L48.6987 24.3345C48.7483 23.643 48.7874 22.6988 48.7461 21.6672C48.6829 20.6557 48.1153 20.1488 47.5584 19.8945C47.2288 19.7337 46.8537 19.6552 46.4332 19.6588C45.1769 19.5437 43.7886 19.5703 42.4589 19.7044C42.0798 24.2916 41.8861 28.9706 42.0597 34.4215L43.9306 34.4149C44.9613 34.3945 46.1162 34.4213 46.8532 34.3887C47.5465 34.3964 47.9337 34.1813 48.1321 33.9583C48.2422 33.8367 48.3322 33.6933 48.3593 33.5473C48.4247 32.9826 48.4892 32.4388 48.5748 31.8958C48.6969 30.9761 48.8051 29.8876 48.8984 29.1559C48.9918 28.4241 48.5467 28.0063 48.0745 27.7346ZM44.7776 20.557C44.7986 20.5579 44.7995 20.5369 44.8204 20.5378C45.3493 20.4546 46.0733 20.7368 46.09 21.347C46.1032 21.5367 46.0652 23.4688 45.9823 23.9488C45.9256 24.3037 45.6696 24.9027 45.2841 25.0759C45.0918 25.152 44.5454 25.1504 44.5454 25.1504C44.5454 25.1504 44.7566 20.5562 44.7776 20.557ZM46.0654 30.5729C46.0287 30.9497 45.9711 31.3256 45.9135 31.7016C45.8542 32.1195 45.7721 32.5785 45.5476 32.9265C45.3238 33.2535 44.2336 33.1874 44.2336 33.1874C44.2336 33.1874 44.2142 29.088 44.4151 28.2977C44.4378 28.2566 45.3182 28.314 45.5613 28.5343C46.0868 29.0395 46.115 29.8814 46.0654 30.5729ZM50.7084 34.6535C50.6429 34.7138 51.1053 34.7119 51.5486 34.6672L52.4551 34.5997L52.8121 29.0237L54.7792 29.2312L54.9974 34.6209L56.7407 34.651L57.3864 20.0702L55.8757 20.0077L54.9344 27.5142L52.7155 27.2962L52.6105 20.1878C52.3377 20.1765 52.0649 20.1652 51.835 20.1346C51.4364 20.1181 51.0176 20.0798 50.9546 20.0772C50.8287 20.072 50.7958 34.573 50.7084 34.6535ZM64.7147 29.1171C64.6656 28.7788 64.5519 28.4799 64.3944 28.2211C64.098 27.7675 63.6126 27.306 62.6894 27.2678C61.7662 27.2296 61.3037 27.2314 61.0721 27.2428C60.9243 27.2578 60.8614 27.2551 60.8395 27.2753L61.0099 20.1152L59.0892 20.3089L58.4015 34.8879L62.2849 35.0067C62.6853 34.9812 63.0665 34.9129 63.4083 34.7799C63.9843 34.5726 64.5254 34.1957 64.6187 33.4639C64.6701 32.7304 64.6935 31.6594 64.7098 30.7563L64.7147 29.1171ZM62.5188 33.419C62.1281 33.7181 60.5326 33.673 60.5369 33.5681C60.5595 33.0226 60.8566 28.8943 60.8793 28.8533C60.9667 28.7728 61.6809 28.7814 61.889 28.832C62.1181 28.8835 62.3253 28.9552 62.5107 29.0469C62.8805 29.2514 62.8465 29.5652 62.9165 29.9044C62.9665 30.2218 63.0835 32.98 62.5188 33.419ZM68.8441 20.7548L66.5169 20.6164L66.2663 35.2976L68.2823 35.3391L68.8441 20.7548ZM70.1832 35.4178L76.4778 35.6784L76.543 34.1047L72.2836 33.9284C72.2965 33.1092 72.1598 31.8425 72.1937 31.0242L72.2041 30.7724L76.1704 30.4112L76.2356 28.8375L72.291 28.6742C72.2523 28.0841 72.1367 23.7706 72.2998 22.3692L77.0208 22.5646L77.0859 20.991C74.9877 20.9041 72.6001 20.7001 70.4976 20.7182L70.1832 35.4178ZM86.4508 23.3544L89.912 23.5187C89.5705 28.2126 89.3286 32.5323 89.1408 36.56L90.8841 36.5901L91.5298 22.0094L84.826 21.4796C84.7001 21.4744 84.6672 35.9754 84.5798 36.0559C84.5142 36.1162 84.9767 36.1144 85.4199 36.0696L86.3265 36.0021L86.4508 23.3544ZM99.3659 23.7C99.2192 21.1507 95.0851 21.505 93.1023 21.6751L92.9986 36.3624L94.7611 36.4354L94.9913 30.8752C96.2477 30.9902 98.9279 30.2184 99.167 28.5049C99.4009 26.9172 99.4669 25.3226 99.3659 23.7ZM97.3824 27.4431C97.2845 27.7754 97.2925 28.091 96.907 28.2642C96.7147 28.3403 96.5023 28.3945 96.2697 28.4269C96.0582 28.4602 95.3456 28.4097 95.2652 28.3223C95.2459 28.2795 95.2912 24.1408 95.3138 23.5953C95.3181 23.4904 96.9119 23.5774 97.2765 23.9077C97.803 24.3919 97.4583 27.131 97.3824 27.4431ZM107.284 36.9539L108.08 22.2953L106.104 22.2975L102.812 31.7664L103.015 21.7913L100.948 21.9579L100.626 36.8464L102.769 36.851L105.817 28.2127L105.142 36.9072L107.284 36.9539ZM114.426 30.8601C115.082 30.7402 115.412 30.3965 115.573 30.0459C115.666 29.8396 115.717 29.6105 115.748 29.3806C115.794 28.7729 115.819 28.1645 115.845 27.556C115.887 26.5279 115.939 25.2689 115.915 24.3431C115.889 23.4383 115.362 22.9751 114.805 22.7208C114.495 22.5819 114.12 22.5033 113.721 22.4868L109.634 22.7379L109.652 24.315L111.187 24.2945C112.008 24.2655 112.932 24.3037 113.373 24.301C113.793 24.3183 114.057 24.5394 114.215 24.7772C114.314 24.9284 114.371 25.0779 114.428 25.2274C114.45 25.1863 114.47 25.2291 114.485 25.3559C114.539 25.5893 114.517 26.1138 114.528 27.3754C114.539 28.6369 113.862 29.2394 113.199 29.5272C112.813 29.7004 112.368 29.7871 111.885 29.7881L111.895 31.575C113.01 31.5581 113.813 32.4531 113.854 32.9803C113.869 33.128 113.883 33.2968 113.876 33.4856C113.863 33.8003 113.823 34.2401 113.656 34.7166C113.49 35.1931 113.061 35.3855 112.7 35.4757C112.467 35.5291 112.235 35.5405 112.004 35.531L109.12 35.1383L108.918 36.9795L111.014 37.1083C112.147 37.1553 113.425 37.2502 114.076 37.2771C114.726 37.3041 115.033 37.0015 115.194 36.6719C115.286 36.4865 115.336 36.2784 115.347 36.0266C115.365 35.586 115.383 35.1454 115.422 34.7056C115.453 33.9713 115.511 33.0699 115.535 32.4824C115.589 31.1815 114.862 30.9833 114.426 30.8601ZM123.385 31.5463C123.336 31.208 123.222 30.9091 123.065 30.6503C122.768 30.1967 122.283 29.7352 121.36 29.697C120.437 29.6588 119.974 29.6606 119.743 29.6721C119.595 29.687 119.532 29.6843 119.51 29.7045L119.68 22.5444L117.76 22.7381L117.072 37.3171L120.955 37.4359C121.356 37.4104 121.737 37.3421 122.079 37.2092C122.655 37.0018 123.196 36.6249 123.289 35.8931C123.341 35.1596 123.364 34.0886 123.38 33.1856L123.385 31.5463ZM121.189 35.8482C120.799 36.1473 119.203 36.1022 119.207 35.9973C119.23 35.4518 119.527 31.3236 119.55 31.2825C119.637 31.202 120.351 31.2106 120.559 31.2612C120.789 31.3127 120.996 31.3844 121.181 31.4761C121.551 31.6806 121.517 31.9944 121.587 32.3336C121.637 32.651 121.754 35.4092 121.189 35.8482ZM127.515 23.184L125.187 23.0456L124.937 37.7268L126.953 37.7683L127.515 23.184Z" fill="#004F91"/>
</svg>
