<svg width="235" height="104" viewBox="0 0 235 104" fill="none" xmlns="http://www.w3.org/2000/svg">
<path d="M64.9878 90.896L64.2838 91.408L63.2598 89.728C63.2278 89.7707 63.1585 89.8773 63.0518 90.048C62.9558 90.208 62.8491 90.384 62.7318 90.576C62.6251 90.7573 62.5238 90.9333 62.4278 91.104C62.3318 91.2747 62.2678 91.3813 62.2358 91.424C62.2145 91.4027 62.1665 91.3707 62.0918 91.328C62.0278 91.2747 61.9585 91.2213 61.8838 91.168C61.8091 91.104 61.7345 91.0507 61.6598 91.008C61.5958 90.9653 61.5531 90.9333 61.5318 90.912L62.7638 89.392C62.7105 89.3813 62.5931 89.3493 62.4118 89.296C62.2411 89.2427 62.0545 89.1893 61.8518 89.136C61.6491 89.0827 61.4571 89.0293 61.2758 88.976C61.1051 88.9227 60.9931 88.8907 60.9398 88.88C60.9505 88.848 60.9665 88.7947 60.9878 88.72C61.0091 88.6453 61.0358 88.5653 61.0678 88.48C61.0998 88.384 61.1265 88.2987 61.1478 88.224C61.1691 88.1387 61.1851 88.08 61.1958 88.048L62.9558 88.8C62.9558 88.7467 62.9505 88.624 62.9398 88.432C62.9291 88.24 62.9131 88.0373 62.8918 87.824C62.8811 87.6107 62.8651 87.408 62.8438 87.216C62.8331 87.024 62.8278 86.9013 62.8278 86.848H63.6758L63.5318 88.8C63.5745 88.7787 63.6811 88.736 63.8518 88.672C64.0331 88.5973 64.2198 88.5227 64.4118 88.448C64.6145 88.3627 64.8011 88.2827 64.9718 88.208C65.1531 88.1333 65.2705 88.08 65.3238 88.048C65.3345 88.08 65.3505 88.1387 65.3718 88.224C65.3931 88.3093 65.4198 88.3947 65.4518 88.48C65.4838 88.5653 65.5105 88.6453 65.5318 88.72C65.5531 88.7947 65.5691 88.848 65.5798 88.88L63.7398 89.392L64.9878 90.896ZM70.2311 98H69.2391V87.936L67.6391 89.088L67.6551 88.016L69.2231 86.864H70.2311V98ZM79.7656 90.32C80.3309 90.32 80.7896 90.432 81.1416 90.656C81.4936 90.8693 81.7602 91.1787 81.9416 91.584C82.0909 91.9253 82.1869 92.3413 82.2296 92.832C82.2829 93.312 82.3096 93.8027 82.3096 94.304C82.3096 94.848 82.2776 95.3067 82.2136 95.68C82.1496 96.0427 82.0376 96.384 81.8776 96.704C81.6429 97.216 81.3069 97.5787 80.8696 97.792C80.4322 98.0053 79.9682 98.112 79.4776 98.112C78.9016 98.112 78.4269 98.0053 78.0536 97.792C77.6802 97.568 77.3976 97.2693 77.2056 96.896C76.8962 96.32 76.7416 95.3227 76.7416 93.904C76.7416 93.6693 76.7469 93.424 76.7576 93.168C76.7682 92.9013 76.7789 92.6507 76.7896 92.416C76.8002 92.1813 76.8109 91.968 76.8216 91.776C76.8322 91.584 76.8482 91.4293 76.8696 91.312C76.9122 90.736 76.9922 90.2347 77.1096 89.808C77.2269 89.3707 77.3816 88.9973 77.5736 88.688C77.7762 88.368 78.0109 88.1013 78.2776 87.888C78.5549 87.664 78.8749 87.472 79.2376 87.312C79.5789 87.152 79.9309 87.008 80.2936 86.88C80.6669 86.752 81.1042 86.5867 81.6056 86.384L81.8936 87.136C81.5949 87.2747 81.3176 87.392 81.0616 87.488C80.8162 87.584 80.5816 87.6747 80.3576 87.76C80.1336 87.8453 79.9202 87.936 79.7176 88.032C79.5256 88.128 79.3336 88.24 79.1416 88.368C78.6402 88.7093 78.2936 89.1253 78.1016 89.616C77.9202 90.096 77.8082 90.6827 77.7656 91.376C77.7869 91.376 77.7976 91.3813 77.7976 91.392C78.0429 91.0187 78.3469 90.7467 78.7096 90.576C79.0722 90.4053 79.4242 90.32 79.7656 90.32ZM79.6056 91.232C79.2322 91.232 78.9176 91.3173 78.6616 91.488C78.4056 91.6587 78.2082 91.8987 78.0696 92.208C77.9416 92.464 77.8562 92.7787 77.8136 93.152C77.7709 93.5253 77.7496 93.9307 77.7496 94.368C77.7496 94.7947 77.7656 95.168 77.7976 95.488C77.8296 95.7973 77.8989 96.0693 78.0056 96.304C78.1442 96.6027 78.3362 96.8267 78.5816 96.976C78.8269 97.1253 79.1469 97.2 79.5416 97.2C79.8722 97.2 80.1656 97.1253 80.4216 96.976C80.6776 96.8267 80.8802 96.5973 81.0296 96.288C81.2216 95.9253 81.3176 95.248 81.3176 94.256C81.3176 93.8507 81.3016 93.4613 81.2696 93.088C81.2376 92.704 81.1842 92.4107 81.1096 92.208C80.9922 91.8987 80.8162 91.6587 80.5816 91.488C80.3469 91.3173 80.0216 91.232 79.6056 91.232ZM86.4173 90C86.9506 90 87.3933 90.1067 87.7453 90.32C88.108 90.5227 88.396 90.7893 88.6093 91.12C88.812 91.3973 88.9506 91.8027 89.0253 92.336C89.1 92.8693 89.1373 93.4453 89.1373 94.064C89.1373 94.256 89.132 94.4693 89.1213 94.704C89.1106 94.928 89.0893 95.1573 89.0573 95.392C89.036 95.616 89.004 95.8293 88.9613 96.032C88.9293 96.2347 88.892 96.4053 88.8493 96.544C88.6466 97.12 88.3106 97.5253 87.8413 97.76C87.3826 97.9947 86.8653 98.112 86.2893 98.112C85.7453 98.112 85.2973 98.0107 84.9453 97.808C84.604 97.6053 84.3373 97.344 84.1453 97.024C83.932 96.736 83.7826 96.3413 83.6973 95.84C83.6226 95.328 83.5853 94.7467 83.5853 94.096C83.5853 93.584 83.6066 93.1093 83.6493 92.672C83.692 92.224 83.772 91.8507 83.8893 91.552C84.092 91.0507 84.4066 90.6667 84.8333 90.4C85.2706 90.1333 85.7986 90 86.4173 90ZM86.3853 90.912C86.044 90.912 85.74 90.992 85.4733 91.152C85.2066 91.3013 84.9986 91.5307 84.8493 91.84C84.732 92.0533 84.6573 92.368 84.6253 92.784C84.5933 93.1893 84.5773 93.664 84.5773 94.208C84.5773 94.752 84.604 95.2107 84.6573 95.584C84.7106 95.9467 84.812 96.2347 84.9613 96.448C85.2493 96.9493 85.7133 97.2 86.3533 97.2C86.7053 97.2 87.0253 97.1147 87.3133 96.944C87.6013 96.7627 87.8093 96.4853 87.9373 96.112C88.0226 95.8987 88.076 95.6053 88.0973 95.232C88.1186 94.848 88.1293 94.432 88.1293 93.984C88.1293 93.504 88.108 93.088 88.0653 92.736C88.0333 92.3733 87.9746 92.096 87.8893 91.904C87.7613 91.5733 87.564 91.328 87.2973 91.168C87.0413 90.9973 86.7373 90.912 86.3853 90.912ZM94.9567 98V94.4H91.6447V98H90.6367V90.096H91.6447V93.552H94.9567V90.096H95.9807V98H94.9567ZM99.8451 96.432C99.9091 96.208 99.9891 95.9307 100.085 95.6C100.181 95.2693 100.288 94.9067 100.405 94.512C100.522 94.1173 100.64 93.712 100.757 93.296C100.885 92.8693 101.008 92.4587 101.125 92.064C101.242 91.6693 101.349 91.3067 101.445 90.976C101.552 90.6347 101.637 90.3467 101.701 90.112H102.741L99.8131 99.68C99.4931 100.725 98.8637 101.248 97.9251 101.248H97.5571V100.384H97.8771C98.1864 100.384 98.4211 100.277 98.5811 100.064C98.7517 99.8613 98.8904 99.568 98.9971 99.184L99.3811 97.904C98.9437 96.6027 98.5171 95.3067 98.1011 94.016C97.6957 92.7253 97.2744 91.424 96.8371 90.112H97.9091C98.0797 90.6773 98.2504 91.2373 98.4211 91.792C98.5917 92.336 98.7624 92.8853 98.9331 93.44C98.9757 93.6 99.0344 93.8187 99.1091 94.096C99.1944 94.3627 99.2797 94.6453 99.3651 94.944C99.4611 95.232 99.5464 95.5147 99.6211 95.792C99.6957 96.0587 99.7597 96.272 99.8131 96.432H99.8451ZM107.857 96.24C107.996 96.3253 108.135 96.4053 108.273 96.48C108.412 96.544 108.556 96.6133 108.705 96.688C108.513 97.136 108.215 97.4827 107.809 97.728C107.404 97.9733 106.919 98.096 106.353 98.096C105.756 98.096 105.271 97.9947 104.897 97.792C104.524 97.5787 104.231 97.2907 104.017 96.928C103.804 96.5547 103.655 96.112 103.569 95.6C103.495 95.088 103.457 94.5333 103.457 93.936C103.457 93.3813 103.505 92.864 103.601 92.384C103.708 91.904 103.873 91.488 104.097 91.136C104.332 90.784 104.636 90.5067 105.009 90.304C105.383 90.1013 105.841 90 106.385 90C106.961 90 107.441 90.128 107.825 90.384C108.22 90.6293 108.519 90.976 108.721 91.424L107.873 91.92C107.756 91.6213 107.569 91.3867 107.313 91.216C107.057 91.0347 106.753 90.944 106.401 90.944C105.985 90.944 105.649 91.0293 105.393 91.2C105.137 91.36 104.94 91.5787 104.801 91.856C104.673 92.1333 104.583 92.4533 104.529 92.816C104.487 93.1787 104.465 93.5573 104.465 93.952C104.465 94.3467 104.487 94.736 104.529 95.12C104.572 95.504 104.663 95.8507 104.801 96.16C104.94 96.4587 105.132 96.704 105.377 96.896C105.633 97.0773 105.964 97.168 106.369 97.168C106.732 97.168 107.041 97.0827 107.297 96.912C107.553 96.7307 107.74 96.5067 107.857 96.24ZM112.593 92.464V91.664H118.753V92.464H112.593ZM112.593 95.152V94.32H118.753V95.152H112.593ZM126.528 98H125.536V87.936L123.936 89.088L123.952 88.016L125.52 86.864H126.528V98ZM134.142 91.024C134.388 90.6507 134.676 90.3893 135.006 90.24C135.337 90.08 135.694 90 136.078 90C136.622 90 137.054 90.112 137.374 90.336C137.705 90.56 137.95 90.8587 138.11 91.232C138.281 91.5947 138.393 92.0213 138.446 92.512C138.5 92.992 138.526 93.4933 138.526 94.016C138.526 94.5173 138.494 95.0133 138.43 95.504C138.377 95.984 138.26 96.416 138.078 96.8C137.897 97.184 137.636 97.4933 137.294 97.728C136.964 97.9627 136.521 98.08 135.966 98.08C135.561 98.08 135.214 98 134.926 97.84C134.638 97.68 134.377 97.4507 134.142 97.152H134.11V101.216H133.118V90.112H134.11V91.008C134.121 91.008 134.132 91.0133 134.142 91.024ZM135.774 97.12C136.169 97.12 136.478 97.0347 136.702 96.864C136.937 96.6933 137.113 96.464 137.23 96.176C137.348 95.888 137.422 95.5627 137.454 95.2C137.497 94.8267 137.518 94.4427 137.518 94.048C137.518 93.632 137.497 93.2373 137.454 92.864C137.422 92.48 137.348 92.1493 137.23 91.872C137.113 91.584 136.942 91.36 136.718 91.2C136.494 91.0293 136.19 90.944 135.806 90.944C135.39 90.944 135.065 91.0453 134.83 91.248C134.606 91.44 134.441 91.6907 134.334 92C134.228 92.2987 134.164 92.6293 134.142 92.992C134.121 93.3547 134.11 93.7013 134.11 94.032C134.11 94.352 134.121 94.6933 134.142 95.056C134.164 95.4187 134.228 95.7547 134.334 96.064C134.452 96.3627 134.617 96.6133 134.83 96.816C135.054 97.0187 135.369 97.12 135.774 97.12ZM142.283 96.432C142.347 96.208 142.427 95.9307 142.523 95.6C142.619 95.2693 142.725 94.9067 142.843 94.512C142.96 94.1173 143.077 93.712 143.195 93.296C143.323 92.8693 143.445 92.4587 143.563 92.064C143.68 91.6693 143.787 91.3067 143.883 90.976C143.989 90.6347 144.075 90.3467 144.139 90.112H145.179L142.251 99.68C141.931 100.725 141.301 101.248 140.363 101.248H139.995V100.384H140.315C140.624 100.384 140.859 100.277 141.019 100.064C141.189 99.8613 141.328 99.568 141.435 99.184L141.819 97.904C141.381 96.6027 140.955 95.3067 140.539 94.016C140.133 92.7253 139.712 91.424 139.275 90.112H140.347C140.517 90.6773 140.688 91.2373 140.859 91.792C141.029 92.336 141.2 92.8853 141.371 93.44C141.413 93.6 141.472 93.8187 141.547 94.096C141.632 94.3627 141.717 94.6453 141.803 94.944C141.899 95.232 141.984 95.5147 142.059 95.792C142.133 96.0587 142.197 96.272 142.251 96.432H142.283ZM148.891 90.32C149.456 90.32 149.915 90.432 150.267 90.656C150.619 90.8693 150.885 91.1787 151.067 91.584C151.216 91.9253 151.312 92.3413 151.355 92.832C151.408 93.312 151.435 93.8027 151.435 94.304C151.435 94.848 151.403 95.3067 151.339 95.68C151.275 96.0427 151.163 96.384 151.003 96.704C150.768 97.216 150.432 97.5787 149.995 97.792C149.557 98.0053 149.093 98.112 148.603 98.112C148.027 98.112 147.552 98.0053 147.179 97.792C146.805 97.568 146.523 97.2693 146.331 96.896C146.021 96.32 145.867 95.3227 145.867 93.904C145.867 93.6693 145.872 93.424 145.883 93.168C145.893 92.9013 145.904 92.6507 145.915 92.416C145.925 92.1813 145.936 91.968 145.947 91.776C145.957 91.584 145.973 91.4293 145.995 91.312C146.037 90.736 146.117 90.2347 146.235 89.808C146.352 89.3707 146.507 88.9973 146.699 88.688C146.901 88.368 147.136 88.1013 147.403 87.888C147.68 87.664 148 87.472 148.363 87.312C148.704 87.152 149.056 87.008 149.419 86.88C149.792 86.752 150.229 86.5867 150.731 86.384L151.019 87.136C150.72 87.2747 150.443 87.392 150.187 87.488C149.941 87.584 149.707 87.6747 149.483 87.76C149.259 87.8453 149.045 87.936 148.843 88.032C148.651 88.128 148.459 88.24 148.267 88.368C147.765 88.7093 147.419 89.1253 147.227 89.616C147.045 90.096 146.933 90.6827 146.891 91.376C146.912 91.376 146.923 91.3813 146.923 91.392C147.168 91.0187 147.472 90.7467 147.835 90.576C148.197 90.4053 148.549 90.32 148.891 90.32ZM148.731 91.232C148.357 91.232 148.043 91.3173 147.787 91.488C147.531 91.6587 147.333 91.8987 147.195 92.208C147.067 92.464 146.981 92.7787 146.939 93.152C146.896 93.5253 146.875 93.9307 146.875 94.368C146.875 94.7947 146.891 95.168 146.923 95.488C146.955 95.7973 147.024 96.0693 147.131 96.304C147.269 96.6027 147.461 96.8267 147.707 96.976C147.952 97.1253 148.272 97.2 148.667 97.2C148.997 97.2 149.291 97.1253 149.547 96.976C149.803 96.8267 150.005 96.5973 150.155 96.288C150.347 95.9253 150.443 95.248 150.443 94.256C150.443 93.8507 150.427 93.4613 150.395 93.088C150.363 92.704 150.309 92.4107 150.235 92.208C150.117 91.8987 149.941 91.6587 149.707 91.488C149.472 91.3173 149.147 91.232 148.731 91.232ZM152.502 98.24C152.449 98.1227 152.39 97.9947 152.326 97.856C152.262 97.7067 152.204 97.5733 152.15 97.456C152.428 97.3067 152.657 97.152 152.838 96.992C153.02 96.832 153.164 96.6187 153.27 96.352C153.388 96.0747 153.468 95.728 153.51 95.312C153.553 94.8853 153.574 94.3307 153.574 93.648V90.112H158.246V98H157.238V90.976H154.518V94.176C154.518 94.816 154.476 95.3653 154.39 95.824C154.316 96.272 154.198 96.656 154.038 96.976C153.878 97.296 153.67 97.5573 153.414 97.76C153.158 97.952 152.854 98.112 152.502 98.24ZM160.877 97.072H162.541C163.139 97.072 163.565 96.9387 163.821 96.672C164.077 96.3947 164.205 96.0427 164.205 95.616C164.205 95.2427 164.077 94.9173 163.821 94.64C163.565 94.352 163.133 94.208 162.525 94.208L160.877 94.224V97.072ZM159.885 98V90.096H160.893V93.312H162.589C163.069 93.312 163.475 93.376 163.805 93.504C164.147 93.6213 164.419 93.7867 164.621 94C164.835 94.2027 164.984 94.4427 165.069 94.72C165.165 94.9973 165.213 95.2907 165.213 95.6C165.213 96.3253 165.005 96.9067 164.589 97.344C164.173 97.7813 163.501 98 162.573 98H159.885Z" fill="white"/>
<path d="M14.7808 11.7913L227.936 12.5588L213.755 60.9256L2.99215 55.7319L14.7808 11.7913Z" fill="white"/>
<path d="M21.6362 46.048L24.9692 45.817V22.618L21.8012 22.717L18.4682 25.621L20.4812 28.525L21.8672 27.535L21.6362 46.048ZM29.7309 41.791C29.6319 43.804 30.2259 45.289 32.3379 45.652C33.0969 45.652 33.8229 45.652 34.5489 45.685C35.7699 45.718 37.1559 45.751 38.0469 45.718C39.4659 45.718 40.4559 44.299 40.4559 42.913L40.5219 35.488C40.5219 31.627 40.5879 27.271 40.5879 25.819C40.5879 24.334 39.8619 23.509 39.1689 23.08C38.7399 22.849 38.2779 22.684 37.7499 22.585L36.1989 22.519C35.2419 22.486 33.9549 22.486 32.5359 22.519C31.1169 22.552 30.4569 23.377 30.0939 24.169C29.8959 24.631 29.7969 25.159 29.7639 25.753L29.7309 41.791ZM32.6679 26.809C32.5689 25.984 32.9979 25.621 33.7569 25.489C34.1859 25.522 34.5819 25.522 34.9779 25.522H36.6279C36.8919 25.522 37.0899 25.72 37.1889 25.885C37.2549 25.984 37.3209 26.116 37.3539 26.248L37.4859 33.607C37.5849 37.369 37.5189 41.263 37.5189 41.758C37.4199 42.286 37.2219 42.517 36.9579 42.616C36.7929 42.682 36.6279 42.715 36.4629 42.682L35.3409 42.748C34.7139 42.781 34.0869 42.781 33.7239 42.748C33.3609 42.715 33.1959 42.484 33.0969 42.253C33.0309 42.121 32.9979 41.989 32.9979 41.824L32.6679 26.809ZM43.6538 41.791C43.5548 43.804 44.1488 45.289 46.2608 45.652C47.0198 45.652 47.7458 45.652 48.4718 45.685C49.6928 45.718 51.0788 45.751 51.9698 45.718C53.3888 45.718 54.3788 44.299 54.3788 42.913L54.4448 35.488C54.4448 31.627 54.5108 27.271 54.5108 25.819C54.5108 24.334 53.7848 23.509 53.0918 23.08C52.6628 22.849 52.2008 22.684 51.6728 22.585L50.1218 22.519C49.1648 22.486 47.8778 22.486 46.4588 22.519C45.0398 22.552 44.3798 23.377 44.0168 24.169C43.8188 24.631 43.7198 25.159 43.6868 25.753L43.6538 41.791ZM46.5908 26.809C46.4918 25.984 46.9208 25.621 47.6798 25.489C48.1088 25.522 48.5048 25.522 48.9008 25.522H50.5508C50.8148 25.522 51.0128 25.72 51.1118 25.885C51.1778 25.984 51.2438 26.116 51.2768 26.248L51.4088 33.607C51.5078 37.369 51.4418 41.263 51.4418 41.758C51.3428 42.286 51.1448 42.517 50.8808 42.616C50.7158 42.682 50.5508 42.715 50.3858 42.682L49.2638 42.748C48.6368 42.781 48.0098 42.781 47.6468 42.748C47.2838 42.715 47.1188 42.484 47.0198 42.253C46.9538 42.121 46.9208 41.989 46.9208 41.824L46.5908 26.809ZM66.8266 41.791C66.7276 43.804 67.3216 45.289 69.4336 45.652C70.1926 45.652 70.9186 45.652 71.6446 45.685C72.8656 45.718 74.2516 45.751 75.1426 45.718C76.5616 45.718 77.5516 44.299 77.5516 42.913L77.6176 35.488C77.6176 31.627 77.6836 27.271 77.6836 25.819C77.6836 24.334 76.9576 23.509 76.2646 23.08C75.8356 22.849 75.3736 22.684 74.8456 22.585L73.2946 22.519C72.3376 22.486 71.0506 22.486 69.6316 22.519C68.2126 22.552 67.5526 23.377 67.1896 24.169C66.9916 24.631 66.8926 25.159 66.8596 25.753L66.8266 41.791ZM69.7636 26.809C69.6646 25.984 70.0936 25.621 70.8526 25.489C71.2816 25.522 71.6776 25.522 72.0736 25.522H73.7236C73.9876 25.522 74.1856 25.72 74.2846 25.885C74.3506 25.984 74.4166 26.116 74.4496 26.248L74.5816 33.607C74.6806 37.369 74.6146 41.263 74.6146 41.758C74.5156 42.286 74.3176 42.517 74.0536 42.616C73.8886 42.682 73.7236 42.715 73.5586 42.682L72.4366 42.748C71.8096 42.781 71.1826 42.781 70.8196 42.748C70.4566 42.715 70.2916 42.484 70.1926 42.253C70.1266 42.121 70.0936 41.989 70.0936 41.824L69.7636 26.809ZM80.7495 41.791C80.6505 43.804 81.2445 45.289 83.3565 45.652C84.1155 45.652 84.8415 45.652 85.5675 45.685C86.7885 45.718 88.1745 45.751 89.0655 45.718C90.4845 45.718 91.4745 44.299 91.4745 42.913L91.5405 35.488C91.5405 31.627 91.6065 27.271 91.6065 25.819C91.6065 24.334 90.8805 23.509 90.1875 23.08C89.7585 22.849 89.2965 22.684 88.7685 22.585L87.2175 22.519C86.2605 22.486 84.9735 22.486 83.5545 22.519C82.1355 22.552 81.4755 23.377 81.1125 24.169C80.9145 24.631 80.8155 25.159 80.7825 25.753L80.7495 41.791ZM83.6865 26.809C83.5875 25.984 84.0165 25.621 84.7755 25.489C85.2045 25.522 85.6005 25.522 85.9965 25.522H87.6465C87.9105 25.522 88.1085 25.72 88.2075 25.885C88.2735 25.984 88.3395 26.116 88.3725 26.248L88.5045 33.607C88.6035 37.369 88.5375 41.263 88.5375 41.758C88.4385 42.286 88.2405 42.517 87.9765 42.616C87.8115 42.682 87.6465 42.715 87.4815 42.682L86.3595 42.748C85.7325 42.781 85.1055 42.781 84.7425 42.748C84.3795 42.715 84.2145 42.484 84.1155 42.253C84.0495 42.121 84.0165 41.989 84.0165 41.824L83.6865 26.809ZM94.6723 41.791C94.5733 43.804 95.1673 45.289 97.2793 45.652C98.0383 45.652 98.7643 45.652 99.4903 45.685C100.711 45.718 102.097 45.751 102.988 45.718C104.407 45.718 105.397 44.299 105.397 42.913L105.463 35.488C105.463 31.627 105.529 27.271 105.529 25.819C105.529 24.334 104.803 23.509 104.11 23.08C103.681 22.849 103.219 22.684 102.691 22.585L101.14 22.519C100.183 22.486 98.8963 22.486 97.4773 22.519C96.0583 22.552 95.3983 23.377 95.0353 24.169C94.8373 24.631 94.7383 25.159 94.7053 25.753L94.6723 41.791ZM97.6093 26.809C97.5103 25.984 97.9393 25.621 98.6983 25.489C99.1273 25.522 99.5233 25.522 99.9193 25.522H101.569C101.833 25.522 102.031 25.72 102.13 25.885C102.196 25.984 102.262 26.116 102.295 26.248L102.427 33.607C102.526 37.369 102.46 41.263 102.46 41.758C102.361 42.286 102.163 42.517 101.899 42.616C101.734 42.682 101.569 42.715 101.404 42.682L100.282 42.748C99.6553 42.781 99.0283 42.781 98.6653 42.748C98.3023 42.715 98.1373 42.484 98.0383 42.253C97.9723 42.121 97.9393 41.989 97.9393 41.824L97.6093 26.809ZM126.821 36.412C126.788 35.092 126.293 34.333 125.798 33.838C125.501 33.574 125.204 33.376 124.841 33.244C123.653 33.013 122.3 32.914 120.617 33.013C120.584 30.637 120.452 28.393 120.683 25.456C123.29 25.687 124.973 25.555 126.821 25.522L126.755 22.354C123.983 22.255 121.079 22.189 117.614 22.42L117.251 45.619H124.412C125.501 45.619 126.128 45.025 126.491 44.398C126.689 44.035 126.821 43.606 126.887 43.144V40.768C126.887 39.415 126.854 37.765 126.821 36.412ZM123.653 42.847C123.059 43.342 120.551 43.408 120.551 43.21C120.551 42.385 120.749 35.851 120.782 35.785C120.914 35.653 122.036 35.62 122.366 35.686C122.729 35.752 123.059 35.851 123.356 36.016C123.95 36.313 123.917 36.775 124.049 37.303C124.148 37.798 124.511 42.121 123.653 42.847ZM138.293 23.08C137.864 22.849 137.402 22.684 136.874 22.585L135.323 22.519C134.366 22.486 133.079 22.486 131.66 22.519C130.241 22.552 129.581 23.377 129.218 24.169C129.02 24.631 128.921 25.159 128.888 25.753L128.855 41.791C128.756 43.804 129.35 45.289 131.462 45.652C132.221 45.652 132.947 45.652 133.673 45.685C134.894 45.718 136.28 45.751 137.171 45.718C138.59 45.718 139.58 44.299 139.58 42.913L139.646 35.488C139.646 31.627 139.712 27.271 139.712 25.819C139.712 24.334 138.986 23.509 138.293 23.08ZM136.643 41.23C136.577 41.593 136.511 41.923 136.412 42.22C136.148 42.715 135.389 43.144 134.333 43.144C132.155 43.144 131.99 42.847 131.99 41.263C131.99 40.537 132.056 26.809 132.056 26.314C132.056 24.73 132.188 24.433 134.366 24.433C135.455 24.433 136.016 24.499 136.28 24.994C136.379 25.291 136.412 26.017 136.445 26.38C136.445 26.38 136.577 28.954 136.577 32.98C136.577 36.28 136.643 41.23 136.643 41.23ZM142.342 45.718C142.243 45.817 142.969 45.784 143.662 45.685L145.081 45.52L145.279 36.742L148.381 36.94L149.074 45.388L151.813 45.322L151.879 22.387H149.503L148.513 34.234L145.015 34.036L144.388 22.882C143.959 22.882 143.53 22.882 143.167 22.849C142.54 22.849 141.88 22.816 141.781 22.816C141.583 22.816 142.474 45.586 142.342 45.718ZM156.9 35.026L153.501 45.652L156.57 46.114L163.764 22.882L161.124 22.585L158.418 30.142L156.108 22.189L153.501 22.651L156.9 35.026ZM175.435 22.552C174.577 22.552 170.815 23.08 168.274 23.707C166.987 24.004 166.36 24.598 165.997 25.093C165.799 25.39 165.7 25.72 165.667 26.05L165.271 41.791C165.535 44.662 167.152 45.949 170.155 45.685L175.963 45.157L175.765 42.385C175.105 42.484 174.478 42.55 173.851 42.616C172.795 42.715 171.508 42.814 170.716 42.814C169.099 42.814 168.868 42.352 168.439 41.659C168.043 40.9 168.01 31.33 168.142 29.053C168.241 27.898 168.637 27.337 169.033 27.04C169.264 26.875 169.528 26.776 169.825 26.743L175.27 26.083L175.435 22.552ZM187.217 23.08C186.788 22.849 186.326 22.684 185.798 22.585L184.247 22.519C183.29 22.486 182.003 22.486 180.584 22.519C179.165 22.552 178.505 23.377 178.142 24.169C177.944 24.631 177.845 25.159 177.812 25.753L177.779 41.791C177.68 43.804 178.274 45.289 180.386 45.652C181.145 45.652 181.871 45.652 182.597 45.685C183.818 45.718 185.204 45.751 186.095 45.718C187.514 45.718 188.504 44.299 188.504 42.913L188.57 35.488C188.57 31.627 188.636 27.271 188.636 25.819C188.636 24.334 187.91 23.509 187.217 23.08ZM185.567 41.23C185.501 41.593 185.435 41.923 185.336 42.22C185.072 42.715 184.313 43.144 183.257 43.144C181.079 43.144 180.914 42.847 180.914 41.263C180.914 40.537 180.98 26.809 180.98 26.314C180.98 24.73 181.112 24.433 183.29 24.433C184.379 24.433 184.94 24.499 185.204 24.994C185.303 25.291 185.336 26.017 185.369 26.38C185.369 26.38 185.501 28.954 185.501 32.98C185.501 36.28 185.567 41.23 185.567 41.23ZM200.175 35.026C199.746 34.795 199.284 34.63 198.723 34.531L194.532 33.607C194.763 33.64 195.027 33.64 195.357 33.64C195.918 33.64 196.743 33.64 197.931 33.541C199.086 33.442 199.845 32.914 200.274 32.419C200.505 32.122 200.703 31.792 200.835 31.429L200.934 29.647C200.967 28.558 200.967 27.073 200.835 25.456C200.67 23.872 199.746 23.113 198.855 22.75C198.327 22.519 197.733 22.42 197.073 22.453C195.093 22.354 192.915 22.486 190.836 22.783C190.539 30.01 190.539 37.369 191.166 45.916L194.103 45.784C195.72 45.685 197.535 45.652 198.69 45.553C199.779 45.52 200.373 45.157 200.67 44.794C200.835 44.596 200.967 44.365 201 44.134C201.066 43.243 201.132 42.385 201.231 41.527C201.363 40.075 201.462 38.359 201.561 37.204C201.66 36.049 200.934 35.422 200.175 35.026ZM194.532 23.971C194.565 23.971 194.565 23.938 194.598 23.938C195.423 23.773 196.578 24.169 196.644 25.126C196.677 25.423 196.743 28.459 196.644 29.218C196.578 29.779 196.215 30.736 195.621 31.033C195.324 31.165 194.466 31.198 194.466 31.198C194.466 31.198 194.499 23.971 194.532 23.971ZM197.205 39.613C197.172 40.207 197.106 40.801 197.04 41.395C196.974 42.055 196.875 42.781 196.545 43.342C196.215 43.87 194.499 43.837 194.499 43.837C194.499 43.837 194.202 37.402 194.466 36.148C194.499 36.082 195.885 36.115 196.281 36.445C197.139 37.204 197.238 38.524 197.205 39.613ZM208.413 19.681L208.479 23.08L204.882 22.453L204.123 25.885L207.654 27.007L206.697 30.505L209.832 31.198L211.218 27.205L213.297 30.769L215.838 29.185L214.254 25.687L217.224 24.4L216.003 21.595L212.604 22.717L211.845 19.483L208.413 19.681Z" fill="#E40713"/>
<path d="M38.9724 50.019L187.474 47.4569L178.595 77.301L38.9724 77.2688L38.9724 50.019Z" fill="white"/>
<path d="M54.299 70.3909C54.236 70.4539 54.698 70.4329 55.139 70.3699L56.042 70.2649L56.168 64.6789L58.142 64.8049L58.583 70.1809L60.326 70.1389L60.368 55.5439H58.856L58.226 63.0829L56 62.9569L55.601 55.8589C55.328 55.8589 55.055 55.8589 54.824 55.8379C54.425 55.8379 54.005 55.8169 53.942 55.8169C53.816 55.8169 54.383 70.3069 54.299 70.3909ZM67.0772 55.7329C66.1742 55.6699 64.2422 55.6699 63.1502 55.6699L61.8692 70.3489H63.6752C63.9902 68.2699 64.0322 66.2749 64.4312 64.6789L66.2372 64.9519C66.5732 66.0649 66.8462 69.0259 67.0142 70.3489H68.8202L67.0772 55.7329ZM66.0692 63.1039L64.6622 62.9359L64.8722 58.5679L65.4812 58.5889L66.0692 63.1039ZM76.525 55.7119L76.693 70.4749H78.541L78.583 64.0909L81.481 70.4329L83.14 69.1309L79.675 62.9989L83.455 56.9509L82.258 55.5019L78.457 61.6759L78.373 55.3759L76.525 55.7119ZM90.0108 55.7329C89.1078 55.6699 87.1758 55.6699 86.0838 55.6699L84.8028 70.3489H86.6088C86.9238 68.2699 86.9658 66.2749 87.3648 64.6789L89.1708 64.9519C89.5068 66.0649 89.7798 69.0259 89.9478 70.3489H91.7538L90.0108 55.7329ZM89.0028 63.1039L87.5958 62.9359L87.8058 58.5679L88.4148 58.5889L89.0028 63.1039ZM99.5086 57.4339C99.2566 54.8929 95.1406 55.4179 93.1666 55.6699L93.6706 70.3489H95.4346V64.7839C96.6946 64.8469 99.3406 63.9649 99.5086 62.2429C99.6766 60.6469 99.6766 59.0509 99.5086 57.4339ZM97.6816 61.2559C97.5976 61.5919 97.6186 61.9069 97.2406 62.0959C97.0516 62.1799 96.8416 62.2429 96.6106 62.2849C96.4006 62.3269 95.6866 62.3059 95.6026 62.2219C95.5816 62.1799 95.4556 58.0429 95.4556 57.4969C95.4556 57.3919 97.0516 57.4129 97.4296 57.7279C97.9756 58.1899 97.7446 60.9409 97.6816 61.2559ZM103.432 57.7279V70.3699H105.49C105.49 66.1909 105.238 61.8649 105.238 57.4759H108.325V57.2029C108.325 56.9509 108.283 56.5729 108.262 56.2579L108.22 55.6909L100.891 55.5649C100.828 55.9639 100.849 57.3499 100.849 57.7279H103.432ZM111.64 63.5869L109.477 70.3489L111.43 70.6429L116.008 55.8589L114.328 55.6699L112.606 60.4789L111.136 55.4179L109.477 55.7119L111.64 63.5869ZM125.492 70.3489L125.744 60.1429L128.327 65.3929H129.692L131.918 60.7519L132.065 70.3489L133.976 70.4749L133.409 55.5859H131.708L129.125 62.5999L125.534 55.5859L123.644 55.8589L123.77 70.3489H125.492ZM140.636 55.7329C139.733 55.6699 137.801 55.6699 136.709 55.6699L135.428 70.3489H137.234C137.549 68.2699 137.591 66.2749 137.99 64.6789L139.796 64.9519C140.132 66.0649 140.405 69.0259 140.573 70.3489H142.379L140.636 55.7329ZM139.628 63.1039L138.221 62.9359L138.431 58.5679L139.04 58.5889L139.628 63.1039ZM143.897 55.6279C143.834 60.3529 144.002 65.2249 144.149 70.3489H146.039V57.5179H150.218C150.281 57.0979 150.302 56.1949 150.302 55.6279H143.897ZM152.063 70.3909C152 70.4539 152.462 70.4329 152.903 70.3699L153.806 70.2649L153.932 64.6789L155.906 64.8049L156.347 70.1809L158.09 70.1389L158.132 55.5439H156.62L155.99 63.0829L153.764 62.9569L153.365 55.8589C153.092 55.8589 152.819 55.8589 152.588 55.8379C152.189 55.8379 151.769 55.8169 151.706 55.8169C151.58 55.8169 152.147 70.3069 152.063 70.3909ZM166.689 70.3489L166.878 55.6699L164.904 55.7539L162.006 65.3509L161.796 55.3759L159.738 55.6279L160.032 70.5169L162.174 70.4329L164.862 61.6759L164.547 70.3909L166.689 70.3489ZM170.884 57.7279V70.3699H172.942C172.942 66.1909 172.69 61.8649 172.69 57.4759H175.777V57.2029C175.777 56.9509 175.735 56.5729 175.714 56.2579L175.672 55.6909L168.343 55.5649C168.28 55.9639 168.301 57.3499 168.301 57.7279H170.884Z" fill="#004F91"/>
</svg>
