<svg width="91" height="49" viewBox="0 0 91 49" fill="none" xmlns="http://www.w3.org/2000/svg">
<path d="M9.26667 10.6599L86.7876 7.64103L84.7318 37.3206L3.90022 37.7809L9.26667 10.6599Z" fill="white"/>
<path d="M22.0705 30.73C22.0075 30.793 22.4695 30.772 22.9105 30.709L23.8135 30.604L23.9395 25.018L25.9135 25.144L26.3545 30.52L28.0975 30.478L28.1395 15.883H26.6275L25.9975 23.422L23.7715 23.296L23.3725 16.198C23.0995 16.198 22.8265 16.198 22.5955 16.177C22.1965 16.177 21.7765 16.156 21.7135 16.156C21.5875 16.156 22.1545 30.646 22.0705 30.73ZM35.7937 16.324C35.5207 16.177 35.2267 16.072 34.8907 16.009L33.9037 15.967C33.2947 15.946 32.4757 15.946 31.5727 15.967C30.6697 15.988 30.2497 16.513 30.0187 17.017C29.8927 17.311 29.8297 17.647 29.8087 18.025L29.7877 28.231C29.7247 29.512 30.1027 30.457 31.4467 30.688C31.9297 30.688 32.3917 30.688 32.8537 30.709C33.6307 30.73 34.5127 30.751 35.0797 30.73C35.9827 30.73 36.6127 29.827 36.6127 28.945L36.6547 24.22C36.6547 21.763 36.6967 18.991 36.6967 18.067C36.6967 17.122 36.2347 16.597 35.7937 16.324ZM34.7437 27.874C34.7017 28.105 34.6597 28.315 34.5967 28.504C34.4287 28.819 33.9457 29.092 33.2737 29.092C31.8877 29.092 31.7827 28.903 31.7827 27.895C31.7827 27.433 31.8247 18.697 31.8247 18.382C31.8247 17.374 31.9087 17.185 33.2947 17.185C33.9877 17.185 34.3447 17.227 34.5127 17.542C34.5757 17.731 34.5967 18.193 34.6177 18.424C34.6177 18.424 34.7017 20.062 34.7017 22.624C34.7017 24.724 34.7437 27.874 34.7437 27.874ZM40.2456 23.926L38.0826 30.688L40.0356 30.982L44.6136 16.198L42.9336 16.009L41.2116 20.818L39.7416 15.757L38.0826 16.051L40.2456 23.926ZM48.3931 18.067V30.709H50.4511C50.4511 26.53 50.1991 22.204 50.1991 17.815H53.2861V17.542C53.2861 17.29 53.2441 16.912 53.2231 16.597L53.1811 16.03L45.8521 15.904C45.7891 16.303 45.8101 17.689 45.8101 18.067H48.3931ZM60.7381 24.829C60.7171 23.989 60.4021 23.506 60.0871 23.191C59.8981 23.023 59.7091 22.897 59.4781 22.813C58.7221 22.666 57.8611 22.603 56.7901 22.666C56.7691 21.154 56.6851 19.726 56.8321 17.857C58.4911 18.004 59.5621 17.92 60.7381 17.899L60.6961 15.883C58.9321 15.82 57.0841 15.778 54.8791 15.925L54.6481 30.688H59.2051C59.8981 30.688 60.2971 30.31 60.5281 29.911C60.6541 29.68 60.7381 29.407 60.7801 29.113V27.601C60.7801 26.74 60.7591 25.69 60.7381 24.829ZM58.7221 28.924C58.3441 29.239 56.7481 29.281 56.7481 29.155C56.7481 28.63 56.8741 24.472 56.8951 24.43C56.9791 24.346 57.6931 24.325 57.9031 24.367C58.1341 24.409 58.3441 24.472 58.5331 24.577C58.9111 24.766 58.8901 25.06 58.9741 25.396C59.0371 25.711 59.2681 28.462 58.7221 28.924ZM64.3071 23.926L62.1441 30.688L64.0971 30.982L68.6751 16.198L66.9951 16.009L65.2731 20.818L63.8031 15.757L62.1441 16.051L64.3071 23.926ZM70.0397 16.051L70.2077 30.814H72.0557L72.0977 24.43L74.9957 30.772L76.6547 29.47L73.1897 23.338L76.9697 17.29L75.7727 15.841L71.9717 22.015L71.8877 15.715L70.0397 16.051Z" fill="#004F91"/>
</svg>
