<svg width="40" height="30" viewBox="0 0 40 30" fill="none" xmlns="http://www.w3.org/2000/svg">
<g clip-path="url(#clip0)">
<path d="M39.02 27.2C39.02 27.19 39.02 27.19 39.02 27.18C39.02 27.16 39.01 27.14 39.01 27.11C39.01 27.11 39.01 27.11 39.01 27.1C39.01 27.08 39 27.06 38.99 27.04C38.99 27.03 38.99 27.03 38.98 27.02C38.97 27 38.97 26.99 38.96 26.97V26.96L35.9 20.93V1.11C35.91 0.5 35.41 0 34.8 0H4.23C3.62 0 3.12 0.5 3.12 1.11V20.95L0.06 26.98V26.99C0.05 27 0.04 27.02 0.04 27.04C0.04 27.05 0.04 27.05 0.03 27.06C0.02 27.08 0.02 27.1 0.01 27.12C0.01 27.12 0.01 27.12 0.01 27.13C0.01 27.15 0 27.17 0 27.2C0 27.21 0 27.21 0 27.22C0 27.23 0 27.24 0 27.26V28.71C0 29.41 0.59 30 1.31 30H37.71C38.43 30 39.02 29.41 39.02 28.69V27.24C39.02 27.22 39.02 27.21 39.02 27.2ZM4.26 1.14H34.76V20.51H4.26V1.14ZM4.04 21.65H34.98L37.52 26.66H24.96L24.33 24.37C24.2 23.9 23.77 23.58 23.29 23.58H15.73C15.25 23.58 14.82 23.91 14.69 24.37L14.06 26.66H1.5L4.04 21.65ZM23.78 26.66H15.25L15.78 24.73H23.24L23.78 26.66ZM37.88 28.69C37.88 28.78 37.8 28.86 37.71 28.86H1.31C1.22 28.86 1.14 28.78 1.14 28.69V27.81H37.88V28.69Z" fill="#023F85"/>
<path d="M32.97 11.78C32.65 11.78 32.4 12.04 32.4 12.35V18.15H6.63001V12.35C6.63001 12.03 6.37001 11.78 6.06001 11.78C5.75001 11.78 5.49001 12.04 5.49001 12.35V18.39C5.49001 18.88 5.89001 19.29 6.39001 19.29H32.66C33.15 19.29 33.56 18.89 33.56 18.39V12.35C33.54 12.04 33.29 11.78 32.97 11.78Z" fill="#023F85"/>
<path d="M32.65 2.35999H6.38C5.89 2.35999 5.48 2.75999 5.48 3.25999V9.29999C5.48 9.61999 5.74 9.86999 6.05 9.86999C6.36 9.86999 6.63 9.61999 6.63 9.29999V3.49999H32.4V9.29999C32.4 9.61999 32.66 9.86999 32.97 9.86999C33.29 9.86999 33.54 9.60999 33.54 9.29999V3.25999C33.54 2.75999 33.14 2.35999 32.65 2.35999Z" fill="#023F85"/>
<path d="M23.81 8.76001C23.66 8.88001 23.58 9.06001 23.6 9.25001L24.16 14.39C24.19 14.69 24.47 14.91 24.77 14.88C24.87 14.87 24.97 14.83 25.05 14.77L25.92 14.09L26.95 15.38C27.14 15.62 27.49 15.66 27.73 15.47L29.48 14.12C29.72 13.93 29.76 13.59 29.57 13.35L28.54 12.06L29.41 11.38C29.65 11.19 29.69 10.85 29.5 10.61C29.44 10.53 29.35 10.47 29.25 10.43L24.32 8.67001C24.16 8.61001 23.96 8.64001 23.81 8.76001ZM27.95 11.13L27.43 11.53C27.19 11.72 27.15 12.06 27.34 12.3L28.37 13.59L27.5 14.27L26.47 12.98C26.28 12.74 25.93 12.7 25.69 12.89L25.17 13.29L24.8 10L27.95 11.13Z" fill="#023F85"/>
</g>
<defs>
<clipPath id="clip0">
<rect width="39.02" height="30" fill="white"/>
</clipPath>
</defs>
</svg>
