<svg width="238" height="81" viewBox="0 0 238 81" fill="none" xmlns="http://www.w3.org/2000/svg">
<path d="M67.0368 6.10829L182.934 6.52558L175.223 32.8237L60.627 29.9998L67.0368 6.10829Z" fill="white"/>
<path d="M48.0317 29.3608L196.535 26.86L187.978 67.4217L48.3271 66.4504L48.0317 29.3608Z" fill="white"/>
<path d="M76.7534 35.8999C75.8954 35.8999 72.1334 36.4279 69.5924 37.0549C68.3054 37.3519 67.6784 37.9459 67.3154 38.4409C67.1174 38.7379 67.0184 39.0679 66.9854 39.3979L66.5894 55.1389C66.8534 58.0099 68.4704 59.2969 71.4734 59.0329L77.2814 58.5049L77.0834 55.7329C76.4234 55.8319 75.7964 55.8979 75.1694 55.9639C74.1134 56.0629 72.8264 56.1619 72.0344 56.1619C70.4174 56.1619 70.1864 55.6999 69.7574 55.0069C69.3614 54.2479 69.3284 44.6779 69.4604 42.4009C69.5594 41.2459 69.9554 40.6849 70.3514 40.3879C70.5824 40.2229 70.8464 40.1239 71.1434 40.0909L76.5884 39.4309L76.7534 35.8999ZM81.9683 58.9999L82.3643 42.9619L86.4233 51.2119L88.5683 51.2119L92.0663 43.9189L92.2973 58.9999L95.3003 59.1979L94.4093 35.8009L91.7363 35.8009L87.6773 46.8229L82.0343 35.8009L79.0643 36.2299L79.2623 58.9999L81.9683 58.9999ZM105.195 36.0319C103.776 35.9329 100.74 35.9329 99.0239 35.9329L97.0109 58.9999L99.8489 58.9999C100.344 55.7329 100.41 52.5979 101.037 50.0899L103.875 50.5189C104.403 52.2679 104.832 56.9209 105.096 58.9999L107.934 58.9999L105.195 36.0319ZM103.611 47.6149L101.4 47.3509L101.73 40.4869L102.687 40.5199L103.611 47.6149ZM119.549 38.7049C119.153 34.7119 112.685 35.5369 109.583 35.9329L110.375 58.9999L113.147 58.9999L113.147 50.2549C115.127 50.3539 119.285 48.9679 119.549 46.2619C119.813 43.7539 119.813 41.2459 119.549 38.7049ZM116.678 44.7109C116.546 45.2389 116.579 45.7339 115.985 46.0309C115.688 46.1629 115.358 46.2619 114.995 46.3279C114.665 46.3939 113.543 46.3609 113.411 46.2289C113.378 46.1629 113.18 39.6619 113.18 38.8039C113.18 38.6389 115.688 38.6719 116.282 39.1669C117.14 39.8929 116.777 44.2159 116.678 44.7109ZM125.143 39.1669L125.143 59.0329L128.377 59.0329C128.377 52.4659 127.981 45.6679 127.981 38.7709L132.832 38.7709L132.832 38.3419C132.832 37.9459 132.766 37.3519 132.733 36.8569L132.667 35.9659L121.15 35.7679C121.051 36.3949 121.084 38.5729 121.084 39.1669L125.143 39.1669ZM146.4 43.5889C146.4 41.1799 144.618 39.6289 141.714 39.9919L141.615 35.9329L138.48 35.9329L138.414 40.2889C137.787 40.2559 135.642 40.3549 135.18 40.5199C134.355 40.8169 133.563 41.5099 133.563 43.0939L133.563 50.1889C133.53 50.9479 133.596 51.6409 133.827 52.2349C134.19 53.2579 136.632 54.2809 138.48 54.2479L138.381 56.5909C138.348 57.2179 138.315 57.7789 138.315 58.2079C138.282 58.4389 138.282 58.7029 138.282 58.9339C138.381 58.9339 139.074 58.9669 139.734 58.9999L141.054 59.0659L141.384 54.2479C142.011 54.3469 144.09 54.2809 144.585 54.0499C145.41 53.7199 146.334 52.5319 146.334 50.1229C146.433 45.1399 146.4 43.6879 146.4 43.5889ZM138.546 51.2119C138.315 51.4429 136.698 51.4099 136.665 51.0799C136.632 50.9149 136.632 43.5229 136.632 43.5229C137.028 43.3579 138.315 43.3249 138.447 43.4569C138.612 43.6549 138.546 50.7829 138.546 51.2119ZM143.232 51.1129C143.166 51.2449 143.067 51.3439 142.935 51.4099C142.869 51.4759 141.615 51.4099 141.615 51.2779C141.615 51.0799 141.78 43.3909 141.813 43.3579C141.813 43.3579 143.166 43.1269 143.265 43.6219C143.331 43.9519 143.331 44.2819 143.331 44.5789C143.331 45.0079 143.397 50.8489 143.232 51.1129ZM157.731 36.4279C157.302 36.1969 156.84 36.0319 156.312 35.9329L154.761 35.8669C153.804 35.8339 152.517 35.8339 151.098 35.8669C149.679 35.8999 149.019 36.7249 148.656 37.5169C148.458 37.9789 148.359 38.5069 148.326 39.1009L148.293 55.1389C148.194 57.1519 148.788 58.6369 150.9 58.9999C151.659 58.9999 152.385 58.9999 153.111 59.0329C154.332 59.0659 155.718 59.0989 156.609 59.0659C158.028 59.0659 159.018 57.6469 159.018 56.2609L159.084 48.8359C159.084 44.9749 159.15 40.6189 159.15 39.1669C159.15 37.6819 158.424 36.8569 157.731 36.4279ZM156.081 54.5779C156.015 54.9409 155.949 55.2709 155.85 55.5679C155.586 56.0629 154.827 56.4919 153.771 56.4919C151.593 56.4919 151.428 56.1949 151.428 54.6109C151.428 53.8849 151.494 40.1569 151.494 39.6619C151.494 38.0779 151.626 37.7809 153.804 37.7809C154.893 37.7809 155.454 37.8469 155.718 38.3419C155.817 38.6389 155.85 39.3649 155.883 39.7279C155.883 39.7279 156.015 42.3019 156.015 46.3279C156.015 49.6279 156.081 54.5779 156.081 54.5779ZM161.779 59.0659C161.68 59.1649 162.406 59.1319 163.099 59.0329L164.518 58.8679L164.716 50.0899L167.818 50.2879L168.511 58.7359L171.25 58.6699L171.316 35.7349L168.94 35.7349L167.95 47.5819L164.452 47.3839L163.825 36.2299C163.396 36.2299 162.967 36.2299 162.604 36.1969C161.977 36.1969 161.317 36.1639 161.218 36.1639C161.02 36.1639 161.911 58.9339 161.779 59.0659Z" fill="#E40713"/>
<path d="M99.627 12.3629L99.795 27.1259H101.643L101.685 20.7419L104.583 27.0839L106.242 25.7819L102.777 19.6499L106.557 13.6019L105.36 12.1529L101.559 18.3269L101.475 12.0269L99.627 12.3629ZM114.31 14.0849C114.058 11.5439 109.942 12.0689 107.968 12.3209L108.472 26.9999H110.236V21.4349C111.496 21.4979 114.142 20.6159 114.31 18.8939C114.478 17.2979 114.478 15.7019 114.31 14.0849ZM112.483 17.9069C112.399 18.2429 112.42 18.5579 112.042 18.7469C111.853 18.8309 111.643 18.8939 111.412 18.9359C111.202 18.9779 110.488 18.9569 110.404 18.8729C110.383 18.8309 110.257 14.6939 110.257 14.1479C110.257 14.0429 111.853 14.0639 112.231 14.3789C112.777 14.8409 112.546 17.5919 112.483 17.9069ZM117.771 20.2379L115.608 26.9999L117.561 27.2939L122.139 12.5099L120.459 12.3209L118.737 17.1299L117.267 12.0689L115.608 12.3629L117.771 20.2379ZM125.919 14.3789V27.0209H127.977C127.977 22.8419 127.725 18.5159 127.725 14.1269H130.812V13.8539C130.812 13.6019 130.77 13.2239 130.749 12.9089L130.707 12.3419L123.378 12.2159C123.315 12.6149 123.336 14.0009 123.336 14.3789H125.919ZM138.222 12.6359C137.949 12.4889 137.655 12.3839 137.319 12.3209L136.332 12.2789C135.723 12.2579 134.904 12.2579 134.001 12.2789C133.098 12.2999 132.678 12.8249 132.447 13.3289C132.321 13.6229 132.258 13.9589 132.237 14.3369L132.216 24.5429C132.153 25.8239 132.531 26.7689 133.875 26.9999C134.358 26.9999 134.82 26.9999 135.282 27.0209C136.059 27.0419 136.941 27.0629 137.508 27.0419C138.411 27.0419 139.041 26.1389 139.041 25.2569L139.083 20.5319C139.083 18.0749 139.125 15.3029 139.125 14.3789C139.125 13.4339 138.663 12.9089 138.222 12.6359ZM137.172 24.1859C137.13 24.4169 137.088 24.6269 137.025 24.8159C136.857 25.1309 136.374 25.4039 135.702 25.4039C134.316 25.4039 134.211 25.2149 134.211 24.2069C134.211 23.7449 134.253 15.0089 134.253 14.6939C134.253 13.6859 134.337 13.4969 135.723 13.4969C136.416 13.4969 136.773 13.5389 136.941 13.8539C137.004 14.0429 137.025 14.5049 137.046 14.7359C137.046 14.7359 137.13 16.3739 137.13 18.9359C137.13 21.0359 137.172 24.1859 137.172 24.1859ZM147.63 26.9999L147.819 12.3209L145.845 12.4049L142.947 22.0019L142.737 12.0269L140.679 12.2789L140.973 27.1679L143.115 27.0839L145.803 18.3269L145.488 27.0419L147.63 26.9999ZM147.126 9.52794L146.055 8.35194L143.976 9.84294L141.582 8.35194L141.078 9.84294L144.333 12.0479L147.126 9.52794Z" fill="#004F91"/>
</svg>
