<svg width="40" height="40" viewBox="0 0 40 40" fill="none" xmlns="http://www.w3.org/2000/svg">
<path d="M20.1083 9.18976C18.2077 9.18976 16.5838 10.0076 15.871 11.3235C15.7165 11.608 15.8224 11.9635 16.1069 12.1176C16.3913 12.272 16.7468 12.1661 16.9009 11.8817C17.4014 10.9583 18.6603 10.3613 20.1083 10.3613C21.5567 10.3613 22.8155 10.9583 23.316 11.8817C23.4222 12.0776 23.6236 12.1887 23.8315 12.1887C23.9258 12.1887 24.0216 12.1658 24.1101 12.1179C24.3945 11.9638 24.5001 11.6083 24.346 11.3235C23.6331 10.0076 22.0093 9.18976 20.1083 9.18976Z" fill="#023F85"/>
<path d="M26.0864 9.91968C26.1926 10.1153 26.3941 10.2264 26.6019 10.2264C26.6962 10.2264 26.792 10.2035 26.8805 10.1556C27.1649 10.0015 27.2705 9.64594 27.1164 9.36151C25.9485 7.20606 23.2633 5.86755 20.1083 5.86755C16.9537 5.86755 14.2685 7.20636 13.1006 9.36151C12.9465 9.64594 13.0521 10.0015 13.3365 10.1556C13.6209 10.3097 13.9764 10.2041 14.1306 9.91968C15.0934 8.14295 17.384 7.03912 20.1083 7.03912C22.833 7.03912 25.1236 8.14264 26.0864 9.91968Z" fill="#023F85"/>
<path d="M10.3998 8.61841C10.6845 8.77283 11.0397 8.66724 11.1942 8.38282C12.6395 5.71771 16.0553 4.06213 20.1087 4.06213C24.1617 4.06213 27.5775 5.71771 29.0232 8.38282C29.1291 8.57843 29.3305 8.68952 29.5386 8.68952C29.6329 8.68952 29.7284 8.66663 29.8172 8.61841C30.1017 8.4643 30.2072 8.10877 30.0528 7.82434C28.4024 4.78113 24.592 2.89056 20.1087 2.89056C15.6253 2.89056 11.8149 4.78113 10.1642 7.82434C10.0101 8.10877 10.1157 8.4643 10.3998 8.61841Z" fill="#023F85"/>
<path d="M31.3581 20.7586C32.1976 20.7586 32.8806 20.0747 32.8806 19.234C32.8806 18.3932 32.1976 17.7093 31.3581 17.7093C30.5176 17.7093 29.8334 18.3932 29.8334 19.234C29.8334 20.0747 30.5176 20.7586 31.3581 20.7586ZM31.3581 18.8809C31.5519 18.8809 31.7091 19.0393 31.7091 19.234C31.7091 19.4256 31.5485 19.5874 31.3581 19.5874C31.1634 19.5874 31.005 19.4287 31.005 19.234C31.005 19.0393 31.1637 18.8809 31.3581 18.8809Z" fill="#023F85"/>
<path d="M31.3581 22.5281C30.5176 22.5281 29.8334 23.2123 29.8334 24.053C29.8334 24.8938 30.5176 25.5777 31.3581 25.5777C32.1976 25.5777 32.8806 24.8938 32.8806 24.053C32.8806 23.2123 32.1976 22.5281 31.3581 22.5281ZM31.3581 24.4061C31.1634 24.4061 31.005 24.2477 31.005 24.053C31.005 23.8583 31.1634 23.6996 31.3581 23.6996C31.5485 23.6996 31.7091 23.8614 31.7091 24.053C31.7094 24.2477 31.5519 24.4061 31.3581 24.4061Z" fill="#023F85"/>
<path d="M30.4712 21.6434C30.4712 20.8029 29.7873 20.1187 28.9465 20.1187C28.1058 20.1187 27.4219 20.8026 27.4219 21.6434C27.4219 22.4841 28.1058 23.1683 28.9465 23.1683C29.7873 23.1683 30.4712 22.4841 30.4712 21.6434ZM28.9465 21.9968C28.7518 21.9968 28.5934 21.8384 28.5934 21.6434C28.5934 21.4487 28.7518 21.2903 28.9465 21.2903C29.1412 21.2903 29.2999 21.4487 29.2999 21.6434C29.2999 21.8384 29.1412 21.9968 28.9465 21.9968Z" fill="#023F85"/>
<path d="M33.7677 20.1187C32.9269 20.1187 32.2427 20.8026 32.2427 21.6434C32.2427 22.4841 32.9269 23.1683 33.7677 23.1683C34.6085 23.1683 35.2924 22.4841 35.2924 21.6434C35.2924 20.8029 34.6085 20.1187 33.7677 20.1187ZM33.7677 21.9968C33.573 21.9968 33.4143 21.8384 33.4143 21.6434C33.4143 21.4487 33.573 21.2903 33.7677 21.2903C33.9624 21.2903 34.1208 21.4487 34.1208 21.6434C34.1208 21.8384 33.9624 21.9968 33.7677 21.9968Z" fill="#023F85"/>
<path d="M14.5368 23.8859C13.0063 23.8859 11.7609 25.131 11.7609 26.6617C11.7609 28.1925 13.0063 29.4376 14.5368 29.4376C16.0675 29.4376 17.3127 28.1922 17.3127 26.6617C17.3127 25.131 16.0675 23.8859 14.5368 23.8859ZM14.5368 28.2664C13.6521 28.2664 12.9325 27.5464 12.9325 26.6617C12.9325 25.777 13.6521 25.0574 14.5368 25.0574C15.4215 25.0574 16.1414 25.777 16.1414 26.6617C16.1414 27.5464 15.4215 28.2664 14.5368 28.2664Z" fill="#023F85"/>
<path d="M39.7315 30.6342L36.9101 18.9874C36.5042 17.3123 35.6982 16.0355 34.5145 15.1923C34.2703 15.0183 34.0112 14.8648 33.7399 14.7324V14.4925C33.7399 13.2733 32.749 12.2815 31.5311 12.2815H30.2179C28.9984 12.2815 28.0066 13.2733 28.0066 14.4925V14.8309C27.5339 15.0885 27.1606 15.4025 26.9366 15.7495H21.2866C20.9631 15.7495 20.7007 16.0117 20.7007 16.3351C20.7007 16.6586 20.9631 16.9211 21.2866 16.9211H26.7221V18.118C26.7221 18.7793 26.185 19.3173 25.5252 19.3173H14.4748C13.8138 19.3173 13.2757 18.7793 13.2757 18.118V16.9211H18.5806C18.9041 16.9211 19.1663 16.6586 19.1663 16.3351C19.1663 16.0117 18.9041 15.7495 18.5806 15.7495H13.0612C12.8378 15.4031 12.4655 15.0894 11.9934 14.8318V14.4925C11.9934 13.2733 11.0016 12.2812 9.78209 12.2812H8.47136C7.25187 12.2812 6.26005 13.2733 6.26005 14.4925V14.7321C5.98936 14.8645 5.73118 15.0177 5.48735 15.191C4.30265 16.0339 3.49607 17.3114 3.08988 18.9874L0.268532 30.6339C-0.146812 32.3474 -0.0799786 33.797 0.466897 34.9426C0.956094 35.9668 1.80448 36.6898 2.92051 37.0328C5.31218 37.7683 8.11247 36.5408 8.91325 34.4061L10.2685 30.7962C10.4428 30.3317 10.581 30.2728 10.5826 30.2722C10.5984 30.2686 10.7046 30.2823 10.9061 30.4294C12.8039 32.1527 15.9122 32.0783 17.959 30.2924H22.0407C22.9877 31.1191 24.191 31.6086 25.455 31.6766C26.835 31.7508 28.1253 31.308 29.0936 30.4294C29.3207 30.2634 29.4156 30.2713 29.4165 30.2722C29.4177 30.2728 29.5557 30.3314 29.7311 30.7959L31.0843 34.4061C31.7276 36.1188 33.6572 37.2473 35.6299 37.247C36.1169 37.247 36.6068 37.1784 37.0804 37.0325C38.1961 36.6892 39.0442 35.9662 39.5331 34.9417C40.08 33.7964 40.1468 32.3471 39.7315 30.6342ZM30.2176 13.4528H31.5308C32.0395 13.4528 32.4631 13.8217 32.551 14.3066C32.0648 14.1885 31.5543 14.1263 31.0266 14.1245C31.0184 14.1245 31.0104 14.1245 31.0025 14.1245C30.368 14.1245 29.7488 14.2117 29.1864 14.3655C29.2496 13.8522 29.6875 13.4528 30.2176 13.4528ZM8.47136 13.4528H9.78209C10.3125 13.4528 10.7504 13.8522 10.8133 14.3658C10.2511 14.212 9.63164 14.1245 8.99718 14.1245C8.99046 14.1245 8.98375 14.1245 8.97704 14.1245C8.44816 14.126 7.93639 14.1882 7.44902 14.3066C7.53721 13.8217 7.96141 13.4528 8.47136 13.4528ZM36.7358 35.9128C35.1138 36.4121 32.821 35.6976 32.1814 33.9945L30.8276 30.3833C30.5646 29.6869 30.2097 29.2828 29.7427 29.1473C29.3149 29.0228 28.8525 29.1449 28.3685 29.509C28.3533 29.5206 28.3383 29.5331 28.3243 29.5459C26.817 30.932 24.281 30.8139 22.6715 29.2825C22.5626 29.1788 22.4179 29.1211 22.2678 29.1211H17.7322C17.5821 29.1211 17.4374 29.1788 17.3285 29.2825C15.7178 30.8148 13.1821 30.9332 11.676 29.5462C11.6617 29.5331 11.6467 29.5206 11.6312 29.509C11.1465 29.1443 10.6836 29.0228 10.2548 29.1477C9.78728 29.2838 9.43297 29.6884 9.17174 30.3845L7.81645 33.9945C7.17772 35.6976 4.88646 36.4121 3.26475 35.9134C1.44865 35.3546 0.771463 33.5312 1.40684 30.91L4.22819 19.2636C4.73783 17.1606 5.86943 16.149 6.99583 15.6784C7.04313 15.6659 7.0883 15.6479 7.13011 15.6244C7.80211 15.3687 8.46342 15.2975 8.98039 15.296C9.85503 15.2948 10.6094 15.4825 11.1603 15.723C11.1697 15.7272 11.1792 15.7318 11.1893 15.7358C11.6901 15.9589 12.0163 16.2247 12.1039 16.4276V18.118C12.1039 19.4251 13.1674 20.4886 14.4745 20.4886H25.5249C26.8307 20.4886 27.8934 19.4251 27.8934 18.118V16.4279C27.98 16.2274 28.2993 15.9653 28.7888 15.7437C28.8174 15.7333 28.8452 15.7217 28.8715 15.7074C29.4156 15.4752 30.1501 15.296 31.001 15.296H31.022C31.5384 15.2979 32.1991 15.3693 32.8702 15.625C32.9114 15.6479 32.9559 15.6656 33.0026 15.6781C34.1293 16.1484 35.2615 17.16 35.7712 19.2633L38.5925 30.91C39.2282 33.5306 38.5513 35.354 36.7358 35.9128Z" fill="#023F85"/>
<path d="M25.9217 23.8859C24.3909 23.8859 23.1458 25.131 23.1458 26.6617C23.1458 28.1925 24.3909 29.4376 25.9217 29.4376C27.4521 29.4376 28.6975 28.1922 28.6975 26.6617C28.6975 25.131 27.4521 23.8859 25.9217 23.8859ZM25.9217 28.2664C25.037 28.2664 24.3174 27.5464 24.3174 26.6617C24.3174 25.777 25.037 25.0574 25.9217 25.0574C26.8064 25.0574 27.526 25.777 27.526 26.6617C27.526 27.5464 26.8064 28.2664 25.9217 28.2664Z" fill="#023F85"/>
<path d="M10.4886 20.1166H10.3104V19.9384C10.3104 18.9474 9.50409 18.1412 8.51319 18.1412C7.52228 18.1412 6.716 18.9474 6.716 19.9384V20.1166H6.53778C5.54688 20.1166 4.74091 20.9229 4.74091 21.9138C4.74091 22.9047 5.54688 23.7109 6.53778 23.7109H6.716V23.8892C6.716 24.8801 7.52228 25.6863 8.51319 25.6863C9.50409 25.6863 10.3104 24.8801 10.3104 23.8892V23.7109H10.4886C11.4795 23.7109 12.2858 22.9047 12.2858 21.9138C12.2858 20.9229 11.4795 20.1166 10.4886 20.1166ZM10.4886 22.5394H9.72473C9.40125 22.5394 9.1388 22.8015 9.1388 23.125V23.8892C9.1388 24.234 8.85834 24.5148 8.51319 24.5148C8.16834 24.5148 7.88788 24.234 7.88788 23.8892V23.125C7.88788 22.8015 7.62543 22.5394 7.30194 22.5394H6.53809C6.19324 22.5394 5.91248 22.2586 5.91248 21.9138C5.91248 21.5689 6.19324 21.2882 6.53809 21.2882H7.30194C7.62543 21.2882 7.88788 21.0257 7.88788 20.7022V19.9384C7.88788 19.5932 8.16834 19.3127 8.51319 19.3127C8.85834 19.3127 9.1388 19.5932 9.1388 19.9384V20.7022C9.1388 21.0257 9.40125 21.2882 9.72473 21.2882H10.4886C10.8334 21.2882 11.1142 21.5689 11.1142 21.9138C11.1142 22.2586 10.8337 22.5394 10.4886 22.5394Z" fill="#023F85"/>
<path d="M18.4632 22.2845H17.6126C17.2892 22.2845 17.027 22.547 17.027 22.8705C17.027 23.194 17.2892 23.4561 17.6126 23.4561H18.4632C18.7867 23.4561 19.0488 23.194 19.0488 22.8705C19.0488 22.547 18.7867 22.2845 18.4632 22.2845Z" fill="#023F85"/>
<path d="M22.3874 22.2845H21.5348C21.2113 22.2845 20.9488 22.547 20.9488 22.8705C20.9488 23.194 21.2113 23.4561 21.5348 23.4561H22.3874C22.7109 23.4561 22.9731 23.194 22.9731 22.8705C22.9731 22.547 22.7109 22.2845 22.3874 22.2845Z" fill="#023F85"/>
<path d="M20.651 25.3539H19.8008C19.4773 25.3539 19.2148 25.6161 19.2148 25.9396C19.2148 26.2631 19.4773 26.5255 19.8008 26.5255H20.651C20.9748 26.5255 21.2369 26.2631 21.2369 25.9396C21.2369 25.6161 20.9748 25.3539 20.651 25.3539Z" fill="#023F85"/>
</svg>
