<svg width="18" height="30" viewBox="0 0 18 30" fill="none" xmlns="http://www.w3.org/2000/svg">
<g clip-path="url(#clip0)">
<path d="M14.3365 0H2.78846C1.25 0 0 1.25 0 2.78846V27.2115C0 28.75 1.25 30 2.78846 30H14.3365C15.875 30 17.125 28.75 17.125 27.2115V2.78846C17.125 1.25 15.875 0 14.3365 0ZM2.78846 1.15385H14.3365C15.2404 1.15385 15.9712 1.88462 15.9712 2.78846V21.9904H1.15385V2.78846C1.15385 1.88462 1.88462 1.15385 2.78846 1.15385ZM14.3365 28.8462H2.78846C1.88462 28.8462 1.15385 28.1154 1.15385 27.2115V23.1346H15.9712V27.2115C15.9712 28.1154 15.2404 28.8462 14.3365 28.8462Z" fill="#023F85"/>
<path d="M4.0577 17.7692C4.16347 17.7692 4.26924 17.7404 4.36539 17.6827L13.3654 11.9423C13.6346 11.7692 13.7115 11.4134 13.5385 11.1442C13.3654 10.875 13.0096 10.7981 12.7404 10.9711L3.75001 16.7115C3.48077 16.8846 3.40385 17.2404 3.57693 17.5096C3.6827 17.6731 3.86539 17.7692 4.0577 17.7692Z" fill="#023F85"/>
<path d="M4.0577 13.9231C4.16347 13.9231 4.26924 13.8942 4.36539 13.8365L13.3654 8.09616C13.6346 7.92309 13.7115 7.56732 13.5385 7.29809C13.3654 7.02885 13.0096 6.95193 12.7404 7.12501L3.75001 12.8654C3.48077 13.0385 3.40385 13.3942 3.57693 13.6635C3.6827 13.8269 3.86539 13.9231 4.0577 13.9231Z" fill="#023F85"/>
<path d="M5.3077 3.52885H11.8077C12.125 3.52885 12.3846 3.26923 12.3846 2.95192C12.3846 2.63462 12.125 2.375 11.8077 2.375H5.3077C4.99039 2.375 4.73077 2.63462 4.73077 2.95192C4.73077 3.26923 4.99039 3.52885 5.3077 3.52885Z" fill="#023F85"/>
<path d="M8.55769 24.3558C7.60577 24.3558 6.82692 25.1346 6.82692 26.0865C6.82692 27.0385 7.60577 27.8173 8.55769 27.8173C9.50961 27.8173 10.2885 27.0385 10.2885 26.0865C10.2885 25.1346 9.51923 24.3558 8.55769 24.3558ZM8.55769 26.6635C8.24038 26.6635 7.98077 26.4038 7.98077 26.0865C7.98077 25.7692 8.24038 25.5096 8.55769 25.5096C8.875 25.5096 9.13461 25.7692 9.13461 26.0865C9.13461 26.4038 8.875 26.6635 8.55769 26.6635Z" fill="#023F85"/>
</g>
<defs>
<clipPath id="clip0">
<rect width="17.125" height="30" fill="white"/>
</clipPath>
</defs>
</svg>
