<svg width="25" height="30" viewBox="0 0 25 30" fill="none" xmlns="http://www.w3.org/2000/svg">
<g clip-path="url(#clip0)">
<path d="M8.2047 30C4.90268 30 2.22483 27.3121 2.22483 24.0201V22.7819H1.97315C0.885906 22.7819 0 21.896 0 20.8087V9.19128C0 8.10403 0.885906 7.21812 1.97315 7.21812H2.22483V5.97987C2.22483 2.68792 4.91275 0 8.2047 0H17.5772C20.8792 0 23.557 2.68792 23.557 5.97987V12.6242H23.7987C24.1107 12.6242 24.3624 12.8758 24.3624 13.1879V16.7919C24.3624 17.104 24.1107 17.3557 23.7987 17.3557H23.557V24C23.557 27.302 20.8691 29.9799 17.5772 29.9799H8.2047V30ZM17.4966 24.0201C17.4966 25.2886 17.0336 26.5268 16.1678 27.594C15.8356 27.9966 15.453 28.3691 15.0302 28.6913L14.7886 28.8725H17.5772C20.245 28.8725 22.4195 26.698 22.4195 24.0302V17.3859H17.4966V24.0201ZM3.36242 24.0201C3.36242 26.6879 5.53691 28.8624 8.2047 28.8624H11.0134L10.7718 28.6812C10.3389 28.3591 9.95638 27.9866 9.61409 27.5839C8.73826 26.5168 8.27517 25.2886 8.27517 24.0201V22.7819H3.36242V24.0201ZM9.42282 24.0201C9.42282 26.2349 11.2047 27.9262 12.8658 28.5503C14.5872 27.9262 16.349 26.245 16.349 24.0201V17.3758H15.9463C15.6342 17.3758 15.3826 17.1242 15.3826 16.8121V13.2081C15.3826 12.896 15.6342 12.6443 15.9463 12.6443H16.349V6C16.349 3.95638 14.9295 2.05369 12.896 1.39933C10.802 2.01342 9.42282 3.85571 9.42282 5.97987V7.21812H9.98658C11.0738 7.21812 11.9597 8.10403 11.9597 9.19128V13.4497L12.0805 13.4396C12.453 13.4396 12.7047 13.6913 12.7047 14.0034V15.9966C12.7047 16.3087 12.453 16.5604 12.1409 16.5604L12.0302 16.5503L11.9698 16.6611V20.8087C11.9698 21.896 11.0839 22.7819 9.99664 22.7819H9.42282V24.0201ZM1.97315 8.35571C1.51007 8.35571 1.13758 8.72819 1.13758 9.19128V20.8087C1.13758 21.2718 1.51007 21.6443 1.97315 21.6443H9.97651C10.4396 21.6443 10.8121 21.2718 10.8121 20.8087V9.19128C10.8121 8.72819 10.4396 8.35571 9.97651 8.35571H1.97315ZM16.5201 16.2383H23.2248V13.7718H16.5201V16.2383ZM15.1711 1.31879C15.5537 1.62081 15.906 1.96309 16.198 2.33557C17.0436 3.40268 17.4966 4.66107 17.4966 5.97987V12.6242H22.4195V5.97987C22.4195 3.31208 20.245 1.13758 17.5772 1.13758H14.9396L15.1711 1.31879ZM8.2047 1.13758C5.53691 1.13758 3.36242 3.31208 3.36242 5.97987V7.21812H8.28524V5.97987C8.28524 4.15772 9.11074 2.45638 10.5503 1.31879L10.7819 1.13758H8.2047ZM5.97987 18.0101C5.83893 18.0101 5.69799 17.9597 5.59732 17.8591C5.50671 17.7685 5.35571 17.6477 5.18456 17.4966C4.05705 16.5302 3.0302 15.594 2.79866 14.8993C2.60738 14.3456 2.64765 13.7416 2.9094 13.2181C3.17114 12.6846 3.62416 12.2919 4.17785 12.1107C4.4094 12.0302 4.64094 11.9899 4.88255 11.9899C5.24497 11.9899 5.61745 12.0805 5.9396 12.2517C6.36242 12.0805 6.72483 11.9899 7.08725 11.9899C7.32886 11.9899 7.5604 12.0302 7.79195 12.1107C8.34564 12.302 8.79866 12.6946 9.0604 13.2181C9.32215 13.7416 9.36242 14.3456 9.17114 14.8993C8.9396 15.594 7.90268 16.5201 6.78523 17.4966C6.61409 17.6477 6.46309 17.7785 6.37248 17.8591C6.26175 17.9597 6.12081 18.0101 5.97987 18.0101ZM4.88255 13.1275C4.76175 13.1275 4.65101 13.1477 4.54027 13.1879C3.98658 13.3792 3.68456 13.9832 3.86577 14.547C4.00671 14.9597 5.10403 15.9362 5.9094 16.6409L5.97987 16.7013L6.05034 16.6409C6.86577 15.9362 7.95302 14.9597 8.09396 14.547C8.18456 14.2752 8.16443 13.9832 8.04362 13.7315C7.91275 13.4799 7.70134 13.2886 7.42953 13.198C7.31879 13.1577 7.20805 13.1376 7.08725 13.1376C6.8255 13.1376 6.56376 13.2383 6.37248 13.4094C6.27181 13.5 6.13087 13.5604 5.98993 13.5604C5.84899 13.5604 5.71812 13.5101 5.60738 13.4094C5.40604 13.2282 5.1443 13.1275 4.88255 13.1275Z" fill="#023F85"/>
</g>
<defs>
<clipPath id="clip0">
<rect width="24.3624" height="30" fill="white"/>
</clipPath>
</defs>
</svg>
