<svg width="20" height="30" viewBox="0 0 20 30" fill="none" xmlns="http://www.w3.org/2000/svg">
<g clip-path="url(#clip0)">
<path d="M16.3173 0H2.78846C1.25 0 0 1.25 0 2.78846V27.2115C0 28.75 1.25 30 2.78846 30H16.3269C17.8654 30 19.1154 28.75 19.1154 27.2115V2.78846C19.1058 1.25 17.8558 0 16.3173 0ZM2.78846 1.15385H16.3269C17.2308 1.15385 17.9615 1.88462 17.9615 2.78846V25.8365H1.15385V2.78846C1.15385 1.88462 1.88462 1.15385 2.78846 1.15385ZM16.3173 28.8462H2.78846C1.88462 28.8462 1.15385 28.1154 1.15385 27.2115V26.9808H17.9519V27.2115C17.9519 28.1154 17.2212 28.8462 16.3173 28.8462Z" fill="#023F85"/>
<path d="M3.85576 3.52885H15.25C15.5673 3.52885 15.8269 3.26923 15.8269 2.95192C15.8269 2.63462 15.5673 2.375 15.25 2.375H3.85576C3.53845 2.375 3.27884 2.63462 3.27884 2.95192C3.27884 3.26923 3.53845 3.52885 3.85576 3.52885Z" fill="#023F85"/>
<path d="M13.5673 13.0481L4.56731 18.7885C4.29808 18.9615 4.22116 19.3173 4.39423 19.5865C4.5 19.7596 4.69231 19.8558 4.88462 19.8558C4.99039 19.8558 5.09616 19.8269 5.19231 19.7692L14.1923 14.0289C14.4615 13.8558 14.5385 13.5 14.3654 13.2308C14.1923 12.9519 13.8365 12.875 13.5673 13.0481Z" fill="#023F85"/>
<path d="M13.5673 9.20195L4.56731 14.9423C4.29808 15.1154 4.22116 15.4712 4.39423 15.7404C4.5 15.9135 4.69231 16.0096 4.88462 16.0096C4.99039 16.0096 5.09616 15.9808 5.19231 15.9231L14.1923 10.1827C14.4615 10.0096 14.5385 9.65388 14.3654 9.38465C14.1923 9.1058 13.8365 9.02888 13.5673 9.20195Z" fill="#023F85"/>
</g>
<defs>
<clipPath id="clip0">
<rect width="19.1058" height="30" fill="white"/>
</clipPath>
</defs>
</svg>
