<svg width="167" height="56" viewBox="0 0 167 56" fill="none" xmlns="http://www.w3.org/2000/svg">
<path d="M8.32399 14.4513L164.354 12.0523L158.896 41.7767L2.3746 41.4878L8.32399 14.4513Z" fill="white"/>
<path d="M61.9646 19.9413C61.4186 19.9413 59.0246 20.2773 57.4076 20.6763C56.5886 20.8653 56.1896 21.2433 55.9586 21.5583C55.8326 21.7473 55.7696 21.9573 55.7486 22.1673L55.4966 32.1843C55.6646 34.0113 56.6936 34.8303 58.6046 34.6623L62.3006 34.3263L62.1746 32.5623C61.7546 32.6253 61.3556 32.6673 60.9566 32.7093C60.2846 32.7723 59.4656 32.8353 58.9616 32.8353C57.9326 32.8353 57.7856 32.5413 57.5126 32.1003C57.2606 31.6173 57.2396 25.5273 57.3236 24.0783C57.3866 23.3433 57.6386 22.9863 57.8906 22.7973C58.0376 22.6923 58.2056 22.6293 58.3946 22.6083L61.8596 22.1883L61.9646 19.9413ZM68.8809 20.0253C67.9779 19.9623 66.0459 19.9623 64.9539 19.9623L63.6729 34.6413H65.4789C65.7939 32.5623 65.8359 30.5673 66.2349 28.9713L68.0409 29.2443C68.3769 30.3573 68.6499 33.3183 68.8179 34.6413H70.6239L68.8809 20.0253ZM67.8729 27.3963L66.4659 27.2283L66.6759 22.8603L67.2849 22.8813L67.8729 27.3963ZM73.9477 34.6413L74.1997 24.4353L76.7827 29.6853H78.1477L80.3737 25.0443L80.5207 34.6413L82.4317 34.7673L81.8647 19.8783H80.1637L77.5807 26.8923L73.9897 19.8783L72.0997 20.1513L72.2257 34.6413H73.9477ZM90.0368 20.2773C89.7638 20.1303 89.4698 20.0253 89.1338 19.9623L88.1468 19.9203C87.5378 19.8993 86.7188 19.8993 85.8158 19.9203C84.9128 19.9413 84.4928 20.4663 84.2618 20.9703C84.1358 21.2643 84.0728 21.6003 84.0518 21.9783L84.0308 32.1843C83.9678 33.4653 84.3458 34.4103 85.6898 34.6413C86.1728 34.6413 86.6348 34.6413 87.0968 34.6623C87.8738 34.6833 88.7558 34.7043 89.3228 34.6833C90.2258 34.6833 90.8558 33.7803 90.8558 32.8983L90.8978 28.1733C90.8978 25.7163 90.9398 22.9443 90.9398 22.0203C90.9398 21.0753 90.4778 20.5503 90.0368 20.2773ZM88.9868 31.8273C88.9448 32.0583 88.9028 32.2683 88.8398 32.4573C88.6718 32.7723 88.1888 33.0453 87.5168 33.0453C86.1308 33.0453 86.0258 32.8563 86.0258 31.8483C86.0258 31.3863 86.0678 22.6503 86.0678 22.3353C86.0678 21.3273 86.1518 21.1383 87.5378 21.1383C88.2308 21.1383 88.5878 21.1803 88.7558 21.4953C88.8188 21.6843 88.8398 22.1463 88.8608 22.3773C88.8608 22.3773 88.9448 24.0153 88.9448 26.5773C88.9448 28.6773 88.9868 31.8273 88.9868 31.8273ZM92.5357 20.0043L92.7037 34.7673H94.5517L94.5937 28.3833L97.4917 34.7253L99.1507 33.4233L95.6857 27.2913L99.4657 21.2433L98.2687 19.7943L94.4677 25.9683L94.3837 19.6683L92.5357 20.0043ZM106.022 20.0253C105.119 19.9623 103.187 19.9623 102.095 19.9623L100.814 34.6413H102.62C102.935 32.5623 102.977 30.5673 103.376 28.9713L105.182 29.2443C105.518 30.3573 105.791 33.3183 105.959 34.6413H107.765L106.022 20.0253ZM105.014 27.3963L103.607 27.2283L103.817 22.8603L104.426 22.8813L105.014 27.3963ZM111.368 22.0203V34.6623H113.426C113.426 30.4833 113.174 26.1573 113.174 21.7683H116.261V21.4953C116.261 21.2433 116.219 20.8653 116.198 20.5503L116.156 19.9833L108.827 19.8573C108.764 20.2563 108.785 21.6423 108.785 22.0203H111.368Z" fill="#004F91"/>
</svg>
