<svg width="199" height="53" viewBox="0 0 199 53" fill="none" xmlns="http://www.w3.org/2000/svg">
<path d="M186.808 41.5541L2.3639 37.6287L11.5705 11.1934L196.345 17.5476L186.808 41.5541Z" fill="#FFF021"/>
<path d="M17.168 30.9335L23.4626 31.1941L23.5277 29.6205L19.2684 29.4441C19.2813 28.625 19.1446 27.3582 19.1784 26.5399L19.1889 26.2881L23.1552 25.9269L23.2204 24.3533L19.2757 24.1899C19.2371 23.5998 19.1215 19.2864 19.2846 17.8849L24.0055 18.0804L24.0707 16.5067C21.9725 16.4199 19.5849 16.2159 17.4823 16.2339L17.168 30.9335ZM34.4924 24.5047C34.8517 24.4565 35.1498 24.3638 35.4287 24.2282C35.9208 24.0174 36.3561 23.6571 36.4022 23.0495C36.4248 22.5039 36.5923 20.9976 36.7554 19.5961C36.8522 18.7804 36.9517 17.9018 37.0965 16.941L35.2921 16.8663L34.5373 22.4048C34.4666 22.591 34.3547 22.7545 34.2227 22.8962C33.9815 23.1384 33.6765 23.399 33.193 23.4C32.7708 23.4456 32.4989 23.4133 32.3301 23.4273C32.2244 23.444 32.1614 23.4414 32.0985 23.4388L32.1098 20.1184C32.1155 18.4582 32.1422 16.7989 32.143 16.7779C32.1439 16.7569 31.6202 16.7142 31.0957 16.6925L30.0466 16.6491L29.6838 23.3808L28.0716 23.23C27.9256 23.2029 27.7805 23.1549 27.6799 23.0456C27.4561 22.8682 27.3205 22.5894 27.2845 21.9363C27.2518 20.6949 27.7736 16.7231 27.7316 16.7214L25.5285 16.6301L25.2835 22.5471C25.267 22.9457 25.3362 23.3059 25.47 23.6267C25.6983 24.2037 26.1784 24.791 27.204 24.8965C25.7466 25.0674 25.1561 26.6403 25.1956 27.2094C25.2203 28.1352 25.1987 29.1642 25.1019 29.9799L24.9615 31.3403L26.9757 31.4237L27.1278 27.7518C27.1627 27.417 27.1958 27.1241 27.2692 26.8749C27.3923 26.4386 27.6204 26.0067 28.0392 26.0451C28.4579 26.0834 28.8138 26.1192 29.0655 26.1296C29.2116 26.1567 29.3584 26.1627 29.4633 26.1671L29.31 31.3942L31.048 31.5503L31.6786 25.9646L33.525 26.041C33.713 26.0698 33.8791 26.1187 34.0234 26.1877C34.2691 26.345 34.5131 26.5443 34.4319 26.9823C34.3507 27.4203 34.219 28.5709 34.1134 29.5964C34.0253 30.2023 33.9564 30.851 33.9068 31.5425L35.6028 31.6968L36.2232 26.8673C36.3104 26.2824 35.9638 24.5026 34.4924 24.5047ZM38.3246 31.8095L44.6192 32.0701L44.6844 30.4965L40.425 30.3201C40.4379 29.5009 40.3012 28.2342 40.3351 27.4159L40.3455 27.1641L44.3119 26.8029L44.377 25.2292L40.4324 25.0659C40.3938 24.4758 40.2781 20.1623 40.4413 18.7609L45.1622 18.9564L45.2274 17.3827C43.1292 17.2958 40.7416 17.0919 38.639 17.1099L38.3246 31.8095ZM46.4766 32.1891C46.411 32.2494 46.8735 32.2475 47.3167 32.2028L48.2233 32.1353L48.5803 26.5593L50.5474 26.7668L50.7656 32.1565L52.5088 32.1866L53.1546 17.6058L51.6439 17.5433L50.7025 25.0498L48.4837 24.8318L48.3786 17.7234C48.1059 17.7121 47.8331 17.7008 47.6032 17.6702C47.2045 17.6537 46.7857 17.6154 46.7228 17.6128C46.5969 17.6076 46.564 32.1086 46.4766 32.1891ZM54.4407 32.4768L60.7353 32.7374L60.8005 31.1637L56.5411 30.9874C56.554 30.1682 56.4173 28.9015 56.4512 28.0832L56.4616 27.8314L60.428 27.4702L60.4931 25.8965L56.5485 25.7332C56.5099 25.1431 56.3942 20.8296 56.5573 19.4282L61.2783 19.6236L61.3434 18.05C59.2452 17.9631 56.8576 17.7592 54.7551 17.7772L54.4407 32.4768ZM71.1117 31.1703C71.2051 27.3909 71.3834 23.5941 71.4913 18.4491L66.1374 18.3115L66.0865 21.0628C66.045 22.5743 65.9755 24.2529 65.8507 25.2356C65.7259 26.2183 65.2053 27.6259 64.7151 28.8037C64.4347 29.4857 64.1315 30.2087 63.7864 30.9301L62.1061 30.9025C62.0162 31.5504 61.9482 32.1781 61.9842 32.8311L61.9999 32.9579L61.995 34.0927C61.9917 34.681 61.9883 35.2694 61.9857 35.3323L63.958 35.414L64.0999 33.0028L71.6342 33.2727L71.5797 35.6035L73.5538 35.6432L73.8368 31.3462L71.1117 31.1703ZM68.8264 31.0337C68.8264 31.0337 66.1748 31.113 66.1381 30.9854C66.0908 30.6051 67.0312 29.7193 67.6115 25.3505C67.7022 24.6817 67.7938 20.4399 67.8191 20.3358C67.945 20.341 68.8035 20.4186 69.0352 20.4072C69.0641 20.7237 68.8264 31.0337 68.8264 31.0337ZM75.4335 33.346L81.7281 33.6066L81.7932 32.0329L77.5339 31.8566C77.5468 31.0374 77.4101 29.7707 77.4439 28.9524L77.4544 28.7006L81.4207 28.3394L81.4859 26.7657L77.5412 26.6024C77.5026 26.0123 77.387 21.6988 77.5501 20.2974L82.271 20.4928L82.3362 18.9192C80.238 18.8323 77.8504 18.6283 75.7478 18.6464L75.4335 33.346ZM84.5716 33.7664C86.1662 33.8324 88.0978 31.8526 88.2852 29.8636L88.692 21.0529L90.8322 21.1415L90.3364 34.1312L92.5185 34.2215L92.7376 19.2868L86.7979 19.0829C86.7267 20.8034 86.6607 22.398 86.6217 23.8467C86.5192 26.3226 86.4298 28.9881 86.3994 29.7225C86.3369 31.2332 85.0878 31.9592 84.2485 31.9244L83.1347 31.9203L82.9332 33.7406L84.5716 33.7664ZM99.9815 27.6997C99.8144 27.1673 99.4585 26.6271 98.6812 26.6159C97.8621 26.603 97.3786 26.604 97.0639 26.591L96.6233 26.5728L96.6913 19.3454L94.99 19.317L94.1074 34.0351L97.8405 34.2317C98.198 34.2255 98.5372 34.1554 98.8161 34.0198C99.3082 33.809 99.7855 33.4505 99.8823 32.6348C99.9354 31.8593 100.017 30.8959 100.049 30.1195L100.105 28.7767C100.122 28.378 100.073 28.0187 99.9815 27.6997ZM98.1784 32.6693C97.7877 32.9684 96.1922 32.9234 96.1965 32.8185C96.2191 32.2729 96.5162 28.1447 96.5389 28.1036C96.6263 28.0231 97.3405 28.0317 97.5486 28.0823C97.7777 28.1339 97.9849 28.2055 98.1703 28.2972C98.5401 28.5017 98.5061 28.8156 98.5761 29.1548C98.626 29.4721 98.743 32.2303 98.1784 32.6693ZM101.71 34.4759C101.644 34.5363 102.106 34.5344 102.55 34.4897L103.456 34.4222L103.813 28.8461L105.78 29.0537L105.999 34.4433L107.742 34.4735L108.388 19.8927L106.877 19.8302L105.935 27.3366L103.717 27.1187L103.612 20.0102C103.339 19.9989 103.066 19.9877 102.836 19.9571C102.437 19.9406 102.019 19.9023 101.956 19.8996C101.83 19.8944 101.797 34.3955 101.71 34.4759ZM115.716 28.9396C115.667 28.6013 115.553 28.3023 115.396 28.0436C115.099 27.59 114.614 27.1285 113.691 27.0903C112.767 27.052 112.305 27.0539 112.073 27.0653C111.925 27.0802 111.862 27.0776 111.841 27.0977L112.011 19.9377L110.09 20.1314L109.403 34.7104L113.286 34.8291C113.686 34.8037 114.068 34.7354 114.409 34.6024C114.985 34.3951 115.527 34.0181 115.62 33.2864C115.671 32.5529 115.695 31.4819 115.711 30.5788L115.716 28.9396ZM113.52 33.2415C113.129 33.5406 111.534 33.4955 111.538 33.3906C111.561 32.8451 111.858 28.7168 111.88 28.6757C111.968 28.5953 112.682 28.6038 112.89 28.6545C113.119 28.706 113.326 28.7776 113.512 28.8694C113.882 29.0739 113.848 29.3877 113.918 29.7269C113.968 30.0442 114.085 32.8024 113.52 33.2415ZM119.845 20.5773L117.518 20.4389L117.267 35.1201L119.283 35.1615L119.845 20.5773ZM121.184 35.2402L127.479 35.5009L127.544 33.9272L123.285 33.7509C123.298 32.9317 123.161 31.6649 123.195 30.8466L123.205 30.5949L127.172 30.2336L127.237 28.66L123.292 28.4967C123.253 27.9066 123.138 23.5931 123.301 22.1916L128.022 22.3871L128.087 20.8134C125.989 20.7266 123.601 20.5226 121.499 20.5407L121.184 35.2402ZM137.452 23.1769L140.913 23.3412C140.572 28.0351 140.33 32.3548 140.142 36.3825L141.885 36.4126L142.531 21.8318L135.827 21.3021C135.701 21.2969 135.668 35.7979 135.581 35.8784C135.515 35.9387 135.978 35.9368 136.421 35.8921L137.328 35.8246L137.452 23.1769ZM150.367 23.5225C150.22 20.9732 146.086 21.3275 144.103 21.4976L144 36.1849L145.762 36.2579L145.992 30.6976C147.249 30.8127 149.929 30.0409 150.168 28.3273C150.402 26.7397 150.468 25.145 150.367 23.5225ZM148.383 27.2656C148.286 27.5978 148.294 27.9134 147.908 28.0866C147.716 28.1628 147.503 28.217 147.271 28.2494C147.059 28.2827 146.347 28.2322 146.266 28.1448C146.247 28.1019 146.292 23.9633 146.315 23.4177C146.319 23.3128 147.913 23.3998 148.278 23.7302C148.804 24.2144 148.459 26.9535 148.383 27.2656ZM158.285 36.7764L159.081 22.1178L157.105 22.12L153.813 31.5889L154.016 21.6138L151.949 21.7804L151.627 36.6688L153.77 36.6735L156.818 28.0352L156.143 36.7297L158.285 36.7764ZM165.427 30.6826C166.083 30.5627 166.413 30.219 166.574 29.8684C166.667 29.662 166.719 29.433 166.749 29.203C166.795 28.5954 166.82 27.9869 166.846 27.3785C166.888 26.3503 166.94 25.0914 166.916 24.1656C166.89 23.2608 166.363 22.7976 165.806 22.5433C165.496 22.4044 165.121 22.3258 164.723 22.3093L160.635 22.5604L160.653 24.1375L162.189 24.117C163.009 24.0879 163.933 24.1262 164.374 24.1234C164.794 24.1408 165.058 24.3619 165.216 24.5997C165.315 24.7509 165.372 24.9004 165.429 25.0499C165.451 25.0088 165.471 25.0516 165.487 25.1784C165.54 25.4118 165.518 25.9363 165.529 27.1978C165.54 28.4594 164.863 29.0619 164.2 29.3497C163.814 29.5229 163.369 29.6096 162.886 29.6106L162.896 31.3975C164.011 31.3806 164.814 32.2756 164.856 32.8028C164.87 32.9505 164.884 33.1192 164.877 33.3081C164.864 33.6228 164.824 34.0626 164.658 34.5391C164.491 35.0156 164.062 35.208 163.701 35.2982C163.468 35.3516 163.236 35.363 163.005 35.3534L160.121 34.9608L159.919 36.802L162.015 36.9308C163.148 36.9777 164.427 37.0727 165.077 37.0996C165.727 37.1266 166.034 36.824 166.195 36.4944C166.287 36.309 166.337 36.1009 166.348 35.8491C166.366 35.4085 166.384 34.9679 166.424 34.5281C166.454 33.7938 166.512 32.8924 166.537 32.3049C166.59 31.004 165.863 30.8057 165.427 30.6826ZM174.386 31.3688C174.337 31.0305 174.223 30.7315 174.066 30.4728C173.77 30.0192 173.284 29.5577 172.361 29.5195C171.438 29.4812 170.975 29.4831 170.744 29.4945C170.596 29.5094 170.533 29.5068 170.511 29.5269L170.681 22.3669L168.761 22.5606L168.073 37.1396L171.956 37.2584C172.357 37.2329 172.738 37.1646 173.08 37.0316C173.656 36.8243 174.197 36.4473 174.29 35.7156C174.342 34.9821 174.365 33.9111 174.381 33.008L174.386 31.3688ZM172.19 35.6707C171.8 35.9698 170.204 35.9247 170.208 35.8198C170.231 35.2743 170.528 31.146 170.551 31.1049C170.638 31.0245 171.352 31.033 171.561 31.0837C171.79 31.1352 171.997 31.2068 172.182 31.2986C172.552 31.5031 172.518 31.8169 172.588 32.1561C172.638 32.4734 172.755 35.2316 172.19 35.6707ZM178.516 23.0065L176.188 22.8681L175.938 37.5493L177.954 37.5907L178.516 23.0065ZM182.3 28.3546C182.279 28.3538 182.34 27.8939 182.381 27.4122L182.484 26.4496L180.54 26.201L180.454 28.2782L182.3 28.3546ZM180.08 35.7871L179.998 36.7506L179.896 37.6922L181.84 37.9408L181.926 35.8636L180.08 35.7871Z" fill="#004F91"/>
</svg>
