<svg width="164" height="105" viewBox="0 0 164 105" fill="none" xmlns="http://www.w3.org/2000/svg">
<path d="M152.499 51.4912L8.72636 52.359L14.7718 22.733L158.906 24.5539L152.499 51.4912Z" fill="white"/>
<path d="M32.7378 40.0821C32.1288 41.5941 31.2468 43.6101 30.5748 45.2481C30.7848 45.4581 31.8558 45.7101 32.1498 45.8361L34.7328 40.3131V45.5421H36.4758C36.4758 42.5811 37.1268 33.7821 36.9588 30.9261C36.1188 30.8631 34.2078 30.8631 33.2418 30.8631C32.2548 30.8631 30.7428 31.5981 30.7428 32.8581V37.3311C30.7428 38.5491 31.6878 39.5361 32.7378 40.0821ZM32.6748 37.3521C32.5908 36.9531 32.3808 33.4881 32.9268 32.9001C33.2838 32.5011 34.9008 32.4801 34.9008 32.6271C34.9008 33.2991 34.7748 38.5281 34.7328 38.5701C34.6488 38.6751 33.9348 38.6961 33.7248 38.6541C33.5148 38.5911 33.3048 38.5071 33.1158 38.4021C32.7168 38.1501 32.7378 37.7721 32.6748 37.3521ZM39.0919 45.5841C39.0289 45.6471 39.4909 45.6261 39.9319 45.5631L40.8349 45.4581L40.9609 39.8721L42.9349 39.9981L43.3759 45.3741L45.1189 45.3321L45.1609 30.7371H43.6489L43.0189 38.2761L40.7929 38.1501L40.3939 31.0521C40.1209 31.0521 39.8479 31.0521 39.6169 31.0311C39.2179 31.0311 38.7979 31.0101 38.7349 31.0101C38.6089 31.0101 39.1759 45.5001 39.0919 45.5841ZM55.6501 43.5471C55.5871 39.7671 55.6081 35.9661 55.5031 30.8211L50.1481 30.9051L50.2111 33.6561C50.2321 35.1681 50.2321 36.8481 50.1481 37.8351C50.0641 38.8221 49.6021 40.2501 49.1611 41.4471C48.9091 42.1401 48.6361 42.8751 48.3211 43.6101L46.6411 43.6521C46.5781 44.3031 46.5361 44.9331 46.5991 45.5841L46.6201 45.7101L46.6621 46.8441C46.6831 47.4321 46.7041 48.0201 46.7041 48.0831H48.6781L48.7201 45.6681L56.2591 45.6261L56.3011 47.9571L58.2751 47.9151L58.3801 43.6101L55.6501 43.5471ZM53.3611 43.5051C53.3611 43.5051 50.7151 43.6941 50.6731 43.5681C50.6101 43.1901 51.5131 42.2661 51.9121 37.8771C51.9751 37.2051 51.8911 32.9631 51.9121 32.8581C52.0381 32.8581 52.8991 32.9001 53.1301 32.8791C53.1721 33.1941 53.3611 43.5051 53.3611 43.5051ZM60.0582 45.5421H66.3582V43.9671H62.0952C62.0742 43.1481 61.8852 41.8881 61.8852 41.0691V40.8171L65.8332 40.2921V38.7171H61.8852C61.8222 38.1291 61.5282 33.8241 61.6332 32.4171H66.3582V30.8421C64.2582 30.8421 61.8642 30.7371 59.7642 30.8421L60.0582 45.5421ZM67.7779 30.9051L67.9459 45.6681H69.7939L69.8359 39.2841L72.7339 45.6261L74.3929 44.3241L70.9279 38.1921L74.7079 32.1441L73.5109 30.6951L69.7099 36.8691L69.6259 30.5691L67.7779 30.9051ZM82.5867 30.8421C82.0407 30.8421 79.6467 31.1781 78.0297 31.5771C77.2107 31.7661 76.8117 32.1441 76.5807 32.4591C76.4547 32.6481 76.3917 32.8581 76.3707 33.0681L76.1187 43.0851C76.2867 44.9121 77.3157 45.7311 79.2267 45.5631L82.9227 45.2271L82.7967 43.4631C82.3767 43.5261 81.9777 43.5681 81.5787 43.6101C80.9067 43.6731 80.0877 43.7361 79.5837 43.7361C78.5547 43.7361 78.4077 43.4421 78.1347 43.0011C77.8827 42.5181 77.8617 36.4281 77.9457 34.9791C78.0087 34.2441 78.2607 33.8871 78.5127 33.6981C78.6597 33.5931 78.8277 33.5301 79.0167 33.5091L82.4817 33.0891L82.5867 30.8421ZM84.421 37.3731L84.379 39.6621L91.687 39.5361L91.813 37.0371L84.421 37.3731ZM98.8902 30.9261C97.9872 30.8631 96.0552 30.8631 94.9632 30.8631L93.6822 45.5421H95.4882C95.8032 43.4631 95.8452 41.4681 96.2442 39.8721L98.0502 40.1451C98.3862 41.2581 98.6592 44.2191 98.8272 45.5421H100.633L98.8902 30.9261ZM97.8822 38.2971L96.4752 38.1291L96.6852 33.7611L97.2942 33.7821L97.8822 38.2971ZM110.299 35.7351C110.299 34.2021 109.165 33.2151 107.317 33.4461L107.254 30.8631H105.259L105.217 33.6351C104.818 33.6141 103.453 33.6771 103.159 33.7821C102.634 33.9711 102.13 34.4121 102.13 35.4201V39.9351C102.109 40.4181 102.151 40.8591 102.298 41.2371C102.529 41.8881 104.083 42.5391 105.259 42.5181L105.196 44.0091C105.175 44.4081 105.154 44.7651 105.154 45.0381C105.133 45.1851 105.133 45.3531 105.133 45.5001C105.196 45.5001 105.637 45.5211 106.057 45.5421L106.897 45.5841L107.107 42.5181C107.506 42.5811 108.829 42.5391 109.144 42.3921C109.669 42.1821 110.257 41.4261 110.257 39.8931C110.32 36.7221 110.299 35.7981 110.299 35.7351ZM105.301 40.5861C105.154 40.7331 104.125 40.7121 104.104 40.5021C104.083 40.3971 104.083 35.6931 104.083 35.6931C104.335 35.5881 105.154 35.5671 105.238 35.6511C105.343 35.7771 105.301 40.3131 105.301 40.5861ZM108.283 40.5231C108.241 40.6071 108.178 40.6701 108.094 40.7121C108.052 40.7541 107.254 40.7121 107.254 40.6281C107.254 40.5021 107.359 35.6091 107.38 35.5881C107.38 35.5881 108.241 35.4411 108.304 35.7561C108.346 35.9661 108.346 36.1761 108.346 36.3651C108.346 36.6381 108.388 40.3551 108.283 40.5231ZM118.776 45.5421L118.965 30.8631L116.991 30.9471L114.093 40.5441L113.883 30.5691L111.825 30.8211L112.119 45.7101L114.261 45.6261L116.949 36.8691L116.634 45.5841L118.776 45.5421ZM120.703 30.9471L120.577 45.5001L131.35 45.4581L131.791 30.8211L129.607 30.7791L129.04 43.4841L127.066 43.6941V30.7791H124.966L125.008 43.5681L122.908 43.6941L122.761 30.8631L120.703 30.9471ZM138.492 30.9261C137.589 30.8631 135.657 30.8631 134.565 30.8631L133.284 45.5421H135.09C135.405 43.4631 135.447 41.4681 135.846 39.8721L137.652 40.1451C137.988 41.2581 138.261 44.2191 138.429 45.5421H140.235L138.492 30.9261ZM137.484 38.2971L136.077 38.1291L136.287 33.7611L136.896 33.7821L137.484 38.2971Z" fill="#004F91"/>
<path d="M0.96791 76.0379C0.90491 76.1009 1.36691 76.0799 1.80791 76.0169L2.71091 75.9119L2.83691 70.3259L4.81091 70.4519L5.25191 75.8279L6.99491 75.7859L7.03691 61.1909H5.52491L4.89491 68.7299L2.66891 68.6039L2.26991 61.5059C1.99691 61.5059 1.72391 61.5059 1.49291 61.4849C1.09391 61.4849 0.67391 61.4639 0.61091 61.4639C0.48491 61.4639 1.05191 75.9539 0.96791 76.0379ZM13.7461 61.3799C12.8431 61.3169 10.9111 61.3169 9.81912 61.3169L8.53812 75.9959H10.3441C10.6591 73.9169 10.7011 71.9219 11.1001 70.3259L12.9061 70.5989C13.2421 71.7119 13.5151 74.6729 13.6831 75.9959H15.4891L13.7461 61.3799ZM12.7381 68.7509L11.3311 68.5829L11.5411 64.2149L12.1501 64.2359L12.7381 68.7509ZM63.679 86.0809C63.427 83.5399 59.311 84.0649 57.337 84.3169L57.841 98.9959H59.605V93.4309C60.865 93.4939 63.511 92.6119 63.679 90.8899C63.847 89.2939 63.847 87.6979 63.679 86.0809ZM61.852 89.9029C61.768 90.2389 61.789 90.5539 61.411 90.7429C61.222 90.8269 61.012 90.8899 60.781 90.9319C60.571 90.9739 59.857 90.9529 59.773 90.8689C59.752 90.8269 59.626 86.6899 59.626 86.1439C59.626 86.0389 61.222 86.0599 61.6 86.3749C62.146 86.8369 61.915 89.5879 61.852 89.9029ZM67.1406 92.2339L64.9776 98.9959L66.9306 99.2899L71.5086 84.5059L69.8286 84.3169L68.1066 89.1259L66.6366 84.0649L64.9776 84.3589L67.1406 92.2339ZM78.9631 93.1369C78.9421 92.2969 78.6271 91.8139 78.3121 91.4989C78.1231 91.3309 77.9341 91.2049 77.7031 91.1209C76.9471 90.9739 76.0861 90.9109 75.0151 90.9739C74.9941 89.4619 74.9101 88.0339 75.0571 86.1649C76.7161 86.3119 77.7871 86.2279 78.9631 86.2069L78.9211 84.1909C77.1571 84.1279 75.3091 84.0859 73.1041 84.2329L72.8731 98.9959H77.4301C78.1231 98.9959 78.5221 98.6179 78.7531 98.2189C78.8791 97.9879 78.9631 97.7149 79.0051 97.4209V95.9089C79.0051 95.0479 78.9841 93.9979 78.9631 93.1369ZM76.9471 97.2319C76.5691 97.5469 74.9731 97.5889 74.9731 97.4629C74.9731 96.9379 75.0991 92.7799 75.1201 92.7379C75.2041 92.6539 75.9181 92.6329 76.1281 92.6749C76.3591 92.7169 76.5691 92.7799 76.7581 92.8849C77.1361 93.0739 77.1151 93.3679 77.1991 93.7039C77.2621 94.0189 77.4931 96.7699 76.9471 97.2319ZM82.0072 99.0379C83.6032 99.0379 85.4512 96.9799 85.5562 94.9849L85.5982 86.1649H87.7402L87.7822 99.1639H89.9662L89.5672 84.2329L83.6242 84.2749C83.6242 85.9969 83.6242 87.5929 83.6452 89.0419C83.6452 91.5199 83.6662 94.1869 83.6662 94.9219C83.6662 96.4339 82.4482 97.2109 81.6082 97.2109L80.4952 97.2529L80.3692 99.0799L82.0072 99.0379ZM91.84 98.9959H98.14V97.4209H93.877C93.856 96.6019 93.667 95.3419 93.667 94.5229V94.2709L97.615 93.7459V92.1709H93.667C93.604 91.5829 93.31 87.2779 93.415 85.8709H98.14V84.2959C96.04 84.2959 93.646 84.1909 91.546 84.2959L91.84 98.9959ZM106.469 98.9959L106.658 84.3169L104.684 84.4009L101.786 93.9979L101.576 84.0229L99.5176 84.2749L99.8116 99.1639L101.954 99.0799L104.642 90.3229L104.327 99.0379L106.469 98.9959ZM105.965 81.5239L104.894 80.3479L102.815 81.8389L100.421 80.3479L99.9166 81.8389L103.172 84.0439L105.965 81.5239Z" fill="white"/>
<path d="M22.9839 65.3909L24.8529 65.4539L24.9159 63.8999C24.9579 63.7739 24.9999 63.6689 25.0629 63.5849C25.1679 63.4379 25.2939 63.2909 25.5249 63.3119C25.7559 63.3749 26.1129 63.3749 26.4279 63.4379L27.0159 63.5219C27.1209 63.5429 27.2259 63.5849 27.2889 63.6479C27.4359 63.7529 27.5409 63.8999 27.5409 64.1519C27.5409 64.6349 27.6249 66.8819 27.4149 67.2389C27.1839 67.6379 26.5539 67.8269 25.5669 67.9739L25.5879 70.4519C25.9449 70.4729 26.2389 70.5149 26.5119 70.5989C26.9949 70.7459 27.4569 71.0399 27.5199 71.6909C27.5829 72.3419 27.6039 72.7619 27.6249 73.0769C27.6459 73.2449 27.6459 73.3919 27.6459 73.4969C27.6249 73.6019 27.6039 73.7069 27.5409 73.7909C27.4569 73.9379 27.2889 74.1059 27.0159 74.1059C26.7429 74.1269 26.3229 74.1059 25.9869 74.0849C25.7769 74.0639 25.5669 74.0639 25.3569 74.0639C25.2519 74.0639 25.1679 74.0429 25.1049 74.0009C24.9159 73.9379 24.7899 73.7909 24.7269 73.5809C24.6429 73.3499 24.6009 72.9509 24.5799 72.6149C24.5589 72.4259 24.5589 72.2159 24.5589 71.9849L22.9419 72.0059V74.0639C22.9419 74.4209 22.9839 74.7569 23.0889 75.0299C23.2569 75.5129 23.6349 75.9749 24.4749 75.9749C25.2939 75.9749 26.0499 75.9959 26.5749 75.9959C26.8899 76.0169 27.1629 76.0169 27.4149 76.0169C27.7929 76.0169 28.1289 75.9539 28.4439 75.8279C28.9689 75.5969 29.4729 75.1769 29.4939 74.2319C29.4939 73.3079 29.4939 72.5309 29.4729 71.9639C29.4519 71.6489 29.4519 71.3549 29.4519 71.0819C29.3469 70.7459 29.2209 70.4519 29.0319 70.1789C28.7169 69.6959 28.1499 69.2549 27.2889 69.2549C28.9479 68.9609 28.9689 68.1209 29.0739 67.8899C29.1369 67.6589 29.1789 65.2859 29.2839 63.3329C29.3469 62.3459 28.8429 61.8839 28.2759 61.6109C27.9609 61.4639 27.5829 61.3589 27.1839 61.3169L26.4699 61.2749C25.9869 61.2539 25.3359 61.2539 24.4749 61.2749C23.6139 61.2959 23.2149 61.8209 23.0259 62.3879C22.9209 62.7029 22.8579 63.0809 22.8579 63.4799L22.9839 65.3909ZM33.9018 67.7219C33.9018 67.6589 34.0278 63.4169 33.9648 63.4169C33.8388 63.4169 34.8258 63.3749 35.8338 63.3749L37.8918 63.3329L37.9758 61.4009L31.8438 61.2749L31.7388 69.7379L34.5108 69.8639C34.7628 69.9059 34.9938 69.9689 35.2038 70.0529C35.5398 70.2209 35.8968 70.4729 35.9178 71.0399C35.9388 71.6069 35.9388 72.0899 35.9388 72.4889C35.9388 72.7199 35.9388 72.9089 35.9178 73.0979C35.8968 73.2869 35.8338 73.4549 35.7708 73.6019C35.6238 73.8539 35.4138 74.1269 34.9938 74.1479L33.0828 74.2319L31.8018 74.2949L31.8858 76.3949L35.6028 76.1219C36.0648 76.0589 36.4848 75.8909 36.8628 75.6599C37.4718 75.2609 38.1648 74.5679 38.2278 73.2449C38.3328 70.6829 38.2068 70.0949 38.2068 69.9269C38.1438 69.6539 37.4718 68.0159 36.1068 67.8479C35.3088 67.7429 33.9438 67.7219 33.9018 67.7219ZM40.8502 73.5389C40.7872 74.8199 41.1652 75.7649 42.5092 75.9959C42.9922 75.9959 43.4542 75.9959 43.9162 76.0169C44.6932 76.0379 45.5752 76.0589 46.1422 76.0379C47.0452 76.0379 47.6752 75.1349 47.6752 74.2529L47.7172 69.5279C47.7172 67.0709 47.7592 64.2989 47.7592 63.3749C47.7592 62.4299 47.2972 61.9049 46.8562 61.6319C46.5832 61.4849 46.2892 61.3799 45.9532 61.3169L44.9662 61.2749C44.3572 61.2539 43.5382 61.2539 42.6352 61.2749C41.7322 61.2959 41.3122 61.8209 41.0812 62.3249C40.9552 62.6189 40.8922 62.9549 40.8712 63.3329L40.8502 73.5389ZM42.7192 64.0049C42.6562 63.4799 42.9292 63.2489 43.4122 63.1649C43.6852 63.1859 43.9372 63.1859 44.1892 63.1859H45.2392C45.4072 63.1859 45.5332 63.3119 45.5962 63.4169C45.6382 63.4799 45.6802 63.5639 45.7012 63.6479L45.7852 68.3309C45.8482 70.7249 45.8062 73.2029 45.8062 73.5179C45.7432 73.8539 45.6172 74.0009 45.4492 74.0639C45.3442 74.1059 45.2392 74.1269 45.1342 74.1059L44.4202 74.1479C44.0212 74.1689 43.6222 74.1689 43.3912 74.1479C43.1602 74.1269 43.0552 73.9799 42.9922 73.8329C42.9502 73.7489 42.9292 73.6649 42.9292 73.5599L42.7192 64.0049ZM51.6909 78.3899C52.0479 77.9909 52.2159 77.4449 52.3209 76.9409C52.3839 76.6679 52.4049 76.3529 52.4259 76.0379V73.9169L50.2629 73.9799L50.3049 76.0589L51.2919 76.0799C51.2709 76.2479 51.2499 76.4159 51.2079 76.5629C51.1449 76.8359 51.0399 77.1719 50.8089 77.4869L51.6909 78.3899ZM62.9399 76.2479L65.0609 76.1009V61.3379L63.0449 61.4009L60.9239 63.2489L62.2049 65.0969L63.0869 64.4669L62.9399 76.2479ZM74.7047 73.5389C74.6417 74.8199 75.0197 75.7649 76.3637 75.9959C76.8467 75.9959 77.3087 75.9959 77.7707 76.0169C78.5477 76.0379 79.4297 76.0589 79.9967 76.0379C80.8997 76.0379 81.5297 75.1349 81.5297 74.2529L81.5717 69.5279C81.5717 67.0709 81.6137 64.2989 81.6137 63.3749C81.6137 62.4299 81.1517 61.9049 80.7107 61.6319C80.4377 61.4849 80.1437 61.3799 79.8077 61.3169L78.8207 61.2749C78.2117 61.2539 77.3927 61.2539 76.4897 61.2749C75.5867 61.2959 75.1667 61.8209 74.9357 62.3249C74.8097 62.6189 74.7467 62.9549 74.7257 63.3329L74.7047 73.5389ZM76.5737 64.0049C76.5107 63.4799 76.7837 63.2489 77.2667 63.1649C77.5397 63.1859 77.7917 63.1859 78.0437 63.1859H79.0937C79.2617 63.1859 79.3877 63.3119 79.4507 63.4169C79.4927 63.4799 79.5347 63.5639 79.5557 63.6479L79.6397 68.3309C79.7027 70.7249 79.6607 73.2029 79.6607 73.5179C79.5977 73.8539 79.4717 74.0009 79.3037 74.0639C79.1987 74.1059 79.0937 74.1269 78.9887 74.1059L78.2747 74.1479C77.8757 74.1689 77.4767 74.1689 77.2457 74.1479C77.0147 74.1269 76.9097 73.9799 76.8467 73.8329C76.8047 73.7489 76.7837 73.6649 76.7837 73.5599L76.5737 64.0049ZM83.9283 73.5389C83.8653 74.8199 84.2433 75.7649 85.5873 75.9959C86.0703 75.9959 86.5323 75.9959 86.9943 76.0169C87.7713 76.0379 88.6533 76.0589 89.2203 76.0379C90.1233 76.0379 90.7533 75.1349 90.7533 74.2529L90.7953 69.5279C90.7953 67.0709 90.8373 64.2989 90.8373 63.3749C90.8373 62.4299 90.3753 61.9049 89.9343 61.6319C89.6613 61.4849 89.3673 61.3799 89.0313 61.3169L88.0443 61.2749C87.4353 61.2539 86.6163 61.2539 85.7133 61.2749C84.8103 61.2959 84.3903 61.8209 84.1593 62.3249C84.0333 62.6189 83.9703 62.9549 83.9493 63.3329L83.9283 73.5389ZM85.7973 64.0049C85.7343 63.4799 86.0073 63.2489 86.4903 63.1649C86.7633 63.1859 87.0153 63.1859 87.2673 63.1859H88.3173C88.4853 63.1859 88.6113 63.3119 88.6743 63.4169C88.7163 63.4799 88.7583 63.5639 88.7793 63.6479L88.8633 68.3309C88.9263 70.7249 88.8843 73.2029 88.8843 73.5179C88.8213 73.8539 88.6953 74.0009 88.5273 74.0639C88.4223 74.1059 88.3173 74.1269 88.2123 74.1059L87.4983 74.1479C87.0993 74.1689 86.7003 74.1689 86.4693 74.1479C86.2383 74.1269 86.1333 73.9799 86.0703 73.8329C86.0283 73.7489 86.0073 73.6649 86.0073 73.5599L85.7973 64.0049ZM93.152 73.5389C93.089 74.8199 93.467 75.7649 94.811 75.9959C95.294 75.9959 95.756 75.9959 96.218 76.0169C96.995 76.0379 97.877 76.0589 98.444 76.0379C99.347 76.0379 99.977 75.1349 99.977 74.2529L100.019 69.5279C100.019 67.0709 100.061 64.2989 100.061 63.3749C100.061 62.4299 99.599 61.9049 99.158 61.6319C98.885 61.4849 98.591 61.3799 98.255 61.3169L97.268 61.2749C96.659 61.2539 95.84 61.2539 94.937 61.2749C94.034 61.2959 93.614 61.8209 93.383 62.3249C93.257 62.6189 93.194 62.9549 93.173 63.3329L93.152 73.5389ZM95.021 64.0049C94.958 63.4799 95.231 63.2489 95.714 63.1649C95.987 63.1859 96.239 63.1859 96.491 63.1859H97.541C97.709 63.1859 97.835 63.3119 97.898 63.4169C97.94 63.4799 97.982 63.5639 98.003 63.6479L98.087 68.3309C98.15 70.7249 98.108 73.2029 98.108 73.5179C98.045 73.8539 97.919 74.0009 97.751 74.0639C97.646 74.1059 97.541 74.1269 97.436 74.1059L96.722 74.1479C96.323 74.1689 95.924 74.1689 95.693 74.1479C95.462 74.1269 95.357 73.9799 95.294 73.8329C95.252 73.7489 95.231 73.6649 95.231 73.5599L95.021 64.0049ZM115.199 75.9959L115.388 61.3169L113.414 61.4009L110.516 70.9979L110.306 61.0229L108.248 61.2749L108.542 76.1639L110.684 76.0799L113.372 67.3229L113.057 76.0379L115.199 75.9959ZM125.182 73.9169L125.14 72.8669C125.119 72.2999 125.119 71.6699 125.119 71.3129C125.119 70.9769 125.287 70.7669 125.518 70.6199C125.623 70.5569 125.77 70.4939 125.917 70.4309C125.959 70.4099 126.043 70.4099 126.169 70.3889C126.4 70.3679 126.715 70.3679 127.366 70.3889C128.521 70.4519 129.004 69.0449 129.109 68.6459C129.277 68.2679 129.235 65.0549 129.235 63.3749C129.235 62.4719 128.815 62.0099 128.395 61.7579C128.143 61.6109 127.87 61.5059 127.576 61.4639C127.261 61.4429 126.946 61.4009 126.589 61.3589C126.001 61.2959 125.203 61.2539 124.426 61.2749C123.607 61.2959 123.292 61.7999 123.145 62.2829C123.061 62.5559 123.04 62.8919 123.061 63.2489L123.103 64.3199C123.124 64.8869 123.124 65.4119 123.103 65.4329L124.93 65.4119L124.972 64.0259C124.972 63.8789 124.993 63.7529 125.035 63.6479C125.098 63.4589 125.203 63.2909 125.518 63.3119C125.791 63.3539 126.022 63.3749 126.253 63.3749H126.547C126.694 63.3959 126.82 63.4379 126.925 63.5009C127.114 63.6059 127.324 63.7529 127.324 64.0259V66.0419C127.324 66.5249 127.324 67.0709 127.345 67.6379C127.345 67.7849 127.324 67.9319 127.261 68.0369C127.177 68.2679 127.03 68.4359 126.715 68.4359H125.896C125.77 68.4359 125.665 68.4359 125.56 68.4149C124.153 68.3309 123.502 69.0449 123.229 69.8009C123.061 70.2419 122.998 70.7459 123.019 71.3129V73.7069C122.998 74.8829 123.061 76.1009 123.061 76.0799C123.061 76.0589 124.636 76.1219 126.19 76.1009C127.093 76.1219 128.122 76.1219 129.277 76.1219L129.466 73.8959L125.182 73.9169ZM140.043 67.7219C140.043 67.6589 140.169 63.4169 140.106 63.4169C139.98 63.4169 140.967 63.3749 141.975 63.3749L144.033 63.3329L144.117 61.4009L137.985 61.2749L137.88 69.7379L140.652 69.8639C140.904 69.9059 141.135 69.9689 141.345 70.0529C141.681 70.2209 142.038 70.4729 142.059 71.0399C142.08 71.6069 142.08 72.0899 142.08 72.4889C142.08 72.7199 142.08 72.9089 142.059 73.0979C142.038 73.2869 141.975 73.4549 141.912 73.6019C141.765 73.8539 141.555 74.1269 141.135 74.1479L139.224 74.2319L137.943 74.2949L138.027 76.3949L141.744 76.1219C142.206 76.0589 142.626 75.8909 143.004 75.6599C143.613 75.2609 144.306 74.5679 144.369 73.2449C144.474 70.6829 144.348 70.0949 144.348 69.9269C144.285 69.6539 143.613 68.0159 142.248 67.8479C141.45 67.7429 140.085 67.7219 140.043 67.7219ZM146.992 73.5389C146.929 74.8199 147.307 75.7649 148.651 75.9959C149.134 75.9959 149.596 75.9959 150.058 76.0169C150.835 76.0379 151.717 76.0589 152.284 76.0379C153.187 76.0379 153.817 75.1349 153.817 74.2529L153.859 69.5279C153.859 67.0709 153.901 64.2989 153.901 63.3749C153.901 62.4299 153.439 61.9049 152.998 61.6319C152.725 61.4849 152.431 61.3799 152.095 61.3169L151.108 61.2749C150.499 61.2539 149.68 61.2539 148.777 61.2749C147.874 61.2959 147.454 61.8209 147.223 62.3249C147.097 62.6189 147.034 62.9549 147.013 63.3329L146.992 73.5389ZM148.861 64.0049C148.798 63.4799 149.071 63.2489 149.554 63.1649C149.827 63.1859 150.079 63.1859 150.331 63.1859H151.381C151.549 63.1859 151.675 63.3119 151.738 63.4169C151.78 63.4799 151.822 63.5639 151.843 63.6479L151.927 68.3309C151.99 70.7249 151.948 73.2029 151.948 73.5179C151.885 73.8539 151.759 74.0009 151.591 74.0639C151.486 74.1059 151.381 74.1269 151.276 74.1059L150.562 74.1479C150.163 74.1689 149.764 74.1689 149.533 74.1479C149.302 74.1269 149.197 73.9799 149.134 73.8329C149.092 73.7489 149.071 73.6649 149.071 73.5599L148.861 64.0049ZM156.215 73.5389C156.152 74.8199 156.53 75.7649 157.874 75.9959C158.357 75.9959 158.819 75.9959 159.281 76.0169C160.058 76.0379 160.94 76.0589 161.507 76.0379C162.41 76.0379 163.04 75.1349 163.04 74.2529L163.082 69.5279C163.082 67.0709 163.124 64.2989 163.124 63.3749C163.124 62.4299 162.662 61.9049 162.221 61.6319C161.948 61.4849 161.654 61.3799 161.318 61.3169L160.331 61.2749C159.722 61.2539 158.903 61.2539 158 61.2749C157.097 61.2959 156.677 61.8209 156.446 62.3249C156.32 62.6189 156.257 62.9549 156.236 63.3329L156.215 73.5389ZM158.084 64.0049C158.021 63.4799 158.294 63.2489 158.777 63.1649C159.05 63.1859 159.302 63.1859 159.554 63.1859H160.604C160.772 63.1859 160.898 63.3119 160.961 63.4169C161.003 63.4799 161.045 63.5639 161.066 63.6479L161.15 68.3309C161.213 70.7249 161.171 73.2029 161.171 73.5179C161.108 73.8539 160.982 74.0009 160.814 74.0639C160.709 74.1059 160.604 74.1269 160.499 74.1059L159.785 74.1479C159.386 74.1689 158.987 74.1689 158.756 74.1479C158.525 74.1269 158.42 73.9799 158.357 73.8329C158.315 73.7489 158.294 73.6649 158.294 73.5599L158.084 64.0049Z" fill="#FEE000"/>
<path d="M47.7215 0.488292C47.1755 0.488292 44.7815 0.824293 43.1645 1.22329C42.3455 1.41229 41.9465 1.79029 41.7155 2.10529C41.5895 2.29429 41.5265 2.50429 41.5055 2.71429L41.2535 12.7313C41.4215 14.5583 42.4505 15.3773 44.3615 15.2093L48.0575 14.8733L47.9315 13.1093C47.5115 13.1723 47.1125 13.2143 46.7135 13.2563C46.0415 13.3193 45.2225 13.3823 44.7185 13.3823C43.6895 13.3823 43.5425 13.0883 43.2695 12.6473C43.0175 12.1643 42.9965 6.07429 43.0805 4.62529C43.1435 3.89029 43.3955 3.53329 43.6475 3.34429C43.7945 3.23929 43.9625 3.17629 44.1515 3.15529L47.6165 2.73529L47.7215 0.488292ZM49.8287 15.1883H56.1287V13.6133H51.8657C51.8447 12.7943 51.6557 11.5343 51.6557 10.7153V10.4633L55.6037 9.93829V8.36329H51.6557C51.5927 7.77529 51.2987 3.47029 51.4037 2.06329H56.1287V0.488292C54.0287 0.488292 51.6347 0.383293 49.5347 0.488292L49.8287 15.1883ZM63.8484 2.27329C63.5964 -0.267708 59.4804 0.257293 57.5064 0.509292L58.0104 15.1883H59.7744V9.62329C61.0344 9.68629 63.6804 8.80429 63.8484 7.08229C64.0164 5.48629 64.0164 3.89029 63.8484 2.27329ZM62.0214 6.09529C61.9374 6.43129 61.9584 6.74629 61.5804 6.93529C61.3914 7.01929 61.1814 7.08229 60.9504 7.12429C60.7404 7.16629 60.0264 7.14529 59.9424 7.06129C59.9214 7.01929 59.7954 2.88229 59.7954 2.33629C59.7954 2.23129 61.3914 2.25229 61.7694 2.56729C62.3154 3.02929 62.0844 5.78029 62.0214 6.09529ZM67.772 2.56729V15.2093H69.83C69.83 11.0303 69.578 6.70429 69.578 2.31529H72.665V2.04229C72.665 1.79029 72.623 1.41229 72.602 1.09729L72.56 0.530293L65.231 0.404292C65.168 0.803292 65.189 2.18929 65.189 2.56729H67.772ZM80.9779 15.1883L81.1669 0.509292L79.1929 0.593292L76.2949 10.1903L76.0849 0.215292L74.0269 0.467293L74.3209 15.3563L76.4629 15.2723L79.1509 6.51529L78.8359 15.2303L80.9779 15.1883ZM90.9484 5.38129C90.9484 3.84829 89.8144 2.86129 87.9664 3.09229L87.9034 0.509292H85.9084L85.8664 3.28129C85.4674 3.26029 84.1024 3.32329 83.8084 3.42829C83.2834 3.61729 82.7794 4.05829 82.7794 5.06629V9.58129C82.7584 10.0643 82.8004 10.5053 82.9474 10.8833C83.1784 11.5343 84.7324 12.1853 85.9084 12.1643L85.8454 13.6553C85.8244 14.0543 85.8034 14.4113 85.8034 14.6843C85.7824 14.8313 85.7824 14.9993 85.7824 15.1463C85.8454 15.1463 86.2864 15.1673 86.7064 15.1883L87.5464 15.2303L87.7564 12.1643C88.1554 12.2273 89.4784 12.1853 89.7934 12.0383C90.3184 11.8283 90.9064 11.0723 90.9064 9.53929C90.9694 6.36829 90.9484 5.44429 90.9484 5.38129ZM85.9504 10.2323C85.8034 10.3793 84.7744 10.3583 84.7534 10.1483C84.7324 10.0433 84.7324 5.33929 84.7324 5.33929C84.9844 5.23429 85.8034 5.21329 85.8874 5.29729C85.9924 5.42329 85.9504 9.95929 85.9504 10.2323ZM88.9324 10.1693C88.8904 10.2533 88.8274 10.3163 88.7434 10.3583C88.7014 10.4003 87.9034 10.3583 87.9034 10.2743C87.9034 10.1483 88.0084 5.25529 88.0294 5.23429C88.0294 5.23429 88.8904 5.08729 88.9534 5.40229C88.9954 5.61229 88.9954 5.82229 88.9954 6.01129C88.9954 6.28429 89.0374 10.0013 88.9324 10.1693ZM99.4252 15.1883L99.6142 0.509292L97.6402 0.593292L94.7422 10.1903L94.5322 0.215292L92.4742 0.467293L92.7682 15.3563L94.9102 15.2723L97.5982 6.51529L97.2832 15.2303L99.4252 15.1883ZM101.206 0.551293L101.374 15.3143H103.222L103.264 8.93029L106.162 15.2723L107.821 13.9703L104.356 7.83829L108.136 1.79029L106.939 0.341293L103.138 6.51529L103.054 0.215292L101.206 0.551293ZM114.691 0.572293C113.788 0.509292 111.856 0.509292 110.764 0.509292L109.483 15.1883H111.289C111.604 13.1093 111.646 11.1143 112.045 9.51829L113.851 9.79129C114.187 10.9043 114.46 13.8653 114.628 15.1883H116.434L114.691 0.572293ZM113.683 7.94329L112.276 7.77529L112.486 3.40729L113.095 3.42829L113.683 7.94329ZM120.038 2.56729V15.2093H122.096C122.096 11.0303 121.844 6.70429 121.844 2.31529H124.931V2.04229C124.931 1.79029 124.889 1.41229 124.868 1.09729L124.826 0.530293L117.497 0.404292C117.434 0.803292 117.455 2.18929 117.455 2.56729H120.038Z" fill="white"/>
</svg>
