<svg width="150" height="139" viewBox="0 0 150 139" fill="none" xmlns="http://www.w3.org/2000/svg">
<path d="M0 -1H150V139H0V-1Z" fill="#E30613"/>
<g clip-path="url(#clip0)">
<path d="M34.9854 53.5232C34.999 47.0222 37.5664 40.7915 42.1257 36.1952C46.6849 31.599 52.8643 29.0118 59.311 29H115.471V41.4655H59.3258C56.1581 41.4792 53.1239 42.7537 50.8833 45.0118C48.6427 47.2698 47.3769 50.3288 47.3615 53.5232L47.2879 74.45C47.0316 77.1311 45.9019 79.651 44.0753 81.6167C42.2487 83.5821 39.8281 84.8819 37.1914 85.3138L34.9854 85.6548V53.5232Z" fill="white"/>
<path d="M34.988 110V97.534H91.1474C94.316 97.5187 97.35 96.2423 99.5906 93.9832C101.831 91.7238 103.096 88.6641 103.112 85.4693V65.6103C103.127 62.7292 104.158 59.9474 106.02 57.7617C107.881 55.5761 110.453 54.1289 113.274 53.6787L115.481 53.345V85.4693C115.467 91.971 112.9 98.2025 108.34 102.8C103.782 107.397 97.6022 109.986 91.1548 110H34.988Z" fill="white"/>
<path d="M82.5632 85.6991V69.5853L75.2389 78.4023L67.9221 69.5853V85.6991H58.2227V53.9904H67.4073L75.2389 64.1867L83.0706 53.9904H92.2552V85.6991H82.5632Z" fill="white"/>
</g>
<defs>
<clipPath id="clip0">
<rect width="81" height="81" fill="white" transform="translate(35 29)"/>
</clipPath>
</defs>
</svg>
