<svg width="36" height="26" viewBox="0 0 36 26" fill="none" xmlns="http://www.w3.org/2000/svg">
<path fill-rule="evenodd" clip-rule="evenodd" d="M0 3C0 1.34315 1.34315 0 3 0H33C34.6569 0 36 1.34315 36 3C36 4.65686 34.6569 6.00001 33 6.00001H3C1.34315 6.00001 0 4.65686 0 3ZM0 13C0 11.3431 1.34314 10 3 10H33C34.6569 10 36 11.3431 36 13C36 14.6568 34.6569 16 33 16H3C1.34314 16 0 14.6568 0 13ZM3 20C1.34315 20 0 21.3431 0 23C0 24.6569 1.34315 26 3 26H33C34.6569 26 36 24.6569 36 23C36 21.3431 34.6569 20 33 20H3Z" fill="white"/>
</svg>
