<svg width="30" height="30" viewBox="0 0 30 30" fill="none" xmlns="http://www.w3.org/2000/svg">
<path d="M2.12136 2.12132C3.29293 0.949747 5.19242 0.949747 6.364 2.12132L27.5772 23.3345C28.7488 24.5061 28.7488 26.4056 27.5772 27.5772C26.4056 28.7487 24.5061 28.7487 23.3346 27.5772L2.12135 6.36396C0.949782 5.19239 0.949782 3.29289 2.12136 2.12132Z" fill="white"/>
<path d="M27.5772 2.12136C28.7487 3.29293 28.7487 5.19242 27.5772 6.364L6.36396 27.5772C5.19239 28.7488 3.29289 28.7488 2.12132 27.5772C0.949748 26.4056 0.949749 24.5061 2.12132 23.3346L23.3345 2.12135C24.5061 0.949782 26.4056 0.949783 27.5772 2.12136Z" fill="white"/>
</svg>
