<svg width="18" height="24" viewBox="0 0 18 24" fill="none" xmlns="http://www.w3.org/2000/svg">
<path fill-rule="evenodd" clip-rule="evenodd" d="M3.6 5.4C3.6 8.38234 6.01766 10.8 9 10.8C11.9823 10.8 14.4 8.38234 14.4 5.4C14.4 2.41766 11.9823 0 9 0C6.01766 0 3.6 2.41766 3.6 5.4ZM6.31203 23.4943C7.16087 23.4486 8.06374 23.4 9 23.4C9.93626 23.4 10.8391 23.4486 11.688 23.4943C15.3456 23.6913 18 23.8343 18 19.8C18 14.8294 13.9706 12.6 9 12.6C4.02944 12.6 0 14.8294 0 19.8C0 23.8343 2.65442 23.6913 6.31203 23.4943Z" fill="white"/>
</svg>
