<svg width="20" height="20" viewBox="0 0 14 14" fill="none" xmlns="http://www.w3.org/2000/svg">
<path fill-rule="evenodd" clip-rule="evenodd" d="M2.23611 1.75C2.10719 1.75 1.98354 1.80122 1.89238 1.89238C1.80122 1.98354 1.75 2.10719 1.75 2.23611V11.7639C1.75 11.8928 1.80121 12.0165 1.89238 12.1076C1.98354 12.1988 2.10719 12.25 2.23611 12.25H4.95833C5.44158 12.25 5.83333 12.6418 5.83333 13.125C5.83333 13.6082 5.44158 14 4.95833 14H2.23611C1.64306 14 1.07429 13.7644 0.654942 13.3451C0.23559 12.9257 0 12.3569 0 11.7639V2.23611C0 1.64306 0.235589 1.07429 0.654942 0.654942C1.07429 0.235589 1.64306 0 2.23611 0H4.95833C5.44158 0 5.83333 0.391751 5.83333 0.875C5.83333 1.35825 5.44158 1.75 4.95833 1.75H2.23611Z" fill="#fff"/>
<path fill-rule="evenodd" clip-rule="evenodd" d="M9.10369 2.97851C9.4454 2.6368 9.99942 2.6368 10.3411 2.97851L13.7439 6.38129C14.0856 6.723 14.0856 7.27702 13.7439 7.61873L10.3411 11.0215C9.99942 11.3632 9.4454 11.3632 9.10369 11.0215C8.76198 10.6798 8.76198 10.1258 9.10369 9.78407L11.8878 7.00001L9.10369 4.21595C8.76198 3.87424 8.76198 3.32022 9.10369 2.97851Z" fill="#fff"/>
<path fill-rule="evenodd" clip-rule="evenodd" d="M4.08325 7C4.08325 6.51675 4.475 6.125 4.95825 6.125H13.1249C13.6082 6.125 13.9999 6.51675 13.9999 7C13.9999 7.48325 13.6082 7.875 13.1249 7.875H4.95825C4.475 7.875 4.08325 7.48325 4.08325 7Z" fill="#fff"/>
</svg>
