<svg width="7" height="7" viewBox="0 0 7 7" fill="none" xmlns="http://www.w3.org/2000/svg">
<path fill-rule="evenodd" clip-rule="evenodd" d="M1.11806 0.875C1.05359 0.875 0.991771 0.900608 0.946189 0.946189C0.900608 0.991771 0.875 1.05359 0.875 1.11806V5.88194C0.875 5.94641 0.900607 6.00823 0.946189 6.05381C0.991771 6.09939 1.05359 6.125 1.11806 6.125H2.47917C2.72079 6.125 2.91667 6.32088 2.91667 6.5625C2.91667 6.80412 2.72079 7 2.47917 7H1.11806C0.821528 7 0.537147 6.88221 0.327471 6.67253C0.117795 6.46285 0 6.17847 0 5.88194V1.11806C0 0.821529 0.117795 0.537147 0.327471 0.327471C0.537147 0.117795 0.821529 0 1.11806 0H2.47917C2.72079 0 2.91667 0.195875 2.91667 0.4375C2.91667 0.679125 2.72079 0.875 2.47917 0.875H1.11806Z" fill="#27C2EE"/>
<path fill-rule="evenodd" clip-rule="evenodd" d="M4.55197 1.48922C4.72282 1.31837 4.99983 1.31837 5.17069 1.48922L6.87208 3.19061C7.04293 3.36147 7.04293 3.63848 6.87208 3.80933L5.17069 5.51072C4.99983 5.68158 4.72282 5.68158 4.55197 5.51072C4.38111 5.33987 4.38111 5.06286 4.55197 4.892L5.944 3.49997L4.55197 2.10794C4.38111 1.93709 4.38111 1.66008 4.55197 1.48922Z" fill="#27C2EE"/>
<path fill-rule="evenodd" clip-rule="evenodd" d="M2.0415 3.5C2.0415 3.25838 2.23738 3.0625 2.479 3.0625H6.56234C6.80396 3.0625 6.99984 3.25838 6.99984 3.5C6.99984 3.74162 6.80396 3.9375 6.56234 3.9375H2.479C2.23738 3.9375 2.0415 3.74162 2.0415 3.5Z" fill="#27C2EE"/>
</svg>
