<svg width="150" height="28" viewBox="0 0 150 28" fill="none" xmlns="http://www.w3.org/2000/svg">
<g clip-path="url(#clip0)">
<path d="M80.0825 23.304V4.69629H91.7325V9.01818H84.9403V23.304H80.0825Z" fill="#E30613"/>
<path d="M106.389 23.304V16.0163H99.1728V23.304H94.3151V4.69629H99.1728V11.6405H106.389V4.69629H111.247V23.304H106.389Z" fill="#E30613"/>
<path d="M139.438 23.304V9.01818H133.764V4.69629H150V9.01818H144.298V23.304H139.438Z" fill="#E30613"/>
<path d="M126.616 23.3014V12.6992L118.883 23.3014H114.821V4.69879H119.679V15.1907L127.282 4.69879H131.476V23.3014H126.616Z" fill="#E30613"/>
<path d="M52.1667 23.304V12.2455L47.3165 18.0876L42.4664 12.2455V23.304H37.6086V4.69629H42.4029L47.3165 11.0945L52.2302 4.69629H57.0243V23.304H52.1667Z" fill="#E30613"/>
<path d="M66.2466 16.7595H70.7611L68.5038 10.9251L66.2466 16.7595ZM73.293 23.3013L72.2763 20.6942H64.724L63.7071 23.3013H58.8241L66.295 4.69611H70.7867L78.2601 23.3013H73.293Z" fill="#E30613"/>
<path d="M-0.00469971 8.47716C3.80538e-06 6.2299 0.887532 4.07606 2.46356 2.48724C4.03958 0.898412 6.17569 0.00406368 8.40418 0H27.8174V4.30907H8.40928C7.31426 4.31378 6.26541 4.75436 5.49087 5.53494C4.71635 6.3155 4.27881 7.37293 4.27346 8.47716L4.24804 15.7111C4.15943 16.6379 3.76893 17.509 3.1375 18.1885C2.50609 18.8679 1.66933 19.3172 0.757896 19.4665L-0.00469971 19.5844V8.47716Z" fill="#E30613"/>
<path d="M-0.00415039 28V23.6908H19.409C20.5043 23.6855 21.5531 23.2443 22.3276 22.4634C23.1019 21.6823 23.5395 20.6247 23.5448 19.5203V12.6555C23.5502 11.6595 23.9065 10.6979 24.55 9.94237C25.1935 9.18684 26.0823 8.68658 27.0578 8.53095L27.8204 8.41559V19.5203C27.8157 21.7678 26.9283 23.9219 25.3522 25.5111C23.7764 27.1003 21.6403 27.9951 19.4115 28H-0.00415039Z" fill="#E30613"/>
<path d="M16.4417 19.5997V14.0294L13.9098 17.0773L11.3805 14.0294V19.5997H8.02765V8.63861H11.2026L13.9098 12.1633L16.617 8.63861H19.792V19.5997H16.4417Z" fill="#E30613"/>
</g>
<defs>
<clipPath id="clip0">
<rect width="150" height="28" fill="white"/>
</clipPath>
</defs>
</svg>
