<svg width="641" height="61" viewBox="0 0 641 61" fill="none" xmlns="http://www.w3.org/2000/svg">
<path d="M13.6145 0.080517L640.31 3.8834L632.856 54.8391L-0.000174925 56.999L13.6145 0.080517Z" fill="white"/>
<path d="M28.1527 36.7252L28.0967 35.3252C28.0687 34.5692 28.0687 33.7292 28.0687 33.2532C28.0687 32.8052 28.2927 32.5252 28.6007 32.3292C28.7407 32.2452 28.9367 32.1612 29.1327 32.0772C29.1887 32.0492 29.3007 32.0492 29.4687 32.0212C29.7767 31.9932 30.1967 31.9932 31.0647 32.0212C32.6047 32.1052 33.2487 30.2292 33.3887 29.6972C33.6127 29.1932 33.5567 24.9092 33.5567 22.6692C33.5567 21.4652 32.9967 20.8492 32.4367 20.5132C32.1007 20.3172 31.7367 20.1772 31.3447 20.1212C30.9247 20.0932 30.5047 20.0372 30.0287 19.9812C29.2447 19.8972 28.1807 19.8412 27.1447 19.8692C26.0527 19.8972 25.6327 20.5692 25.4367 21.2132C25.3247 21.5772 25.2967 22.0252 25.3247 22.5012L25.3807 23.9292C25.4087 24.6852 25.4087 25.3852 25.3807 25.4132L27.8167 25.3852L27.8727 23.5372C27.8727 23.3412 27.9007 23.1732 27.9567 23.0332C28.0407 22.7812 28.1807 22.5572 28.6007 22.5852C28.9647 22.6412 29.2727 22.6692 29.5807 22.6692H29.9727C30.1687 22.6972 30.3367 22.7532 30.4767 22.8372C30.7287 22.9772 31.0087 23.1732 31.0087 23.5372V26.2252C31.0087 26.8692 31.0087 27.5972 31.0367 28.3532C31.0367 28.5492 31.0087 28.7452 30.9247 28.8852C30.8127 29.1932 30.6167 29.4172 30.1967 29.4172H29.1047C28.9367 29.4172 28.7967 29.4172 28.6567 29.3892C26.7807 29.2772 25.9127 30.2292 25.5487 31.2372C25.3247 31.8252 25.2407 32.4972 25.2687 33.2532V36.4452C25.2407 38.0132 25.3247 39.6372 25.3247 39.6092C25.3247 39.5812 27.4247 39.6652 29.4967 39.6372C30.7007 39.6652 32.0727 39.6652 33.6127 39.6652L33.8647 36.6972L28.1527 36.7252ZM46.4332 39.5532C48.5612 39.5532 51.0252 36.8092 51.1652 34.1492L51.2212 22.3892H54.0772L54.1332 39.7212H57.0452L56.5132 19.8132L48.5892 19.8692C48.5892 22.1652 48.5892 24.2932 48.6172 26.2252C48.6172 29.5292 48.6452 33.0852 48.6452 34.0652C48.6452 36.0812 47.0212 37.1172 45.9012 37.1172L44.4172 37.1732L44.2492 39.6092L46.4332 39.5532ZM73.8823 22.7252C73.8823 21.4652 73.2663 20.7652 72.6783 20.4012C72.3143 20.2052 71.9223 20.0652 71.4743 19.9812L70.1583 19.9252C69.3463 19.8972 68.5063 19.8972 67.3023 19.9252C66.0983 19.9532 65.5383 20.6532 65.2303 21.3252C65.0623 21.7172 64.9783 22.1652 64.9503 22.6692L64.8383 28.2412L62.0103 28.4372V19.8692H59.1823C58.9583 26.7012 58.9023 33.0852 58.8183 39.4972H62.0103V31.1532L64.6703 31.0972L64.5863 36.1652C64.5023 37.8732 65.0063 39.1332 66.7983 39.4412C67.4423 39.4412 68.1423 39.5532 68.7583 39.5812C69.7943 39.6092 71.4743 39.6372 72.2303 39.6092C73.4343 39.6092 74.2743 38.4052 74.2743 37.2292C74.2743 37.2292 73.8823 23.9572 73.8823 22.7252ZM71.1103 36.2492C70.8583 36.5572 67.7503 36.6132 67.6383 36.3332C67.3023 35.5212 67.3863 22.8372 67.5263 22.3892C67.6383 22.1092 71.1383 22.3332 71.3343 22.7812C71.6983 23.5372 71.2783 36.0532 71.1103 36.2492ZM83.825 31.6852C83.797 30.5652 83.377 29.9212 82.957 29.5012C82.705 29.2772 82.453 29.1092 82.145 28.9972C81.137 28.8012 79.989 28.7172 78.561 28.8012C78.533 26.7852 78.421 24.8812 78.617 22.3892C80.829 22.5852 82.257 22.4732 83.825 22.4452L83.769 19.7572C81.417 19.6732 78.953 19.6172 76.013 19.8132L75.705 39.4972H81.781C82.705 39.4972 83.237 38.9932 83.545 38.4612C83.713 38.1532 83.825 37.7892 83.881 37.3972V35.3812C83.881 34.2332 83.853 32.8332 83.825 31.6852ZM81.137 37.1452C80.633 37.5652 78.505 37.6212 78.505 37.4532C78.505 36.7532 78.673 31.2092 78.701 31.1532C78.813 31.0412 79.765 31.0132 80.045 31.0692C80.353 31.1252 80.633 31.2092 80.885 31.3492C81.389 31.6012 81.361 31.9932 81.473 32.4412C81.557 32.8612 81.865 36.5292 81.137 37.1452ZM93.7664 31.4052C93.6824 30.9572 93.5144 30.5652 93.2904 30.2292C92.8704 29.6412 92.1984 29.0532 90.9664 29.0532C89.7344 29.0532 89.1184 29.0812 88.8104 29.1092C88.6144 29.1372 88.5304 29.1372 88.5024 29.1652L88.3344 19.6172L85.7864 19.9812L85.6744 39.4412L90.8544 39.3852C91.3864 39.3292 91.8904 39.2172 92.3384 39.0212C93.0944 38.7132 93.7944 38.1812 93.8784 37.2012C93.9064 36.2212 93.8784 34.7932 93.8504 33.5892L93.7664 31.4052ZM91.0784 37.2572C90.5744 37.6772 88.4464 37.7052 88.4464 37.5652C88.4464 36.8372 88.6144 31.3212 88.6424 31.2652C88.7544 31.1532 89.7064 31.1252 89.9864 31.1812C90.2944 31.2372 90.5744 31.3212 90.8264 31.4332C91.3304 31.6852 91.3024 32.1052 91.4144 32.5532C91.4984 32.9732 91.8064 36.6412 91.0784 37.2572ZM98.8064 20.0372L95.6984 19.9812L96.1744 39.5532L98.8624 39.4972L98.8064 20.0372ZM101.066 39.4972H109.466V37.3972H103.782C103.754 36.3052 103.502 34.6252 103.502 33.5332V33.1972L108.766 32.4972V30.3972H103.502C103.418 29.6132 103.026 23.8732 103.166 21.9972H109.466V19.8972C106.666 19.8972 103.474 19.7572 100.674 19.8972L101.066 39.4972ZM121.405 22.5292L126.025 22.5572C125.829 28.8292 125.745 34.5972 125.717 39.9732L128.041 39.9172L128.097 20.4572L119.137 20.1212C118.969 20.1212 119.725 39.4412 119.613 39.5532C119.529 39.6372 120.145 39.6092 120.733 39.5252L121.937 39.3852L121.405 22.5292ZM136.7 20.0092C135.496 19.9252 132.92 19.9252 131.464 19.9252L129.756 39.4972H132.164C132.584 36.7252 132.64 34.0652 133.172 31.9372L135.58 32.3012C136.028 33.7852 136.392 37.7332 136.616 39.4972H139.024L136.7 20.0092ZM135.356 29.8372L133.48 29.6132L133.76 23.7892L134.572 23.8172L135.356 29.8372ZM140.463 19.8972C140.603 19.8972 140.407 33.0012 140.491 33.0012H143.347H146.119L146.259 39.7212L149.199 39.5252L149.451 19.9252L146.707 19.8132L146.203 30.2012L142.983 30.3412L143.095 20.0372L141.723 19.9532C141.051 19.9252 140.379 19.8972 140.463 19.8972ZM151.228 19.9812L151.452 39.6652H153.916L153.972 31.1532L157.836 39.6092L160.048 37.8732L155.428 29.6972L160.468 21.6332L158.872 19.7012L153.804 27.9332L153.692 19.5332L151.228 19.9812ZM171.34 39.4972L171.592 19.9252L168.96 20.0372L165.096 32.8332L164.816 19.5332L162.072 19.8692L162.464 39.7212L165.32 39.6092L168.904 27.9332L168.484 39.5532L171.34 39.4972ZM182.109 31.9372L186.813 26.3092L188.577 27.3172L184.657 32.1052L188.577 36.8932L186.813 37.9292L182.109 32.3012V31.9372ZM187.653 31.9372L192.413 26.3092L194.149 27.3172L190.229 32.1052L194.149 36.8932L192.413 37.9292L187.653 32.3012V31.9372ZM199.987 22.6692V39.5252H202.731C202.731 33.9532 202.395 28.1852 202.395 22.3332H206.511V21.9692C206.511 21.6332 206.455 21.1292 206.427 20.7092L206.371 19.9532L196.599 19.7852C196.515 20.3172 196.543 22.1652 196.543 22.6692H199.987ZM208.912 19.9252C208.996 19.9252 208.996 24.0692 208.912 28.1012C208.884 30.4812 208.828 33.1972 208.744 36.2492C208.744 36.6132 208.352 39.4132 210.9 39.4972C212.272 39.5812 213.252 39.5532 213.896 39.5812C214.26 39.6092 214.568 39.6092 214.82 39.6092C215.352 39.5252 215.8 39.3852 216.22 39.1612C216.92 38.7412 217.592 38.0412 217.564 36.6972C217.564 35.3532 217.508 31.0692 217.424 27.1212L217.34 19.5332L214.932 19.6452L214.708 35.5212C214.68 35.8292 214.624 36.1092 214.54 36.3612C214.344 36.7812 213.98 37.1732 213.196 37.1732C211.6 37.1732 211.488 36.9212 211.488 35.5772C211.488 34.9332 211.46 30.9012 211.46 27.1212C211.432 24.8812 211.432 22.3892 211.432 19.6452C210.9 19.6732 210.452 19.7292 210.088 19.7572C209.444 19.8412 208.8 19.8972 208.912 19.9252ZM228.919 19.8972C228.191 19.8972 224.999 20.3452 222.843 20.8772C221.751 21.1292 221.219 21.6332 220.911 22.0532C220.743 22.3052 220.659 22.5852 220.631 22.8652L220.295 36.2212C220.519 38.6572 221.891 39.7492 224.439 39.5252L229.367 39.0772L229.199 36.7252C228.639 36.8092 228.107 36.8652 227.575 36.9212C226.679 37.0052 225.587 37.0892 224.915 37.0892C223.543 37.0892 223.347 36.6972 222.983 36.1092C222.647 35.4652 222.619 27.3452 222.731 25.4132C222.815 24.4332 223.151 23.9572 223.487 23.7052C223.683 23.5652 223.907 23.4812 224.159 23.4532L228.779 22.8932L228.919 19.8972ZM244.113 32.3012L239.353 37.9292L237.617 36.8932L241.537 32.1052L237.617 27.3172L239.353 26.3092L244.113 31.9372V32.3012ZM238.541 32.3012L233.809 37.9292L232.073 36.8932L235.993 32.1052L232.073 27.3172L233.809 26.3092L238.541 31.9372V32.3012ZM262.767 30.4812C262.403 30.2852 262.011 30.1452 261.535 30.0612L257.979 29.2772C258.175 29.3052 258.399 29.3052 258.679 29.3052C259.155 29.3052 259.855 29.3052 260.863 29.2212C261.843 29.1372 262.487 28.6892 262.851 28.2692C263.047 28.0172 263.215 27.7372 263.327 27.4292L263.411 25.9172C263.439 24.9932 263.439 23.7332 263.327 22.3612C263.187 21.0172 262.403 20.3732 261.647 20.0652C261.199 19.8692 260.695 19.7852 260.135 19.8132C258.455 19.7292 256.607 19.8412 254.843 20.0932C254.591 26.2252 254.591 32.4692 255.123 39.7212L257.615 39.6092C258.987 39.5252 260.527 39.4972 261.507 39.4132C262.431 39.3852 262.935 39.0772 263.187 38.7692C263.327 38.6012 263.439 38.4052 263.467 38.2092C263.523 37.4532 263.579 36.7252 263.663 35.9972C263.775 34.7652 263.859 33.3092 263.943 32.3292C264.027 31.3492 263.411 30.8172 262.767 30.4812ZM257.979 21.1012C258.007 21.1012 258.007 21.0732 258.035 21.0732C258.735 20.9332 259.715 21.2692 259.771 22.0812C259.799 22.3332 259.855 24.9092 259.771 25.5532C259.715 26.0292 259.407 26.8412 258.903 27.0932C258.651 27.2052 257.923 27.2332 257.923 27.2332C257.923 27.2332 257.951 21.1012 257.979 21.1012ZM260.247 34.3732C260.219 34.8772 260.163 35.3812 260.107 35.8852C260.051 36.4452 259.967 37.0612 259.687 37.5372C259.407 37.9852 257.951 37.9572 257.951 37.9572C257.951 37.9572 257.699 32.4972 257.923 31.4332C257.951 31.3772 259.127 31.4052 259.463 31.6852C260.191 32.3292 260.275 33.4492 260.247 34.3732ZM281.8 20.3452C281.436 20.1492 281.044 20.0092 280.596 19.9252L279.28 19.8692C278.468 19.8412 277.376 19.8412 276.172 19.8692C274.968 19.8972 274.408 20.5972 274.1 21.2692C273.932 21.6612 273.848 22.1092 273.82 22.6132L273.792 36.2212C273.708 37.9292 274.212 39.1892 276.004 39.4972C276.648 39.4972 277.264 39.4972 277.88 39.5252C278.916 39.5532 280.092 39.5812 280.848 39.5532C282.052 39.5532 282.892 38.3492 282.892 37.1732L282.948 30.8732C282.948 27.5972 283.004 23.9012 283.004 22.6692C283.004 21.4092 282.388 20.7092 281.8 20.3452ZM280.4 35.7452C280.344 36.0532 280.288 36.3332 280.204 36.5852C279.98 37.0052 279.336 37.3692 278.44 37.3692C276.592 37.3692 276.452 37.1172 276.452 35.7732C276.452 35.1572 276.508 23.5092 276.508 23.0892C276.508 21.7452 276.62 21.4932 278.468 21.4932C279.392 21.4932 279.868 21.5492 280.092 21.9692C280.176 22.2212 280.204 22.8372 280.232 23.1452C280.232 23.1452 280.344 25.3292 280.344 28.7452C280.344 31.5452 280.4 35.7452 280.4 35.7452ZM296.643 36.8372C296.559 31.7972 296.587 26.7292 296.447 19.8692L289.307 19.9812L289.391 23.6492C289.419 25.6652 289.419 27.9052 289.307 29.2212C289.195 30.5372 288.579 32.4412 287.991 34.0372C287.655 34.9612 287.291 35.9412 286.871 36.9212L284.631 36.9772C284.547 37.8452 284.491 38.6852 284.575 39.5532L284.603 39.7212L284.659 41.2332C284.687 42.0172 284.715 42.8012 284.715 42.8852H287.347L287.403 39.6652L297.455 39.6092L297.511 42.7172L300.143 42.6612L300.283 36.9212L296.643 36.8372ZM293.591 36.7812C293.591 36.7812 290.063 37.0332 290.007 36.8652C289.923 36.3612 291.127 35.1292 291.659 29.2772C291.743 28.3812 291.631 22.7252 291.659 22.5852C291.827 22.5852 292.975 22.6412 293.283 22.6132C293.339 23.0332 293.591 36.7812 293.591 36.7812ZM302.383 39.5532C302.299 39.6372 302.915 39.6092 303.503 39.5252L304.707 39.3852L304.875 31.9372L307.507 32.1052L308.095 39.2732L310.419 39.2172L310.475 19.7572H308.459L307.619 29.8092L304.651 29.6412L304.119 20.1772C303.755 20.1772 303.391 20.1772 303.083 20.1492C302.551 20.1492 301.991 20.1212 301.907 20.1212C301.739 20.1212 302.495 39.4412 302.383 39.5532ZM320.347 20.3452C319.983 20.1492 319.591 20.0092 319.143 19.9252L317.827 19.8692C317.015 19.8412 315.923 19.8412 314.719 19.8692C313.515 19.8972 312.955 20.5972 312.647 21.2692C312.479 21.6612 312.395 22.1092 312.367 22.6132L312.339 36.2212C312.255 37.9292 312.759 39.1892 314.551 39.4972C315.195 39.4972 315.811 39.4972 316.427 39.5252C317.463 39.5532 318.639 39.5812 319.395 39.5532C320.599 39.5532 321.439 38.3492 321.439 37.1732L321.495 30.8732C321.495 27.5972 321.551 23.9012 321.551 22.6692C321.551 21.4092 320.935 20.7092 320.347 20.3452ZM318.947 35.7452C318.891 36.0532 318.835 36.3332 318.751 36.5852C318.527 37.0052 317.883 37.3692 316.987 37.3692C315.139 37.3692 314.999 37.1172 314.999 35.7732C314.999 35.1572 315.055 23.5092 315.055 23.0892C315.055 21.7452 315.167 21.4932 317.015 21.4932C317.939 21.4932 318.415 21.5492 318.639 21.9692C318.723 22.2212 318.751 22.8372 318.779 23.1452C318.779 23.1452 318.891 25.3292 318.891 28.7452C318.891 31.5452 318.947 35.7452 318.947 35.7452ZM325.838 39.4972L326.174 25.8892L329.618 32.8892H331.438L334.406 26.7012L334.602 39.4972L337.15 39.6652L336.394 19.8132H334.126L330.682 29.1652L325.894 19.8132L323.374 20.1772L323.542 39.4972H325.838ZM346.724 19.8972C346.864 19.8972 346.668 33.0012 346.752 33.0012H349.608H352.38L352.52 39.7212L355.46 39.5252L355.712 19.9252L352.968 19.8132L352.464 30.2012L349.244 30.3412L349.356 20.0372L347.984 19.9532C347.312 19.9252 346.64 19.8972 346.724 19.8972ZM357.882 39.4972H366.282V37.3972H360.598C360.57 36.3052 360.318 34.6252 360.318 33.5332V33.1972L365.582 32.4972V30.3972H360.318C360.234 29.6132 359.842 23.8732 359.982 21.9972H366.282V19.8972C363.482 19.8972 360.29 19.7572 357.49 19.8972L357.882 39.4972ZM367.842 19.9812L368.066 39.6652H370.53L370.586 31.1532L374.45 39.6092L376.662 37.8732L372.042 29.6972L377.082 21.6332L375.486 19.7012L370.418 27.9332L370.306 19.5332L367.842 19.9812ZM379.077 39.4972H387.477V37.3972H381.793C381.765 36.3052 381.513 34.6252 381.513 33.5332V33.1972L386.777 32.4972V30.3972H381.513C381.429 29.6132 381.037 23.8732 381.177 21.9972H387.477V19.8972C384.677 19.8972 381.485 19.7572 378.685 19.8972L379.077 39.4972ZM406.305 39.4972L406.557 19.9252L403.925 20.0372L400.061 32.8332L399.781 19.5332L397.037 19.8692L397.429 39.7212L400.285 39.6092L403.869 27.9332L403.449 39.5532L406.305 39.4972ZM415.15 30.9852C416.018 30.7892 416.438 30.3132 416.634 29.8372C416.746 29.5572 416.802 29.2492 416.83 28.9412C416.858 28.1292 416.858 27.3172 416.858 26.5052C416.858 25.1332 416.858 23.4532 416.774 22.2212C416.69 21.0172 415.962 20.4292 415.206 20.1212C414.786 19.9532 414.282 19.8692 413.75 19.8692L408.318 20.4292L408.43 22.5292L410.474 22.4172C411.566 22.3332 412.798 22.3332 413.386 22.3052C413.946 22.3052 414.31 22.5852 414.534 22.8932C414.674 23.0892 414.758 23.2852 414.842 23.4812C414.87 23.4252 414.898 23.4812 414.926 23.6492C415.01 23.9572 415.01 24.6572 415.094 26.3372C415.178 28.0172 414.31 28.8572 413.442 29.2772C412.938 29.5292 412.35 29.6692 411.706 29.6972L411.818 32.0772C413.302 31.9932 414.422 33.1412 414.506 33.8412C414.534 34.0372 414.562 34.2612 414.562 34.5132C414.562 34.9332 414.534 35.5212 414.338 36.1652C414.142 36.8092 413.582 37.0892 413.106 37.2292C412.798 37.3132 412.49 37.3412 412.182 37.3412L408.318 36.9772L408.15 39.4412L410.95 39.4972C412.462 39.4972 414.17 39.5532 415.038 39.5532C415.906 39.5532 416.298 39.1332 416.494 38.6852C416.606 38.4332 416.662 38.1532 416.662 37.8172C416.662 37.2292 416.662 36.6412 416.69 36.0532C416.69 35.0732 416.718 33.8692 416.718 33.0852C416.718 31.3492 415.738 31.1252 415.15 30.9852ZM429.162 39.4972L429.498 25.8892L432.942 32.8892H434.762L437.73 26.7012L437.926 39.4972L440.474 39.6652L439.718 19.8132H437.45L434.006 29.1652L429.218 19.8132L426.698 20.1772L426.866 39.4972H429.162ZM449.021 20.0092C447.817 19.9252 445.241 19.9252 443.785 19.9252L442.077 39.4972H444.485C444.905 36.7252 444.961 34.0652 445.493 31.9372L447.901 32.3012C448.349 33.7852 448.713 37.7332 448.937 39.4972H451.345L449.021 20.0092ZM447.677 29.8372L445.801 29.6132L446.081 23.7892L446.893 23.8172L447.677 29.8372ZM453.035 19.8692C452.951 26.1692 453.175 32.6652 453.371 39.4972H455.891V22.3892H461.463C461.547 21.8292 461.575 20.6252 461.575 19.8692H453.035ZM469.806 20.0092C468.602 19.9252 466.026 19.9252 464.57 19.9252L462.862 39.4972H465.27C465.69 36.7252 465.746 34.0652 466.278 31.9372L468.686 32.3012C469.134 33.7852 469.498 37.7332 469.722 39.4972H472.13L469.806 20.0092ZM468.462 29.8372L466.586 29.6132L466.866 23.7892L467.678 23.8172L468.462 29.8372ZM480.54 30.9852C481.408 30.7892 481.828 30.3132 482.024 29.8372C482.136 29.5572 482.192 29.2492 482.22 28.9412C482.248 28.1292 482.248 27.3172 482.248 26.5052C482.248 25.1332 482.248 23.4532 482.164 22.2212C482.08 21.0172 481.352 20.4292 480.596 20.1212C480.176 19.9532 479.672 19.8692 479.14 19.8692L473.708 20.4292L473.82 22.5292L475.864 22.4172C476.956 22.3332 478.188 22.3332 478.776 22.3052C479.336 22.3052 479.7 22.5852 479.924 22.8932C480.064 23.0892 480.148 23.2852 480.232 23.4812C480.26 23.4252 480.288 23.4812 480.316 23.6492C480.4 23.9572 480.4 24.6572 480.484 26.3372C480.568 28.0172 479.7 28.8572 478.832 29.2772C478.328 29.5292 477.74 29.6692 477.096 29.6972L477.208 32.0772C478.692 31.9932 479.812 33.1412 479.896 33.8412C479.924 34.0372 479.952 34.2612 479.952 34.5132C479.952 34.9332 479.924 35.5212 479.728 36.1652C479.532 36.8092 478.972 37.0892 478.496 37.2292C478.188 37.3132 477.88 37.3412 477.572 37.3412L473.708 36.9772L473.54 39.4412L476.34 39.4972C477.852 39.4972 479.56 39.5532 480.428 39.5532C481.296 39.5532 481.688 39.1332 481.884 38.6852C481.996 38.4332 482.052 38.1532 482.052 37.8172C482.052 37.2292 482.052 36.6412 482.08 36.0532C482.08 35.0732 482.108 33.8692 482.108 33.0852C482.108 31.3492 481.128 31.1252 480.54 30.9852ZM493.328 39.4972L493.58 19.9252L490.948 20.0372L487.084 32.8332L486.804 19.5332L484.06 19.8692L484.452 39.7212L487.308 39.6092L490.892 27.9332L490.472 39.5532L493.328 39.4972ZM495.957 39.5532C495.873 39.6372 496.489 39.6092 497.077 39.5252L498.281 39.3852L498.449 31.9372L501.081 32.1052L501.669 39.2732L503.993 39.2172L504.049 19.7572H502.033L501.193 29.8092L498.225 29.6412L497.693 20.1772C497.329 20.1772 496.965 20.1772 496.657 20.1492C496.125 20.1492 495.565 20.1212 495.481 20.1212C495.313 20.1212 496.069 39.4412 495.957 39.5532ZM512.661 20.0092C511.457 19.9252 508.881 19.9252 507.425 19.9252L505.717 39.4972H508.125C508.545 36.7252 508.601 34.0652 509.133 31.9372L511.541 32.3012C511.989 33.7852 512.353 37.7332 512.577 39.4972H514.985L512.661 20.0092ZM511.317 29.8372L509.441 29.6132L509.721 23.7892L510.533 23.8172L511.317 29.8372Z" fill="#004F91"/>
<rect x="518.134" y="8.96228" width="112.512" height="41"/>
</svg>
